G04 #@! TF.GenerationSoftware,KiCad,Pcbnew,(6.0.11)*
G04 #@! TF.CreationDate,2023-03-04T17:24:57+01:00*
G04 #@! TF.ProjectId,jig2,6a696732-2e6b-4696-9361-645f70636258,rev?*
G04 #@! TF.SameCoordinates,Original*
G04 #@! TF.FileFunction,Legend,Top*
G04 #@! TF.FilePolarity,Positive*
%FSLAX46Y46*%
G04 Gerber Fmt 4.6, Leading zero omitted, Abs format (unit mm)*
G04 Created by KiCad (PCBNEW (6.0.11)) date 2023-03-04 17:24:57*
%MOMM*%
%LPD*%
G01*
G04 APERTURE LIST*
G04 Aperture macros list*
%AMRoundRect*
0 Rectangle with rounded corners*
0 $1 Rounding radius*
0 $2 $3 $4 $5 $6 $7 $8 $9 X,Y pos of 4 corners*
0 Add a 4 corners polygon primitive as box body*
4,1,4,$2,$3,$4,$5,$6,$7,$8,$9,$2,$3,0*
0 Add four circle primitives for the rounded corners*
1,1,$1+$1,$2,$3*
1,1,$1+$1,$4,$5*
1,1,$1+$1,$6,$7*
1,1,$1+$1,$8,$9*
0 Add four rect primitives between the rounded corners*
20,1,$1+$1,$2,$3,$4,$5,0*
20,1,$1+$1,$4,$5,$6,$7,0*
20,1,$1+$1,$6,$7,$8,$9,0*
20,1,$1+$1,$8,$9,$2,$3,0*%
%AMFreePoly0*
4,1,22,0.500000,-0.750000,0.000000,-0.750000,0.000000,-0.745033,-0.079941,-0.743568,-0.215256,-0.701293,-0.333266,-0.622738,-0.424486,-0.514219,-0.481581,-0.384460,-0.499164,-0.250000,-0.500000,-0.250000,-0.500000,0.250000,-0.499164,0.250000,-0.499963,0.256109,-0.478152,0.396186,-0.417904,0.524511,-0.324060,0.630769,-0.204165,0.706417,-0.067858,0.745374,0.000000,0.744959,0.000000,0.750000,
0.500000,0.750000,0.500000,-0.750000,0.500000,-0.750000,$1*%
%AMFreePoly1*
4,1,20,0.000000,0.744959,0.073905,0.744508,0.209726,0.703889,0.328688,0.626782,0.421226,0.519385,0.479903,0.390333,0.500000,0.250000,0.500000,-0.250000,0.499851,-0.262216,0.476331,-0.402017,0.414519,-0.529596,0.319384,-0.634700,0.198574,-0.708877,0.061801,-0.746166,0.000000,-0.745033,0.000000,-0.750000,-0.500000,-0.750000,-0.500000,0.750000,0.000000,0.750000,0.000000,0.744959,
0.000000,0.744959,$1*%
G04 Aperture macros list end*
%ADD10C,0.300000*%
%ADD11C,0.150000*%
%ADD12C,0.120000*%
%ADD13C,0.127000*%
%ADD14FreePoly0,180.000000*%
%ADD15FreePoly1,180.000000*%
%ADD16RoundRect,0.250000X0.350000X0.450000X-0.350000X0.450000X-0.350000X-0.450000X0.350000X-0.450000X0*%
%ADD17RoundRect,0.250000X-0.450000X0.350000X-0.450000X-0.350000X0.450000X-0.350000X0.450000X0.350000X0*%
%ADD18C,2.000000*%
%ADD19R,1.700000X1.700000*%
%ADD20O,1.700000X1.700000*%
%ADD21R,0.800000X1.900000*%
%ADD22R,1.800000X1.800000*%
%ADD23C,1.800000*%
%ADD24RoundRect,0.250000X-0.350000X-0.450000X0.350000X-0.450000X0.350000X0.450000X-0.350000X0.450000X0*%
%ADD25R,1.900000X0.800000*%
%ADD26FreePoly0,90.000000*%
%ADD27FreePoly1,90.000000*%
%ADD28C,1.371600*%
%ADD29C,2.500000*%
G04 APERTURE END LIST*
D10*
X8440476Y-32654761D02*
X8440476Y-30654761D01*
X9107142Y-32083333D01*
X9773809Y-30654761D01*
X9773809Y-32654761D01*
X11011904Y-32654761D02*
X10821428Y-32559523D01*
X10726190Y-32464285D01*
X10630952Y-32273809D01*
X10630952Y-31702380D01*
X10726190Y-31511904D01*
X10821428Y-31416666D01*
X11011904Y-31321428D01*
X11297619Y-31321428D01*
X11488095Y-31416666D01*
X11583333Y-31511904D01*
X11678571Y-31702380D01*
X11678571Y-32273809D01*
X11583333Y-32464285D01*
X11488095Y-32559523D01*
X11297619Y-32654761D01*
X11011904Y-32654761D01*
X12535714Y-32654761D02*
X12535714Y-31321428D01*
X12535714Y-31702380D02*
X12630952Y-31511904D01*
X12726190Y-31416666D01*
X12916666Y-31321428D01*
X13107142Y-31321428D01*
X14630952Y-31321428D02*
X14630952Y-32940476D01*
X14535714Y-33130952D01*
X14440476Y-33226190D01*
X14249999Y-33321428D01*
X13964285Y-33321428D01*
X13773809Y-33226190D01*
X14630952Y-32559523D02*
X14440476Y-32654761D01*
X14059523Y-32654761D01*
X13869047Y-32559523D01*
X13773809Y-32464285D01*
X13678571Y-32273809D01*
X13678571Y-31702380D01*
X13773809Y-31511904D01*
X13869047Y-31416666D01*
X14059523Y-31321428D01*
X14440476Y-31321428D01*
X14630952Y-31416666D01*
X16345238Y-32559523D02*
X16154761Y-32654761D01*
X15773809Y-32654761D01*
X15583333Y-32559523D01*
X15488095Y-32369047D01*
X15488095Y-31607142D01*
X15583333Y-31416666D01*
X15773809Y-31321428D01*
X16154761Y-31321428D01*
X16345238Y-31416666D01*
X16440476Y-31607142D01*
X16440476Y-31797619D01*
X15488095Y-31988095D01*
X17297619Y-31321428D02*
X17297619Y-32654761D01*
X17297619Y-31511904D02*
X17392857Y-31416666D01*
X17583333Y-31321428D01*
X17869047Y-31321428D01*
X18059523Y-31416666D01*
X18154761Y-31607142D01*
X18154761Y-32654761D01*
X18916666Y-31321428D02*
X19297619Y-32654761D01*
X19678571Y-31702380D01*
X20059523Y-32654761D01*
X20440476Y-31321428D01*
X21202380Y-32654761D02*
X21202380Y-31321428D01*
X21202380Y-30654761D02*
X21107142Y-30750000D01*
X21202380Y-30845238D01*
X21297619Y-30750000D01*
X21202380Y-30654761D01*
X21202380Y-30845238D01*
X22154761Y-32654761D02*
X22154761Y-31321428D01*
X22154761Y-31702380D02*
X22249999Y-31511904D01*
X22345238Y-31416666D01*
X22535714Y-31321428D01*
X22726190Y-31321428D01*
X24250000Y-32654761D02*
X24250000Y-30654761D01*
X24250000Y-32559523D02*
X24059523Y-32654761D01*
X23678571Y-32654761D01*
X23488095Y-32559523D01*
X23392857Y-32464285D01*
X23297619Y-32273809D01*
X23297619Y-31702380D01*
X23392857Y-31511904D01*
X23488095Y-31416666D01*
X23678571Y-31321428D01*
X24059523Y-31321428D01*
X24250000Y-31416666D01*
X25964285Y-32559523D02*
X25773809Y-32654761D01*
X25392857Y-32654761D01*
X25202380Y-32559523D01*
X25107142Y-32369047D01*
X25107142Y-31607142D01*
X25202380Y-31416666D01*
X25392857Y-31321428D01*
X25773809Y-31321428D01*
X25964285Y-31416666D01*
X26059523Y-31607142D01*
X26059523Y-31797619D01*
X25107142Y-31988095D01*
X26821428Y-32559523D02*
X27011904Y-32654761D01*
X27392857Y-32654761D01*
X27583333Y-32559523D01*
X27678571Y-32369047D01*
X27678571Y-32273809D01*
X27583333Y-32083333D01*
X27392857Y-31988095D01*
X27107142Y-31988095D01*
X26916666Y-31892857D01*
X26821428Y-31702380D01*
X26821428Y-31607142D01*
X26916666Y-31416666D01*
X27107142Y-31321428D01*
X27392857Y-31321428D01*
X27583333Y-31416666D01*
X28535714Y-32464285D02*
X28630952Y-32559523D01*
X28535714Y-32654761D01*
X28440476Y-32559523D01*
X28535714Y-32464285D01*
X28535714Y-32654761D01*
X30345238Y-32654761D02*
X30345238Y-30654761D01*
X30345238Y-32559523D02*
X30154761Y-32654761D01*
X29773809Y-32654761D01*
X29583333Y-32559523D01*
X29488095Y-32464285D01*
X29392857Y-32273809D01*
X29392857Y-31702380D01*
X29488095Y-31511904D01*
X29583333Y-31416666D01*
X29773809Y-31321428D01*
X30154761Y-31321428D01*
X30345238Y-31416666D01*
X32059523Y-32559523D02*
X31869047Y-32654761D01*
X31488095Y-32654761D01*
X31297619Y-32559523D01*
X31202380Y-32369047D01*
X31202380Y-31607142D01*
X31297619Y-31416666D01*
X31488095Y-31321428D01*
X31869047Y-31321428D01*
X32059523Y-31416666D01*
X32154761Y-31607142D01*
X32154761Y-31797619D01*
X31202380Y-31988095D01*
D11*
X24166666Y-82002380D02*
X24166666Y-82716666D01*
X24119047Y-82859523D01*
X24023809Y-82954761D01*
X23880952Y-83002380D01*
X23785714Y-83002380D01*
X24642857Y-83002380D02*
X24642857Y-82002380D01*
X25023809Y-82002380D01*
X25119047Y-82050000D01*
X25166666Y-82097619D01*
X25214285Y-82192857D01*
X25214285Y-82335714D01*
X25166666Y-82430952D01*
X25119047Y-82478571D01*
X25023809Y-82526190D01*
X24642857Y-82526190D01*
X26166666Y-83002380D02*
X25595238Y-83002380D01*
X25880952Y-83002380D02*
X25880952Y-82002380D01*
X25785714Y-82145238D01*
X25690476Y-82240476D01*
X25595238Y-82288095D01*
X17083333Y-83222380D02*
X16750000Y-82746190D01*
X16511904Y-83222380D02*
X16511904Y-82222380D01*
X16892857Y-82222380D01*
X16988095Y-82270000D01*
X17035714Y-82317619D01*
X17083333Y-82412857D01*
X17083333Y-82555714D01*
X17035714Y-82650952D01*
X16988095Y-82698571D01*
X16892857Y-82746190D01*
X16511904Y-82746190D01*
X17654761Y-82650952D02*
X17559523Y-82603333D01*
X17511904Y-82555714D01*
X17464285Y-82460476D01*
X17464285Y-82412857D01*
X17511904Y-82317619D01*
X17559523Y-82270000D01*
X17654761Y-82222380D01*
X17845238Y-82222380D01*
X17940476Y-82270000D01*
X17988095Y-82317619D01*
X18035714Y-82412857D01*
X18035714Y-82460476D01*
X17988095Y-82555714D01*
X17940476Y-82603333D01*
X17845238Y-82650952D01*
X17654761Y-82650952D01*
X17559523Y-82698571D01*
X17511904Y-82746190D01*
X17464285Y-82841428D01*
X17464285Y-83031904D01*
X17511904Y-83127142D01*
X17559523Y-83174761D01*
X17654761Y-83222380D01*
X17845238Y-83222380D01*
X17940476Y-83174761D01*
X17988095Y-83127142D01*
X18035714Y-83031904D01*
X18035714Y-82841428D01*
X17988095Y-82746190D01*
X17940476Y-82698571D01*
X17845238Y-82650952D01*
X5833333Y-17452380D02*
X5500000Y-16976190D01*
X5261904Y-17452380D02*
X5261904Y-16452380D01*
X5642857Y-16452380D01*
X5738095Y-16500000D01*
X5785714Y-16547619D01*
X5833333Y-16642857D01*
X5833333Y-16785714D01*
X5785714Y-16880952D01*
X5738095Y-16928571D01*
X5642857Y-16976190D01*
X5261904Y-16976190D01*
X6690476Y-16785714D02*
X6690476Y-17452380D01*
X6452380Y-16404761D02*
X6214285Y-17119047D01*
X6833333Y-17119047D01*
X4666666Y-3170325D02*
X4809523Y-3217944D01*
X5047619Y-3217944D01*
X5142857Y-3170325D01*
X5190476Y-3122706D01*
X5238095Y-3027468D01*
X5238095Y-2932230D01*
X5190476Y-2836992D01*
X5142857Y-2789373D01*
X5047619Y-2741754D01*
X4857142Y-2694135D01*
X4761904Y-2646516D01*
X4714285Y-2598897D01*
X4666666Y-2503659D01*
X4666666Y-2408421D01*
X4714285Y-2313183D01*
X4761904Y-2265564D01*
X4857142Y-2217944D01*
X5095238Y-2217944D01*
X5238095Y-2265564D01*
X5571428Y-2217944D02*
X5809523Y-3217944D01*
X6000000Y-2503659D01*
X6190476Y-3217944D01*
X6428571Y-2217944D01*
X7333333Y-3217944D02*
X6761904Y-3217944D01*
X7047619Y-3217944D02*
X7047619Y-2217944D01*
X6952380Y-2360802D01*
X6857142Y-2456040D01*
X6761904Y-2503659D01*
X25477619Y-76715238D02*
X25430000Y-76810476D01*
X25334761Y-76905714D01*
X25191904Y-77048571D01*
X25144285Y-77143809D01*
X25144285Y-77239047D01*
X25382380Y-77191428D02*
X25334761Y-77286666D01*
X25239523Y-77381904D01*
X25049047Y-77429523D01*
X24715714Y-77429523D01*
X24525238Y-77381904D01*
X24430000Y-77286666D01*
X24382380Y-77191428D01*
X24382380Y-77000952D01*
X24430000Y-76905714D01*
X24525238Y-76810476D01*
X24715714Y-76762857D01*
X25049047Y-76762857D01*
X25239523Y-76810476D01*
X25334761Y-76905714D01*
X25382380Y-77000952D01*
X25382380Y-77191428D01*
X25382380Y-75810476D02*
X25382380Y-76381904D01*
X25382380Y-76096190D02*
X24382380Y-76096190D01*
X24525238Y-76191428D01*
X24620476Y-76286666D01*
X24668095Y-76381904D01*
X35333333Y-14452380D02*
X35000000Y-13976190D01*
X34761904Y-14452380D02*
X34761904Y-13452380D01*
X35142857Y-13452380D01*
X35238095Y-13500000D01*
X35285714Y-13547619D01*
X35333333Y-13642857D01*
X35333333Y-13785714D01*
X35285714Y-13880952D01*
X35238095Y-13928571D01*
X35142857Y-13976190D01*
X34761904Y-13976190D01*
X35666666Y-13452380D02*
X36285714Y-13452380D01*
X35952380Y-13833333D01*
X36095238Y-13833333D01*
X36190476Y-13880952D01*
X36238095Y-13928571D01*
X36285714Y-14023809D01*
X36285714Y-14261904D01*
X36238095Y-14357142D01*
X36190476Y-14404761D01*
X36095238Y-14452380D01*
X35809523Y-14452380D01*
X35714285Y-14404761D01*
X35666666Y-14357142D01*
X30333333Y-14452380D02*
X30000000Y-13976190D01*
X29761904Y-14452380D02*
X29761904Y-13452380D01*
X30142857Y-13452380D01*
X30238095Y-13500000D01*
X30285714Y-13547619D01*
X30333333Y-13642857D01*
X30333333Y-13785714D01*
X30285714Y-13880952D01*
X30238095Y-13928571D01*
X30142857Y-13976190D01*
X29761904Y-13976190D01*
X30714285Y-13547619D02*
X30761904Y-13500000D01*
X30857142Y-13452380D01*
X31095238Y-13452380D01*
X31190476Y-13500000D01*
X31238095Y-13547619D01*
X31285714Y-13642857D01*
X31285714Y-13738095D01*
X31238095Y-13880952D01*
X30666666Y-14452380D01*
X31285714Y-14452380D01*
X15833333Y-17452380D02*
X15500000Y-16976190D01*
X15261904Y-17452380D02*
X15261904Y-16452380D01*
X15642857Y-16452380D01*
X15738095Y-16500000D01*
X15785714Y-16547619D01*
X15833333Y-16642857D01*
X15833333Y-16785714D01*
X15785714Y-16880952D01*
X15738095Y-16928571D01*
X15642857Y-16976190D01*
X15261904Y-16976190D01*
X16738095Y-16452380D02*
X16261904Y-16452380D01*
X16214285Y-16928571D01*
X16261904Y-16880952D01*
X16357142Y-16833333D01*
X16595238Y-16833333D01*
X16690476Y-16880952D01*
X16738095Y-16928571D01*
X16785714Y-17023809D01*
X16785714Y-17261904D01*
X16738095Y-17357142D01*
X16690476Y-17404761D01*
X16595238Y-17452380D01*
X16357142Y-17452380D01*
X16261904Y-17404761D01*
X16214285Y-17357142D01*
X23821904Y-2572380D02*
X23821904Y-1572380D01*
X24060000Y-1572380D01*
X24202857Y-1620000D01*
X24298095Y-1715238D01*
X24345714Y-1810476D01*
X24393333Y-2000952D01*
X24393333Y-2143809D01*
X24345714Y-2334285D01*
X24298095Y-2429523D01*
X24202857Y-2524761D01*
X24060000Y-2572380D01*
X23821904Y-2572380D01*
X25345714Y-2572380D02*
X24774285Y-2572380D01*
X25060000Y-2572380D02*
X25060000Y-1572380D01*
X24964761Y-1715238D01*
X24869523Y-1810476D01*
X24774285Y-1858095D01*
X22083333Y-69702380D02*
X21750000Y-69226190D01*
X21511904Y-69702380D02*
X21511904Y-68702380D01*
X21892857Y-68702380D01*
X21988095Y-68750000D01*
X22035714Y-68797619D01*
X22083333Y-68892857D01*
X22083333Y-69035714D01*
X22035714Y-69130952D01*
X21988095Y-69178571D01*
X21892857Y-69226190D01*
X21511904Y-69226190D01*
X22416666Y-68702380D02*
X23083333Y-68702380D01*
X22654761Y-69702380D01*
X14804761Y-73467619D02*
X14709523Y-73420000D01*
X14614285Y-73324761D01*
X14471428Y-73181904D01*
X14376190Y-73134285D01*
X14280952Y-73134285D01*
X14328571Y-73372380D02*
X14233333Y-73324761D01*
X14138095Y-73229523D01*
X14090476Y-73039047D01*
X14090476Y-72705714D01*
X14138095Y-72515238D01*
X14233333Y-72420000D01*
X14328571Y-72372380D01*
X14519047Y-72372380D01*
X14614285Y-72420000D01*
X14709523Y-72515238D01*
X14757142Y-72705714D01*
X14757142Y-73039047D01*
X14709523Y-73229523D01*
X14614285Y-73324761D01*
X14519047Y-73372380D01*
X14328571Y-73372380D01*
X15138095Y-72467619D02*
X15185714Y-72420000D01*
X15280952Y-72372380D01*
X15519047Y-72372380D01*
X15614285Y-72420000D01*
X15661904Y-72467619D01*
X15709523Y-72562857D01*
X15709523Y-72658095D01*
X15661904Y-72800952D01*
X15090476Y-73372380D01*
X15709523Y-73372380D01*
X24333333Y-14452380D02*
X24000000Y-13976190D01*
X23761904Y-14452380D02*
X23761904Y-13452380D01*
X24142857Y-13452380D01*
X24238095Y-13500000D01*
X24285714Y-13547619D01*
X24333333Y-13642857D01*
X24333333Y-13785714D01*
X24285714Y-13880952D01*
X24238095Y-13928571D01*
X24142857Y-13976190D01*
X23761904Y-13976190D01*
X25285714Y-14452380D02*
X24714285Y-14452380D01*
X25000000Y-14452380D02*
X25000000Y-13452380D01*
X24904761Y-13595238D01*
X24809523Y-13690476D01*
X24714285Y-13738095D01*
X25416666Y-68702380D02*
X25416666Y-69416666D01*
X25369047Y-69559523D01*
X25273809Y-69654761D01*
X25130952Y-69702380D01*
X25035714Y-69702380D01*
X25892857Y-69702380D02*
X25892857Y-68702380D01*
X26273809Y-68702380D01*
X26369047Y-68750000D01*
X26416666Y-68797619D01*
X26464285Y-68892857D01*
X26464285Y-69035714D01*
X26416666Y-69130952D01*
X26369047Y-69178571D01*
X26273809Y-69226190D01*
X25892857Y-69226190D01*
X26845238Y-68797619D02*
X26892857Y-68750000D01*
X26988095Y-68702380D01*
X27226190Y-68702380D01*
X27321428Y-68750000D01*
X27369047Y-68797619D01*
X27416666Y-68892857D01*
X27416666Y-68988095D01*
X27369047Y-69130952D01*
X26797619Y-69702380D01*
X27416666Y-69702380D01*
X27238095Y-74804380D02*
X27809523Y-74804380D01*
X27523809Y-75804380D02*
X27523809Y-74804380D01*
X28142857Y-75804380D02*
X28142857Y-74804380D01*
X28523809Y-74804380D01*
X28619047Y-74852000D01*
X28666666Y-74899619D01*
X28714285Y-74994857D01*
X28714285Y-75137714D01*
X28666666Y-75232952D01*
X28619047Y-75280571D01*
X28523809Y-75328190D01*
X28142857Y-75328190D01*
X29666666Y-75804380D02*
X29095238Y-75804380D01*
X29380952Y-75804380D02*
X29380952Y-74804380D01*
X29285714Y-74947238D01*
X29190476Y-75042476D01*
X29095238Y-75090095D01*
X29361904Y-2572380D02*
X29361904Y-1572380D01*
X29600000Y-1572380D01*
X29742857Y-1620000D01*
X29838095Y-1715238D01*
X29885714Y-1810476D01*
X29933333Y-2000952D01*
X29933333Y-2143809D01*
X29885714Y-2334285D01*
X29838095Y-2429523D01*
X29742857Y-2524761D01*
X29600000Y-2572380D01*
X29361904Y-2572380D01*
X30314285Y-1667619D02*
X30361904Y-1620000D01*
X30457142Y-1572380D01*
X30695238Y-1572380D01*
X30790476Y-1620000D01*
X30838095Y-1667619D01*
X30885714Y-1762857D01*
X30885714Y-1858095D01*
X30838095Y-2000952D01*
X30266666Y-2572380D01*
X30885714Y-2572380D01*
X10583333Y-23952380D02*
X10250000Y-23476190D01*
X10011904Y-23952380D02*
X10011904Y-22952380D01*
X10392857Y-22952380D01*
X10488095Y-23000000D01*
X10535714Y-23047619D01*
X10583333Y-23142857D01*
X10583333Y-23285714D01*
X10535714Y-23380952D01*
X10488095Y-23428571D01*
X10392857Y-23476190D01*
X10011904Y-23476190D01*
X11059523Y-23952380D02*
X11250000Y-23952380D01*
X11345238Y-23904761D01*
X11392857Y-23857142D01*
X11488095Y-23714285D01*
X11535714Y-23523809D01*
X11535714Y-23142857D01*
X11488095Y-23047619D01*
X11440476Y-23000000D01*
X11345238Y-22952380D01*
X11154761Y-22952380D01*
X11059523Y-23000000D01*
X11011904Y-23047619D01*
X10964285Y-23142857D01*
X10964285Y-23380952D01*
X11011904Y-23476190D01*
X11059523Y-23523809D01*
X11154761Y-23571428D01*
X11345238Y-23571428D01*
X11440476Y-23523809D01*
X11488095Y-23476190D01*
X11535714Y-23380952D01*
X14666666Y-3170325D02*
X14809523Y-3217944D01*
X15047619Y-3217944D01*
X15142857Y-3170325D01*
X15190476Y-3122706D01*
X15238095Y-3027468D01*
X15238095Y-2932230D01*
X15190476Y-2836992D01*
X15142857Y-2789373D01*
X15047619Y-2741754D01*
X14857142Y-2694135D01*
X14761904Y-2646516D01*
X14714285Y-2598897D01*
X14666666Y-2503659D01*
X14666666Y-2408421D01*
X14714285Y-2313183D01*
X14761904Y-2265564D01*
X14857142Y-2217944D01*
X15095238Y-2217944D01*
X15238095Y-2265564D01*
X15571428Y-2217944D02*
X15809523Y-3217944D01*
X16000000Y-2503659D01*
X16190476Y-3217944D01*
X16428571Y-2217944D01*
X16761904Y-2313183D02*
X16809523Y-2265564D01*
X16904761Y-2217944D01*
X17142857Y-2217944D01*
X17238095Y-2265564D01*
X17285714Y-2313183D01*
X17333333Y-2408421D01*
X17333333Y-2503659D01*
X17285714Y-2646516D01*
X16714285Y-3217944D01*
X17333333Y-3217944D01*
X34901904Y-2572380D02*
X34901904Y-1572380D01*
X35140000Y-1572380D01*
X35282857Y-1620000D01*
X35378095Y-1715238D01*
X35425714Y-1810476D01*
X35473333Y-2000952D01*
X35473333Y-2143809D01*
X35425714Y-2334285D01*
X35378095Y-2429523D01*
X35282857Y-2524761D01*
X35140000Y-2572380D01*
X34901904Y-2572380D01*
X35806666Y-1572380D02*
X36425714Y-1572380D01*
X36092380Y-1953333D01*
X36235238Y-1953333D01*
X36330476Y-2000952D01*
X36378095Y-2048571D01*
X36425714Y-2143809D01*
X36425714Y-2381904D01*
X36378095Y-2477142D01*
X36330476Y-2524761D01*
X36235238Y-2572380D01*
X35949523Y-2572380D01*
X35854285Y-2524761D01*
X35806666Y-2477142D01*
X17583333Y-69702380D02*
X17250000Y-69226190D01*
X17011904Y-69702380D02*
X17011904Y-68702380D01*
X17392857Y-68702380D01*
X17488095Y-68750000D01*
X17535714Y-68797619D01*
X17583333Y-68892857D01*
X17583333Y-69035714D01*
X17535714Y-69130952D01*
X17488095Y-69178571D01*
X17392857Y-69226190D01*
X17011904Y-69226190D01*
X18440476Y-68702380D02*
X18250000Y-68702380D01*
X18154761Y-68750000D01*
X18107142Y-68797619D01*
X18011904Y-68940476D01*
X17964285Y-69130952D01*
X17964285Y-69511904D01*
X18011904Y-69607142D01*
X18059523Y-69654761D01*
X18154761Y-69702380D01*
X18345238Y-69702380D01*
X18440476Y-69654761D01*
X18488095Y-69607142D01*
X18535714Y-69511904D01*
X18535714Y-69273809D01*
X18488095Y-69178571D01*
X18440476Y-69130952D01*
X18345238Y-69083333D01*
X18154761Y-69083333D01*
X18059523Y-69130952D01*
X18011904Y-69178571D01*
X17964285Y-69273809D01*
D12*
X23600000Y-81050000D02*
X23600000Y-80450000D01*
X26400000Y-80450000D02*
X26400000Y-81050000D01*
X25700000Y-81750000D02*
X24300000Y-81750000D01*
X24300000Y-79750000D02*
X25700000Y-79750000D01*
X24300000Y-79750000D02*
G75*
G03*
X23600000Y-80450000I0J-700000D01*
G01*
X23600000Y-81050000D02*
G75*
G03*
X24300000Y-81750000I700000J0D01*
G01*
X26400000Y-80450000D02*
G75*
G03*
X25700000Y-79750000I-699999J1D01*
G01*
X25700000Y-81750000D02*
G75*
G03*
X26400000Y-81050000I1J699999D01*
G01*
X17477064Y-81855000D02*
X17022936Y-81855000D01*
X17477064Y-80385000D02*
X17022936Y-80385000D01*
X6735000Y-13772936D02*
X6735000Y-14227064D01*
X5265000Y-13772936D02*
X5265000Y-14227064D01*
X2500000Y-6265564D02*
X2500000Y-7765564D01*
X3750000Y-10265564D02*
X8250000Y-10265564D01*
X9500000Y-7765564D02*
X9500000Y-6265564D01*
X8250000Y-3765564D02*
X3750000Y-3765564D01*
X6290000Y-82610000D02*
X8950000Y-82610000D01*
X8950000Y-34230000D02*
X8950000Y-35560000D01*
X7620000Y-34230000D02*
X8950000Y-34230000D01*
X6290000Y-36830000D02*
X6290000Y-82610000D01*
X6290000Y-36830000D02*
X8950000Y-36830000D01*
X8950000Y-36830000D02*
X8950000Y-82610000D01*
X20850000Y-77380000D02*
X20850000Y-75920000D01*
X20850000Y-77380000D02*
X21780000Y-77380000D01*
X24010000Y-77380000D02*
X24010000Y-74220000D01*
X24010000Y-77380000D02*
X23080000Y-77380000D01*
X36235000Y-10772936D02*
X36235000Y-11227064D01*
X34765000Y-10772936D02*
X34765000Y-11227064D01*
X31235000Y-10772936D02*
X31235000Y-11227064D01*
X29765000Y-10772936D02*
X29765000Y-11227064D01*
X16735000Y-13772936D02*
X16735000Y-14227064D01*
X15265000Y-13772936D02*
X15265000Y-14227064D01*
X23000000Y-6160000D02*
X23000000Y-6316000D01*
X23000000Y-3844000D02*
X23000000Y-4000000D01*
X25601130Y-4000163D02*
G75*
G03*
X23519039Y-4000000I-1041130J-1079837D01*
G01*
X26232335Y-4001392D02*
G75*
G03*
X23000000Y-3844484I-1672335J-1078608D01*
G01*
X23519039Y-6160000D02*
G75*
G03*
X25601130Y-6159837I1040961J1080000D01*
G01*
X23000000Y-6315516D02*
G75*
G03*
X26232335Y-6158608I1560000J1235516D01*
G01*
X22022936Y-71855000D02*
X22477064Y-71855000D01*
X22022936Y-70385000D02*
X22477064Y-70385000D01*
X31645000Y-36840000D02*
X31645000Y-82620000D01*
X34305000Y-36840000D02*
X34305000Y-82620000D01*
X34305000Y-34240000D02*
X34305000Y-35570000D01*
X32975000Y-34240000D02*
X34305000Y-34240000D01*
X31645000Y-36840000D02*
X34305000Y-36840000D01*
X31645000Y-82620000D02*
X34305000Y-82620000D01*
X15660000Y-73840000D02*
X15660000Y-74770000D01*
X15660000Y-73840000D02*
X12500000Y-73840000D01*
X15660000Y-77000000D02*
X14200000Y-77000000D01*
X15660000Y-77000000D02*
X15660000Y-76070000D01*
X25235000Y-10772936D02*
X25235000Y-11227064D01*
X23765000Y-10772936D02*
X23765000Y-11227064D01*
X25950000Y-70600000D02*
X26550000Y-70600000D01*
X25250000Y-72700000D02*
X25250000Y-71300000D01*
X26550000Y-73400000D02*
X25950000Y-73400000D01*
X27250000Y-71300000D02*
X27250000Y-72700000D01*
X27250000Y-71300000D02*
G75*
G03*
X26550000Y-70600000I-700000J0D01*
G01*
X25950000Y-70600000D02*
G75*
G03*
X25250000Y-71300000I0J-700000D01*
G01*
X25250000Y-72700000D02*
G75*
G03*
X25950000Y-73400000I699999J-1D01*
G01*
X26550000Y-73400000D02*
G75*
G03*
X27250000Y-72700000I1J699999D01*
G01*
D13*
X29956000Y-16655000D02*
X30356000Y-17255000D01*
X32506000Y-23755000D02*
X27506000Y-23755000D01*
X27506000Y-16255000D02*
X27506000Y-23755000D01*
X32506000Y-16255000D02*
X32506000Y-23755000D01*
X29956000Y-16655000D02*
X29556000Y-17255000D01*
X29956000Y-16655000D02*
X29956000Y-18505000D01*
X32506000Y-16255000D02*
X27506000Y-16255000D01*
D12*
X29950000Y-77500000D02*
G75*
G03*
X29950000Y-77500000I-1450000J0D01*
G01*
X28540000Y-3844000D02*
X28540000Y-4000000D01*
X28540000Y-6160000D02*
X28540000Y-6316000D01*
X28540000Y-6315516D02*
G75*
G03*
X31772335Y-6158608I1560000J1235516D01*
G01*
X29059039Y-6160000D02*
G75*
G03*
X31141130Y-6159837I1040961J1080000D01*
G01*
X31772335Y-4001392D02*
G75*
G03*
X28540000Y-3844484I-1672335J-1078608D01*
G01*
X31141130Y-4000163D02*
G75*
G03*
X29059039Y-4000000I-1041130J-1079837D01*
G01*
X10015000Y-26272936D02*
X10015000Y-26727064D01*
X11485000Y-26272936D02*
X11485000Y-26727064D01*
X13750000Y-10265564D02*
X18250000Y-10265564D01*
X12500000Y-6265564D02*
X12500000Y-7765564D01*
X19500000Y-7765564D02*
X19500000Y-6265564D01*
X18250000Y-3765564D02*
X13750000Y-3765564D01*
X34080000Y-6160000D02*
X34080000Y-6316000D01*
X34080000Y-3844000D02*
X34080000Y-4000000D01*
X34080000Y-6315516D02*
G75*
G03*
X37312335Y-6158608I1560000J1235516D01*
G01*
X37312335Y-4001392D02*
G75*
G03*
X34080000Y-3844484I-1672335J-1078608D01*
G01*
X36681130Y-4000163D02*
G75*
G03*
X34599039Y-4000000I-1041130J-1079837D01*
G01*
X34599039Y-6160000D02*
G75*
G03*
X36681130Y-6159837I1040961J1080000D01*
G01*
X17977064Y-71855000D02*
X17522936Y-71855000D01*
X17977064Y-70385000D02*
X17522936Y-70385000D01*
%LPC*%
D14*
X25650000Y-80750000D03*
D15*
X24350000Y-80750000D03*
D16*
X18250000Y-81120000D03*
X16250000Y-81120000D03*
D17*
X6000000Y-13000000D03*
X6000000Y-15000000D03*
D18*
X9250000Y-4765564D03*
X2750000Y-4765564D03*
X2750000Y-9265564D03*
X9250000Y-9265564D03*
D19*
X7620000Y-35560000D03*
D20*
X7620000Y-38100000D03*
X7620000Y-40640000D03*
X7620000Y-43180000D03*
X7620000Y-45720000D03*
X7620000Y-48260000D03*
X7620000Y-50800000D03*
X7620000Y-53340000D03*
X7620000Y-55880000D03*
X7620000Y-58420000D03*
X7620000Y-60960000D03*
X7620000Y-63500000D03*
X7620000Y-66040000D03*
X7620000Y-68580000D03*
X7620000Y-71120000D03*
X7620000Y-73660000D03*
X7620000Y-76200000D03*
X7620000Y-78740000D03*
X7620000Y-81280000D03*
D21*
X23380000Y-75120000D03*
X21480000Y-75120000D03*
X22430000Y-78120000D03*
D17*
X35500000Y-10000000D03*
X35500000Y-12000000D03*
X30500000Y-10000000D03*
X30500000Y-12000000D03*
X16000000Y-13000000D03*
X16000000Y-15000000D03*
D22*
X23290000Y-5080000D03*
D23*
X25830000Y-5080000D03*
D24*
X21250000Y-71120000D03*
X23250000Y-71120000D03*
D19*
X32975000Y-35570000D03*
D20*
X32975000Y-38110000D03*
X32975000Y-40650000D03*
X32975000Y-43190000D03*
X32975000Y-45730000D03*
X32975000Y-48270000D03*
X32975000Y-50810000D03*
X32975000Y-53350000D03*
X32975000Y-55890000D03*
X32975000Y-58430000D03*
X32975000Y-60970000D03*
X32975000Y-63510000D03*
X32975000Y-66050000D03*
X32975000Y-68590000D03*
X32975000Y-71130000D03*
X32975000Y-73670000D03*
X32975000Y-76210000D03*
X32975000Y-78750000D03*
X32975000Y-81290000D03*
D25*
X13400000Y-74470000D03*
X13400000Y-76370000D03*
X16400000Y-75420000D03*
D17*
X24500000Y-10000000D03*
X24500000Y-12000000D03*
D26*
X26250000Y-72650000D03*
D27*
X26250000Y-71350000D03*
D28*
X28256000Y-17005000D03*
X28256000Y-19005000D03*
X28256000Y-21005000D03*
X28206000Y-23005000D03*
X30006000Y-20005000D03*
X30006000Y-22005000D03*
X31756000Y-17005000D03*
X31756000Y-19005000D03*
X31756000Y-21005000D03*
X31756000Y-23005000D03*
D29*
X28500000Y-77500000D03*
D22*
X28830000Y-5080000D03*
D23*
X31370000Y-5080000D03*
D17*
X10750000Y-25500000D03*
X10750000Y-27500000D03*
D18*
X19250000Y-4765564D03*
X12750000Y-4765564D03*
X19250000Y-9265564D03*
X12750000Y-9265564D03*
D22*
X34370000Y-5080000D03*
D23*
X36910000Y-5080000D03*
D16*
X18750000Y-71120000D03*
X16750000Y-71120000D03*
D18*
X14750000Y-20820000D03*
X21250000Y-20820000D03*
X14750000Y-25320000D03*
X21250000Y-25320000D03*
M02*
