%TF.GenerationSoftware,KiCad,Pcbnew,(6.0.11)*%
%TF.CreationDate,2023-03-04T17:25:38+01:00*%
%TF.ProjectId,jig2,6a696732-2e6b-4696-9361-645f70636258,rev?*%
%TF.SameCoordinates,Original*%
%TF.FileFunction,Drillmap*%
%TF.FilePolarity,Positive*%
%FSLAX45Y45*%
G04 Gerber Fmt 4.5, Leading zero omitted, Abs format (unit mm)*
G04 Created by KiCad (PCBNEW (6.0.11)) date 2023-03-04 17:25:38*
%MOMM*%
%LPD*%
G01*
G04 APERTURE LIST*
%ADD10C,0.100000*%
%ADD11C,0.200000*%
%ADD12C,0.040000*%
%ADD13C,0.090000*%
%ADD14C,0.110000*%
G04 APERTURE END LIST*
D10*
X0Y-8500000D02*
X0Y0D01*
X4000000Y-8500000D02*
X0Y-8500000D01*
X4000000Y0D02*
X4000000Y-8500000D01*
X0Y0D02*
X4000000Y0D01*
D11*
D12*
X742000Y-2142000D02*
X782000Y-2182000D01*
X782000Y-2142000D02*
X742000Y-2182000D01*
X1080000Y-2955000D02*
X1120000Y-2995000D01*
X1120000Y-2955000D02*
X1080000Y-2995000D01*
X1130000Y-1480000D02*
X1170000Y-1520000D01*
X1170000Y-1480000D02*
X1130000Y-1520000D01*
X1424000Y-7911000D02*
X1464000Y-7951000D01*
X1464000Y-7911000D02*
X1424000Y-7951000D01*
X2030000Y-1505000D02*
X2070000Y-1545000D01*
X2070000Y-1505000D02*
X2030000Y-1545000D01*
X2030000Y-1680000D02*
X2070000Y-1720000D01*
X2070000Y-1680000D02*
X2030000Y-1720000D01*
X2080000Y-1355000D02*
X2120000Y-1395000D01*
X2120000Y-1355000D02*
X2080000Y-1395000D01*
X2280000Y-3530000D02*
X2320000Y-3570000D01*
X2320000Y-3530000D02*
X2280000Y-3570000D01*
X2380000Y-3950000D02*
X2420000Y-3990000D01*
X2420000Y-3950000D02*
X2380000Y-3990000D01*
X2655000Y-3805000D02*
X2695000Y-3845000D01*
X2695000Y-3805000D02*
X2655000Y-3845000D01*
D13*
X2374000Y-508000D02*
G75*
G03*
X2374000Y-508000I-45000J0D01*
G01*
X2628000Y-508000D02*
G75*
G03*
X2628000Y-508000I-45000J0D01*
G01*
X2928000Y-508000D02*
G75*
G03*
X2928000Y-508000I-45000J0D01*
G01*
X3182000Y-508000D02*
G75*
G03*
X3182000Y-508000I-45000J0D01*
G01*
X3482000Y-508000D02*
G75*
G03*
X3482000Y-508000I-45000J0D01*
G01*
X3736000Y-508000D02*
G75*
G03*
X3736000Y-508000I-45000J0D01*
G01*
D10*
X762000Y-3506000D02*
X762000Y-3606000D01*
X712000Y-3556000D02*
X812000Y-3556000D01*
X762000Y-3760000D02*
X762000Y-3860000D01*
X712000Y-3810000D02*
X812000Y-3810000D01*
X762000Y-4014000D02*
X762000Y-4114000D01*
X712000Y-4064000D02*
X812000Y-4064000D01*
X762000Y-4268000D02*
X762000Y-4368000D01*
X712000Y-4318000D02*
X812000Y-4318000D01*
X762000Y-4522000D02*
X762000Y-4622000D01*
X712000Y-4572000D02*
X812000Y-4572000D01*
X762000Y-4776000D02*
X762000Y-4876000D01*
X712000Y-4826000D02*
X812000Y-4826000D01*
X762000Y-5030000D02*
X762000Y-5130000D01*
X712000Y-5080000D02*
X812000Y-5080000D01*
X762000Y-5284000D02*
X762000Y-5384000D01*
X712000Y-5334000D02*
X812000Y-5334000D01*
X762000Y-5538000D02*
X762000Y-5638000D01*
X712000Y-5588000D02*
X812000Y-5588000D01*
X762000Y-5792000D02*
X762000Y-5892000D01*
X712000Y-5842000D02*
X812000Y-5842000D01*
X762000Y-6046000D02*
X762000Y-6146000D01*
X712000Y-6096000D02*
X812000Y-6096000D01*
X762000Y-6300000D02*
X762000Y-6400000D01*
X712000Y-6350000D02*
X812000Y-6350000D01*
X762000Y-6554000D02*
X762000Y-6654000D01*
X712000Y-6604000D02*
X812000Y-6604000D01*
X762000Y-6808000D02*
X762000Y-6908000D01*
X712000Y-6858000D02*
X812000Y-6858000D01*
X762000Y-7062000D02*
X762000Y-7162000D01*
X712000Y-7112000D02*
X812000Y-7112000D01*
X762000Y-7316000D02*
X762000Y-7416000D01*
X712000Y-7366000D02*
X812000Y-7366000D01*
X762000Y-7570000D02*
X762000Y-7670000D01*
X712000Y-7620000D02*
X812000Y-7620000D01*
X762000Y-7824000D02*
X762000Y-7924000D01*
X712000Y-7874000D02*
X812000Y-7874000D01*
X762000Y-8078000D02*
X762000Y-8178000D01*
X712000Y-8128000D02*
X812000Y-8128000D01*
X2820600Y-2250500D02*
X2820600Y-2350500D01*
X2770600Y-2300500D02*
X2870600Y-2300500D01*
X2825600Y-1650500D02*
X2825600Y-1750500D01*
X2775600Y-1700500D02*
X2875600Y-1700500D01*
X2825600Y-1850500D02*
X2825600Y-1950500D01*
X2775600Y-1900500D02*
X2875600Y-1900500D01*
X2825600Y-2050500D02*
X2825600Y-2150500D01*
X2775600Y-2100500D02*
X2875600Y-2100500D01*
X3000600Y-1950500D02*
X3000600Y-2050500D01*
X2950600Y-2000500D02*
X3050600Y-2000500D01*
X3000600Y-2150500D02*
X3000600Y-2250500D01*
X2950600Y-2200500D02*
X3050600Y-2200500D01*
X3175600Y-1650500D02*
X3175600Y-1750500D01*
X3125600Y-1700500D02*
X3225600Y-1700500D01*
X3175600Y-1850500D02*
X3175600Y-1950500D01*
X3125600Y-1900500D02*
X3225600Y-1900500D01*
X3175600Y-2050500D02*
X3175600Y-2150500D01*
X3125600Y-2100500D02*
X3225600Y-2100500D01*
X3175600Y-2250500D02*
X3175600Y-2350500D01*
X3125600Y-2300500D02*
X3225600Y-2300500D01*
X3297500Y-3507000D02*
X3297500Y-3607000D01*
X3247500Y-3557000D02*
X3347500Y-3557000D01*
X3297500Y-3761000D02*
X3297500Y-3861000D01*
X3247500Y-3811000D02*
X3347500Y-3811000D01*
X3297500Y-4015000D02*
X3297500Y-4115000D01*
X3247500Y-4065000D02*
X3347500Y-4065000D01*
X3297500Y-4269000D02*
X3297500Y-4369000D01*
X3247500Y-4319000D02*
X3347500Y-4319000D01*
X3297500Y-4523000D02*
X3297500Y-4623000D01*
X3247500Y-4573000D02*
X3347500Y-4573000D01*
X3297500Y-4777000D02*
X3297500Y-4877000D01*
X3247500Y-4827000D02*
X3347500Y-4827000D01*
X3297500Y-5031000D02*
X3297500Y-5131000D01*
X3247500Y-5081000D02*
X3347500Y-5081000D01*
X3297500Y-5285000D02*
X3297500Y-5385000D01*
X3247500Y-5335000D02*
X3347500Y-5335000D01*
X3297500Y-5539000D02*
X3297500Y-5639000D01*
X3247500Y-5589000D02*
X3347500Y-5589000D01*
X3297500Y-5793000D02*
X3297500Y-5893000D01*
X3247500Y-5843000D02*
X3347500Y-5843000D01*
X3297500Y-6047000D02*
X3297500Y-6147000D01*
X3247500Y-6097000D02*
X3347500Y-6097000D01*
X3297500Y-6301000D02*
X3297500Y-6401000D01*
X3247500Y-6351000D02*
X3347500Y-6351000D01*
X3297500Y-6555000D02*
X3297500Y-6655000D01*
X3247500Y-6605000D02*
X3347500Y-6605000D01*
X3297500Y-6809000D02*
X3297500Y-6909000D01*
X3247500Y-6859000D02*
X3347500Y-6859000D01*
X3297500Y-7063000D02*
X3297500Y-7163000D01*
X3247500Y-7113000D02*
X3347500Y-7113000D01*
X3297500Y-7317000D02*
X3297500Y-7417000D01*
X3247500Y-7367000D02*
X3347500Y-7367000D01*
X3297500Y-7571000D02*
X3297500Y-7671000D01*
X3247500Y-7621000D02*
X3347500Y-7621000D01*
X3297500Y-7825000D02*
X3297500Y-7925000D01*
X3247500Y-7875000D02*
X3347500Y-7875000D01*
X3297500Y-8079000D02*
X3297500Y-8179000D01*
X3247500Y-8129000D02*
X3347500Y-8129000D01*
D14*
X313891Y-515448D02*
X313891Y-437665D01*
X236109Y-437665D01*
X236109Y-515448D01*
X313891Y-515448D01*
X313891Y-965448D02*
X313891Y-887665D01*
X236109Y-887665D01*
X236109Y-965448D01*
X313891Y-965448D01*
X963891Y-515448D02*
X963891Y-437665D01*
X886109Y-437665D01*
X886109Y-515448D01*
X963891Y-515448D01*
X963891Y-965448D02*
X963891Y-887665D01*
X886109Y-887665D01*
X886109Y-965448D01*
X963891Y-965448D01*
X1313891Y-515448D02*
X1313891Y-437665D01*
X1236109Y-437665D01*
X1236109Y-515448D01*
X1313891Y-515448D01*
X1313891Y-965448D02*
X1313891Y-887665D01*
X1236109Y-887665D01*
X1236109Y-965448D01*
X1313891Y-965448D01*
X1513891Y-2120891D02*
X1513891Y-2043109D01*
X1436109Y-2043109D01*
X1436109Y-2120891D01*
X1513891Y-2120891D01*
X1513891Y-2570891D02*
X1513891Y-2493109D01*
X1436109Y-2493109D01*
X1436109Y-2570891D01*
X1513891Y-2570891D01*
X1963891Y-515448D02*
X1963891Y-437665D01*
X1886109Y-437665D01*
X1886109Y-515448D01*
X1963891Y-515448D01*
X1963891Y-965448D02*
X1963891Y-887665D01*
X1886109Y-887665D01*
X1886109Y-965448D01*
X1963891Y-965448D01*
X2163891Y-2120891D02*
X2163891Y-2043109D01*
X2086109Y-2043109D01*
X2086109Y-2120891D01*
X2163891Y-2120891D01*
X2163891Y-2570891D02*
X2163891Y-2493109D01*
X2086109Y-2493109D01*
X2086109Y-2570891D01*
X2163891Y-2570891D01*
D11*
X252619Y-8815476D02*
X252619Y-8615476D01*
X300238Y-8615476D01*
X328810Y-8625000D01*
X347857Y-8644048D01*
X357381Y-8663095D01*
X366905Y-8701190D01*
X366905Y-8729762D01*
X357381Y-8767857D01*
X347857Y-8786905D01*
X328810Y-8805952D01*
X300238Y-8815476D01*
X252619Y-8815476D01*
X452619Y-8815476D02*
X452619Y-8682143D01*
X452619Y-8720238D02*
X462143Y-8701190D01*
X471667Y-8691667D01*
X490714Y-8682143D01*
X509762Y-8682143D01*
X576429Y-8815476D02*
X576429Y-8682143D01*
X576429Y-8615476D02*
X566905Y-8625000D01*
X576429Y-8634524D01*
X585952Y-8625000D01*
X576429Y-8615476D01*
X576429Y-8634524D01*
X700238Y-8815476D02*
X681190Y-8805952D01*
X671667Y-8786905D01*
X671667Y-8615476D01*
X805000Y-8815476D02*
X785952Y-8805952D01*
X776428Y-8786905D01*
X776428Y-8615476D01*
X1033571Y-8815476D02*
X1033571Y-8615476D01*
X1100238Y-8758333D01*
X1166905Y-8615476D01*
X1166905Y-8815476D01*
X1347857Y-8815476D02*
X1347857Y-8710714D01*
X1338333Y-8691667D01*
X1319286Y-8682143D01*
X1281190Y-8682143D01*
X1262143Y-8691667D01*
X1347857Y-8805952D02*
X1328810Y-8815476D01*
X1281190Y-8815476D01*
X1262143Y-8805952D01*
X1252619Y-8786905D01*
X1252619Y-8767857D01*
X1262143Y-8748810D01*
X1281190Y-8739286D01*
X1328810Y-8739286D01*
X1347857Y-8729762D01*
X1443095Y-8682143D02*
X1443095Y-8882143D01*
X1443095Y-8691667D02*
X1462143Y-8682143D01*
X1500238Y-8682143D01*
X1519286Y-8691667D01*
X1528809Y-8701190D01*
X1538333Y-8720238D01*
X1538333Y-8777381D01*
X1528809Y-8796429D01*
X1519286Y-8805952D01*
X1500238Y-8815476D01*
X1462143Y-8815476D01*
X1443095Y-8805952D01*
X1624048Y-8796429D02*
X1633571Y-8805952D01*
X1624048Y-8815476D01*
X1614524Y-8805952D01*
X1624048Y-8796429D01*
X1624048Y-8815476D01*
X1624048Y-8691667D02*
X1633571Y-8701190D01*
X1624048Y-8710714D01*
X1614524Y-8701190D01*
X1624048Y-8691667D01*
X1624048Y-8710714D01*
D12*
X-45000Y-9125000D02*
X-5000Y-9165000D01*
X-5000Y-9125000D02*
X-45000Y-9165000D01*
D11*
X290714Y-9035476D02*
X309762Y-9035476D01*
X328810Y-9045000D01*
X338333Y-9054524D01*
X347857Y-9073571D01*
X357381Y-9111667D01*
X357381Y-9159286D01*
X347857Y-9197381D01*
X338333Y-9216429D01*
X328810Y-9225952D01*
X309762Y-9235476D01*
X290714Y-9235476D01*
X271667Y-9225952D01*
X262143Y-9216429D01*
X252619Y-9197381D01*
X243095Y-9159286D01*
X243095Y-9111667D01*
X252619Y-9073571D01*
X262143Y-9054524D01*
X271667Y-9045000D01*
X290714Y-9035476D01*
X443095Y-9216429D02*
X452619Y-9225952D01*
X443095Y-9235476D01*
X433571Y-9225952D01*
X443095Y-9216429D01*
X443095Y-9235476D01*
X624048Y-9102143D02*
X624048Y-9235476D01*
X576429Y-9025952D02*
X528810Y-9168810D01*
X652619Y-9168810D01*
X766905Y-9035476D02*
X785952Y-9035476D01*
X805000Y-9045000D01*
X814524Y-9054524D01*
X824048Y-9073571D01*
X833571Y-9111667D01*
X833571Y-9159286D01*
X824048Y-9197381D01*
X814524Y-9216429D01*
X805000Y-9225952D01*
X785952Y-9235476D01*
X766905Y-9235476D01*
X747857Y-9225952D01*
X738333Y-9216429D01*
X728809Y-9197381D01*
X719286Y-9159286D01*
X719286Y-9111667D01*
X728809Y-9073571D01*
X738333Y-9054524D01*
X747857Y-9045000D01*
X766905Y-9035476D01*
X957381Y-9035476D02*
X976428Y-9035476D01*
X995476Y-9045000D01*
X1005000Y-9054524D01*
X1014524Y-9073571D01*
X1024048Y-9111667D01*
X1024048Y-9159286D01*
X1014524Y-9197381D01*
X1005000Y-9216429D01*
X995476Y-9225952D01*
X976428Y-9235476D01*
X957381Y-9235476D01*
X938333Y-9225952D01*
X928809Y-9216429D01*
X919286Y-9197381D01*
X909762Y-9159286D01*
X909762Y-9111667D01*
X919286Y-9073571D01*
X928809Y-9054524D01*
X938333Y-9045000D01*
X957381Y-9035476D01*
X1109762Y-9235476D02*
X1109762Y-9102143D01*
X1109762Y-9121190D02*
X1119286Y-9111667D01*
X1138333Y-9102143D01*
X1166905Y-9102143D01*
X1185952Y-9111667D01*
X1195476Y-9130714D01*
X1195476Y-9235476D01*
X1195476Y-9130714D02*
X1205000Y-9111667D01*
X1224048Y-9102143D01*
X1252619Y-9102143D01*
X1271667Y-9111667D01*
X1281190Y-9130714D01*
X1281190Y-9235476D01*
X1376429Y-9235476D02*
X1376429Y-9102143D01*
X1376429Y-9121190D02*
X1385952Y-9111667D01*
X1405000Y-9102143D01*
X1433571Y-9102143D01*
X1452619Y-9111667D01*
X1462143Y-9130714D01*
X1462143Y-9235476D01*
X1462143Y-9130714D02*
X1471667Y-9111667D01*
X1490714Y-9102143D01*
X1519286Y-9102143D01*
X1538333Y-9111667D01*
X1547857Y-9130714D01*
X1547857Y-9235476D01*
X1938333Y-9025952D02*
X1766905Y-9283095D01*
X2195476Y-9035476D02*
X2214524Y-9035476D01*
X2233571Y-9045000D01*
X2243095Y-9054524D01*
X2252619Y-9073571D01*
X2262143Y-9111667D01*
X2262143Y-9159286D01*
X2252619Y-9197381D01*
X2243095Y-9216429D01*
X2233571Y-9225952D01*
X2214524Y-9235476D01*
X2195476Y-9235476D01*
X2176429Y-9225952D01*
X2166905Y-9216429D01*
X2157381Y-9197381D01*
X2147857Y-9159286D01*
X2147857Y-9111667D01*
X2157381Y-9073571D01*
X2166905Y-9054524D01*
X2176429Y-9045000D01*
X2195476Y-9035476D01*
X2347857Y-9216429D02*
X2357381Y-9225952D01*
X2347857Y-9235476D01*
X2338333Y-9225952D01*
X2347857Y-9216429D01*
X2347857Y-9235476D01*
X2481190Y-9035476D02*
X2500238Y-9035476D01*
X2519286Y-9045000D01*
X2528810Y-9054524D01*
X2538333Y-9073571D01*
X2547857Y-9111667D01*
X2547857Y-9159286D01*
X2538333Y-9197381D01*
X2528810Y-9216429D01*
X2519286Y-9225952D01*
X2500238Y-9235476D01*
X2481190Y-9235476D01*
X2462143Y-9225952D01*
X2452619Y-9216429D01*
X2443095Y-9197381D01*
X2433571Y-9159286D01*
X2433571Y-9111667D01*
X2443095Y-9073571D01*
X2452619Y-9054524D01*
X2462143Y-9045000D01*
X2481190Y-9035476D01*
X2738333Y-9235476D02*
X2624048Y-9235476D01*
X2681190Y-9235476D02*
X2681190Y-9035476D01*
X2662143Y-9064048D01*
X2643095Y-9083095D01*
X2624048Y-9092619D01*
X2919286Y-9035476D02*
X2824048Y-9035476D01*
X2814524Y-9130714D01*
X2824048Y-9121190D01*
X2843095Y-9111667D01*
X2890714Y-9111667D01*
X2909762Y-9121190D01*
X2919286Y-9130714D01*
X2928809Y-9149762D01*
X2928809Y-9197381D01*
X2919286Y-9216429D01*
X2909762Y-9225952D01*
X2890714Y-9235476D01*
X2843095Y-9235476D01*
X2824048Y-9225952D01*
X2814524Y-9216429D01*
X2995476Y-9035476D02*
X3128809Y-9035476D01*
X3043095Y-9235476D01*
X3195476Y-9035476D02*
X3195476Y-9073571D01*
X3271667Y-9035476D02*
X3271667Y-9073571D01*
X3566905Y-9311667D02*
X3557381Y-9302143D01*
X3538333Y-9273571D01*
X3528809Y-9254524D01*
X3519286Y-9225952D01*
X3509762Y-9178333D01*
X3509762Y-9140238D01*
X3519286Y-9092619D01*
X3528809Y-9064048D01*
X3538333Y-9045000D01*
X3557381Y-9016429D01*
X3566905Y-9006905D01*
X3747857Y-9235476D02*
X3633571Y-9235476D01*
X3690714Y-9235476D02*
X3690714Y-9035476D01*
X3671667Y-9064048D01*
X3652619Y-9083095D01*
X3633571Y-9092619D01*
X3871667Y-9035476D02*
X3890714Y-9035476D01*
X3909762Y-9045000D01*
X3919286Y-9054524D01*
X3928809Y-9073571D01*
X3938333Y-9111667D01*
X3938333Y-9159286D01*
X3928809Y-9197381D01*
X3919286Y-9216429D01*
X3909762Y-9225952D01*
X3890714Y-9235476D01*
X3871667Y-9235476D01*
X3852619Y-9225952D01*
X3843095Y-9216429D01*
X3833571Y-9197381D01*
X3824048Y-9159286D01*
X3824048Y-9111667D01*
X3833571Y-9073571D01*
X3843095Y-9054524D01*
X3852619Y-9045000D01*
X3871667Y-9035476D01*
X4176428Y-9235476D02*
X4176428Y-9035476D01*
X4262143Y-9235476D02*
X4262143Y-9130714D01*
X4252619Y-9111667D01*
X4233571Y-9102143D01*
X4205000Y-9102143D01*
X4185952Y-9111667D01*
X4176428Y-9121190D01*
X4385952Y-9235476D02*
X4366905Y-9225952D01*
X4357381Y-9216429D01*
X4347857Y-9197381D01*
X4347857Y-9140238D01*
X4357381Y-9121190D01*
X4366905Y-9111667D01*
X4385952Y-9102143D01*
X4414524Y-9102143D01*
X4433571Y-9111667D01*
X4443095Y-9121190D01*
X4452619Y-9140238D01*
X4452619Y-9197381D01*
X4443095Y-9216429D01*
X4433571Y-9225952D01*
X4414524Y-9235476D01*
X4385952Y-9235476D01*
X4566905Y-9235476D02*
X4547857Y-9225952D01*
X4538333Y-9206905D01*
X4538333Y-9035476D01*
X4719286Y-9225952D02*
X4700238Y-9235476D01*
X4662143Y-9235476D01*
X4643095Y-9225952D01*
X4633571Y-9206905D01*
X4633571Y-9130714D01*
X4643095Y-9111667D01*
X4662143Y-9102143D01*
X4700238Y-9102143D01*
X4719286Y-9111667D01*
X4728810Y-9130714D01*
X4728810Y-9149762D01*
X4633571Y-9168810D01*
X4805000Y-9225952D02*
X4824048Y-9235476D01*
X4862143Y-9235476D01*
X4881190Y-9225952D01*
X4890714Y-9206905D01*
X4890714Y-9197381D01*
X4881190Y-9178333D01*
X4862143Y-9168810D01*
X4833571Y-9168810D01*
X4814524Y-9159286D01*
X4805000Y-9140238D01*
X4805000Y-9130714D01*
X4814524Y-9111667D01*
X4833571Y-9102143D01*
X4862143Y-9102143D01*
X4881190Y-9111667D01*
X4957381Y-9311667D02*
X4966905Y-9302143D01*
X4985952Y-9273571D01*
X4995476Y-9254524D01*
X5005000Y-9225952D01*
X5014524Y-9178333D01*
X5014524Y-9140238D01*
X5005000Y-9092619D01*
X4995476Y-9064048D01*
X4985952Y-9045000D01*
X4966905Y-9016429D01*
X4957381Y-9006905D01*
D13*
X-5000Y-9409000D02*
G75*
G03*
X-5000Y-9409000I-45000J0D01*
G01*
D11*
X290714Y-9299476D02*
X309762Y-9299476D01*
X328810Y-9309000D01*
X338333Y-9318524D01*
X347857Y-9337571D01*
X357381Y-9375667D01*
X357381Y-9423286D01*
X347857Y-9461381D01*
X338333Y-9480429D01*
X328810Y-9489952D01*
X309762Y-9499476D01*
X290714Y-9499476D01*
X271667Y-9489952D01*
X262143Y-9480429D01*
X252619Y-9461381D01*
X243095Y-9423286D01*
X243095Y-9375667D01*
X252619Y-9337571D01*
X262143Y-9318524D01*
X271667Y-9309000D01*
X290714Y-9299476D01*
X443095Y-9480429D02*
X452619Y-9489952D01*
X443095Y-9499476D01*
X433571Y-9489952D01*
X443095Y-9480429D01*
X443095Y-9499476D01*
X547857Y-9499476D02*
X585952Y-9499476D01*
X605000Y-9489952D01*
X614524Y-9480429D01*
X633571Y-9451857D01*
X643095Y-9413762D01*
X643095Y-9337571D01*
X633571Y-9318524D01*
X624048Y-9309000D01*
X605000Y-9299476D01*
X566905Y-9299476D01*
X547857Y-9309000D01*
X538333Y-9318524D01*
X528810Y-9337571D01*
X528810Y-9385190D01*
X538333Y-9404238D01*
X547857Y-9413762D01*
X566905Y-9423286D01*
X605000Y-9423286D01*
X624048Y-9413762D01*
X633571Y-9404238D01*
X643095Y-9385190D01*
X766905Y-9299476D02*
X785952Y-9299476D01*
X805000Y-9309000D01*
X814524Y-9318524D01*
X824048Y-9337571D01*
X833571Y-9375667D01*
X833571Y-9423286D01*
X824048Y-9461381D01*
X814524Y-9480429D01*
X805000Y-9489952D01*
X785952Y-9499476D01*
X766905Y-9499476D01*
X747857Y-9489952D01*
X738333Y-9480429D01*
X728809Y-9461381D01*
X719286Y-9423286D01*
X719286Y-9375667D01*
X728809Y-9337571D01*
X738333Y-9318524D01*
X747857Y-9309000D01*
X766905Y-9299476D01*
X957381Y-9299476D02*
X976428Y-9299476D01*
X995476Y-9309000D01*
X1005000Y-9318524D01*
X1014524Y-9337571D01*
X1024048Y-9375667D01*
X1024048Y-9423286D01*
X1014524Y-9461381D01*
X1005000Y-9480429D01*
X995476Y-9489952D01*
X976428Y-9499476D01*
X957381Y-9499476D01*
X938333Y-9489952D01*
X928809Y-9480429D01*
X919286Y-9461381D01*
X909762Y-9423286D01*
X909762Y-9375667D01*
X919286Y-9337571D01*
X928809Y-9318524D01*
X938333Y-9309000D01*
X957381Y-9299476D01*
X1109762Y-9499476D02*
X1109762Y-9366143D01*
X1109762Y-9385190D02*
X1119286Y-9375667D01*
X1138333Y-9366143D01*
X1166905Y-9366143D01*
X1185952Y-9375667D01*
X1195476Y-9394714D01*
X1195476Y-9499476D01*
X1195476Y-9394714D02*
X1205000Y-9375667D01*
X1224048Y-9366143D01*
X1252619Y-9366143D01*
X1271667Y-9375667D01*
X1281190Y-9394714D01*
X1281190Y-9499476D01*
X1376429Y-9499476D02*
X1376429Y-9366143D01*
X1376429Y-9385190D02*
X1385952Y-9375667D01*
X1405000Y-9366143D01*
X1433571Y-9366143D01*
X1452619Y-9375667D01*
X1462143Y-9394714D01*
X1462143Y-9499476D01*
X1462143Y-9394714D02*
X1471667Y-9375667D01*
X1490714Y-9366143D01*
X1519286Y-9366143D01*
X1538333Y-9375667D01*
X1547857Y-9394714D01*
X1547857Y-9499476D01*
X1938333Y-9289952D02*
X1766905Y-9547095D01*
X2195476Y-9299476D02*
X2214524Y-9299476D01*
X2233571Y-9309000D01*
X2243095Y-9318524D01*
X2252619Y-9337571D01*
X2262143Y-9375667D01*
X2262143Y-9423286D01*
X2252619Y-9461381D01*
X2243095Y-9480429D01*
X2233571Y-9489952D01*
X2214524Y-9499476D01*
X2195476Y-9499476D01*
X2176429Y-9489952D01*
X2166905Y-9480429D01*
X2157381Y-9461381D01*
X2147857Y-9423286D01*
X2147857Y-9375667D01*
X2157381Y-9337571D01*
X2166905Y-9318524D01*
X2176429Y-9309000D01*
X2195476Y-9299476D01*
X2347857Y-9480429D02*
X2357381Y-9489952D01*
X2347857Y-9499476D01*
X2338333Y-9489952D01*
X2347857Y-9480429D01*
X2347857Y-9499476D01*
X2481190Y-9299476D02*
X2500238Y-9299476D01*
X2519286Y-9309000D01*
X2528810Y-9318524D01*
X2538333Y-9337571D01*
X2547857Y-9375667D01*
X2547857Y-9423286D01*
X2538333Y-9461381D01*
X2528810Y-9480429D01*
X2519286Y-9489952D01*
X2500238Y-9499476D01*
X2481190Y-9499476D01*
X2462143Y-9489952D01*
X2452619Y-9480429D01*
X2443095Y-9461381D01*
X2433571Y-9423286D01*
X2433571Y-9375667D01*
X2443095Y-9337571D01*
X2452619Y-9318524D01*
X2462143Y-9309000D01*
X2481190Y-9299476D01*
X2614524Y-9299476D02*
X2738333Y-9299476D01*
X2671667Y-9375667D01*
X2700238Y-9375667D01*
X2719286Y-9385190D01*
X2728810Y-9394714D01*
X2738333Y-9413762D01*
X2738333Y-9461381D01*
X2728810Y-9480429D01*
X2719286Y-9489952D01*
X2700238Y-9499476D01*
X2643095Y-9499476D01*
X2624048Y-9489952D01*
X2614524Y-9480429D01*
X2919286Y-9299476D02*
X2824048Y-9299476D01*
X2814524Y-9394714D01*
X2824048Y-9385190D01*
X2843095Y-9375667D01*
X2890714Y-9375667D01*
X2909762Y-9385190D01*
X2919286Y-9394714D01*
X2928809Y-9413762D01*
X2928809Y-9461381D01*
X2919286Y-9480429D01*
X2909762Y-9489952D01*
X2890714Y-9499476D01*
X2843095Y-9499476D01*
X2824048Y-9489952D01*
X2814524Y-9480429D01*
X3100238Y-9366143D02*
X3100238Y-9499476D01*
X3052619Y-9289952D02*
X3005000Y-9432810D01*
X3128809Y-9432810D01*
X3195476Y-9299476D02*
X3195476Y-9337571D01*
X3271667Y-9299476D02*
X3271667Y-9337571D01*
X3566905Y-9575667D02*
X3557381Y-9566143D01*
X3538333Y-9537571D01*
X3528809Y-9518524D01*
X3519286Y-9489952D01*
X3509762Y-9442333D01*
X3509762Y-9404238D01*
X3519286Y-9356619D01*
X3528809Y-9328048D01*
X3538333Y-9309000D01*
X3557381Y-9280429D01*
X3566905Y-9270905D01*
X3728809Y-9299476D02*
X3690714Y-9299476D01*
X3671667Y-9309000D01*
X3662143Y-9318524D01*
X3643095Y-9347095D01*
X3633571Y-9385190D01*
X3633571Y-9461381D01*
X3643095Y-9480429D01*
X3652619Y-9489952D01*
X3671667Y-9499476D01*
X3709762Y-9499476D01*
X3728809Y-9489952D01*
X3738333Y-9480429D01*
X3747857Y-9461381D01*
X3747857Y-9413762D01*
X3738333Y-9394714D01*
X3728809Y-9385190D01*
X3709762Y-9375667D01*
X3671667Y-9375667D01*
X3652619Y-9385190D01*
X3643095Y-9394714D01*
X3633571Y-9413762D01*
X3985952Y-9499476D02*
X3985952Y-9299476D01*
X4071667Y-9499476D02*
X4071667Y-9394714D01*
X4062143Y-9375667D01*
X4043095Y-9366143D01*
X4014524Y-9366143D01*
X3995476Y-9375667D01*
X3985952Y-9385190D01*
X4195476Y-9499476D02*
X4176428Y-9489952D01*
X4166905Y-9480429D01*
X4157381Y-9461381D01*
X4157381Y-9404238D01*
X4166905Y-9385190D01*
X4176428Y-9375667D01*
X4195476Y-9366143D01*
X4224048Y-9366143D01*
X4243095Y-9375667D01*
X4252619Y-9385190D01*
X4262143Y-9404238D01*
X4262143Y-9461381D01*
X4252619Y-9480429D01*
X4243095Y-9489952D01*
X4224048Y-9499476D01*
X4195476Y-9499476D01*
X4376429Y-9499476D02*
X4357381Y-9489952D01*
X4347857Y-9470905D01*
X4347857Y-9299476D01*
X4528810Y-9489952D02*
X4509762Y-9499476D01*
X4471667Y-9499476D01*
X4452619Y-9489952D01*
X4443095Y-9470905D01*
X4443095Y-9394714D01*
X4452619Y-9375667D01*
X4471667Y-9366143D01*
X4509762Y-9366143D01*
X4528810Y-9375667D01*
X4538333Y-9394714D01*
X4538333Y-9413762D01*
X4443095Y-9432810D01*
X4614524Y-9489952D02*
X4633571Y-9499476D01*
X4671667Y-9499476D01*
X4690714Y-9489952D01*
X4700238Y-9470905D01*
X4700238Y-9461381D01*
X4690714Y-9442333D01*
X4671667Y-9432810D01*
X4643095Y-9432810D01*
X4624048Y-9423286D01*
X4614524Y-9404238D01*
X4614524Y-9394714D01*
X4624048Y-9375667D01*
X4643095Y-9366143D01*
X4671667Y-9366143D01*
X4690714Y-9375667D01*
X4766905Y-9575667D02*
X4776429Y-9566143D01*
X4795476Y-9537571D01*
X4805000Y-9518524D01*
X4814524Y-9489952D01*
X4824048Y-9442333D01*
X4824048Y-9404238D01*
X4814524Y-9356619D01*
X4805000Y-9328048D01*
X4795476Y-9309000D01*
X4776429Y-9280429D01*
X4766905Y-9270905D01*
D10*
X-55000Y-9623000D02*
X-55000Y-9723000D01*
X-105000Y-9673000D02*
X-5000Y-9673000D01*
D11*
X357381Y-9763476D02*
X243095Y-9763476D01*
X300238Y-9763476D02*
X300238Y-9563476D01*
X281190Y-9592048D01*
X262143Y-9611095D01*
X243095Y-9620619D01*
X443095Y-9744429D02*
X452619Y-9753952D01*
X443095Y-9763476D01*
X433571Y-9753952D01*
X443095Y-9744429D01*
X443095Y-9763476D01*
X576429Y-9563476D02*
X595476Y-9563476D01*
X614524Y-9573000D01*
X624048Y-9582524D01*
X633571Y-9601571D01*
X643095Y-9639667D01*
X643095Y-9687286D01*
X633571Y-9725381D01*
X624048Y-9744429D01*
X614524Y-9753952D01*
X595476Y-9763476D01*
X576429Y-9763476D01*
X557381Y-9753952D01*
X547857Y-9744429D01*
X538333Y-9725381D01*
X528810Y-9687286D01*
X528810Y-9639667D01*
X538333Y-9601571D01*
X547857Y-9582524D01*
X557381Y-9573000D01*
X576429Y-9563476D01*
X766905Y-9563476D02*
X785952Y-9563476D01*
X805000Y-9573000D01*
X814524Y-9582524D01*
X824048Y-9601571D01*
X833571Y-9639667D01*
X833571Y-9687286D01*
X824048Y-9725381D01*
X814524Y-9744429D01*
X805000Y-9753952D01*
X785952Y-9763476D01*
X766905Y-9763476D01*
X747857Y-9753952D01*
X738333Y-9744429D01*
X728809Y-9725381D01*
X719286Y-9687286D01*
X719286Y-9639667D01*
X728809Y-9601571D01*
X738333Y-9582524D01*
X747857Y-9573000D01*
X766905Y-9563476D01*
X957381Y-9563476D02*
X976428Y-9563476D01*
X995476Y-9573000D01*
X1005000Y-9582524D01*
X1014524Y-9601571D01*
X1024048Y-9639667D01*
X1024048Y-9687286D01*
X1014524Y-9725381D01*
X1005000Y-9744429D01*
X995476Y-9753952D01*
X976428Y-9763476D01*
X957381Y-9763476D01*
X938333Y-9753952D01*
X928809Y-9744429D01*
X919286Y-9725381D01*
X909762Y-9687286D01*
X909762Y-9639667D01*
X919286Y-9601571D01*
X928809Y-9582524D01*
X938333Y-9573000D01*
X957381Y-9563476D01*
X1109762Y-9763476D02*
X1109762Y-9630143D01*
X1109762Y-9649190D02*
X1119286Y-9639667D01*
X1138333Y-9630143D01*
X1166905Y-9630143D01*
X1185952Y-9639667D01*
X1195476Y-9658714D01*
X1195476Y-9763476D01*
X1195476Y-9658714D02*
X1205000Y-9639667D01*
X1224048Y-9630143D01*
X1252619Y-9630143D01*
X1271667Y-9639667D01*
X1281190Y-9658714D01*
X1281190Y-9763476D01*
X1376429Y-9763476D02*
X1376429Y-9630143D01*
X1376429Y-9649190D02*
X1385952Y-9639667D01*
X1405000Y-9630143D01*
X1433571Y-9630143D01*
X1452619Y-9639667D01*
X1462143Y-9658714D01*
X1462143Y-9763476D01*
X1462143Y-9658714D02*
X1471667Y-9639667D01*
X1490714Y-9630143D01*
X1519286Y-9630143D01*
X1538333Y-9639667D01*
X1547857Y-9658714D01*
X1547857Y-9763476D01*
X1938333Y-9553952D02*
X1766905Y-9811095D01*
X2195476Y-9563476D02*
X2214524Y-9563476D01*
X2233571Y-9573000D01*
X2243095Y-9582524D01*
X2252619Y-9601571D01*
X2262143Y-9639667D01*
X2262143Y-9687286D01*
X2252619Y-9725381D01*
X2243095Y-9744429D01*
X2233571Y-9753952D01*
X2214524Y-9763476D01*
X2195476Y-9763476D01*
X2176429Y-9753952D01*
X2166905Y-9744429D01*
X2157381Y-9725381D01*
X2147857Y-9687286D01*
X2147857Y-9639667D01*
X2157381Y-9601571D01*
X2166905Y-9582524D01*
X2176429Y-9573000D01*
X2195476Y-9563476D01*
X2347857Y-9744429D02*
X2357381Y-9753952D01*
X2347857Y-9763476D01*
X2338333Y-9753952D01*
X2347857Y-9744429D01*
X2347857Y-9763476D01*
X2481190Y-9563476D02*
X2500238Y-9563476D01*
X2519286Y-9573000D01*
X2528810Y-9582524D01*
X2538333Y-9601571D01*
X2547857Y-9639667D01*
X2547857Y-9687286D01*
X2538333Y-9725381D01*
X2528810Y-9744429D01*
X2519286Y-9753952D01*
X2500238Y-9763476D01*
X2481190Y-9763476D01*
X2462143Y-9753952D01*
X2452619Y-9744429D01*
X2443095Y-9725381D01*
X2433571Y-9687286D01*
X2433571Y-9639667D01*
X2443095Y-9601571D01*
X2452619Y-9582524D01*
X2462143Y-9573000D01*
X2481190Y-9563476D01*
X2614524Y-9563476D02*
X2738333Y-9563476D01*
X2671667Y-9639667D01*
X2700238Y-9639667D01*
X2719286Y-9649190D01*
X2728810Y-9658714D01*
X2738333Y-9677762D01*
X2738333Y-9725381D01*
X2728810Y-9744429D01*
X2719286Y-9753952D01*
X2700238Y-9763476D01*
X2643095Y-9763476D01*
X2624048Y-9753952D01*
X2614524Y-9744429D01*
X2833571Y-9763476D02*
X2871667Y-9763476D01*
X2890714Y-9753952D01*
X2900238Y-9744429D01*
X2919286Y-9715857D01*
X2928809Y-9677762D01*
X2928809Y-9601571D01*
X2919286Y-9582524D01*
X2909762Y-9573000D01*
X2890714Y-9563476D01*
X2852619Y-9563476D01*
X2833571Y-9573000D01*
X2824048Y-9582524D01*
X2814524Y-9601571D01*
X2814524Y-9649190D01*
X2824048Y-9668238D01*
X2833571Y-9677762D01*
X2852619Y-9687286D01*
X2890714Y-9687286D01*
X2909762Y-9677762D01*
X2919286Y-9668238D01*
X2928809Y-9649190D01*
X3100238Y-9630143D02*
X3100238Y-9763476D01*
X3052619Y-9553952D02*
X3005000Y-9696810D01*
X3128809Y-9696810D01*
X3195476Y-9563476D02*
X3195476Y-9601571D01*
X3271667Y-9563476D02*
X3271667Y-9601571D01*
X3566905Y-9839667D02*
X3557381Y-9830143D01*
X3538333Y-9801571D01*
X3528809Y-9782524D01*
X3519286Y-9753952D01*
X3509762Y-9706333D01*
X3509762Y-9668238D01*
X3519286Y-9620619D01*
X3528809Y-9592048D01*
X3538333Y-9573000D01*
X3557381Y-9544429D01*
X3566905Y-9534905D01*
X3728809Y-9630143D02*
X3728809Y-9763476D01*
X3681190Y-9553952D02*
X3633571Y-9696810D01*
X3757381Y-9696810D01*
X3862143Y-9649190D02*
X3843095Y-9639667D01*
X3833571Y-9630143D01*
X3824048Y-9611095D01*
X3824048Y-9601571D01*
X3833571Y-9582524D01*
X3843095Y-9573000D01*
X3862143Y-9563476D01*
X3900238Y-9563476D01*
X3919286Y-9573000D01*
X3928809Y-9582524D01*
X3938333Y-9601571D01*
X3938333Y-9611095D01*
X3928809Y-9630143D01*
X3919286Y-9639667D01*
X3900238Y-9649190D01*
X3862143Y-9649190D01*
X3843095Y-9658714D01*
X3833571Y-9668238D01*
X3824048Y-9687286D01*
X3824048Y-9725381D01*
X3833571Y-9744429D01*
X3843095Y-9753952D01*
X3862143Y-9763476D01*
X3900238Y-9763476D01*
X3919286Y-9753952D01*
X3928809Y-9744429D01*
X3938333Y-9725381D01*
X3938333Y-9687286D01*
X3928809Y-9668238D01*
X3919286Y-9658714D01*
X3900238Y-9649190D01*
X4176428Y-9763476D02*
X4176428Y-9563476D01*
X4262143Y-9763476D02*
X4262143Y-9658714D01*
X4252619Y-9639667D01*
X4233571Y-9630143D01*
X4205000Y-9630143D01*
X4185952Y-9639667D01*
X4176428Y-9649190D01*
X4385952Y-9763476D02*
X4366905Y-9753952D01*
X4357381Y-9744429D01*
X4347857Y-9725381D01*
X4347857Y-9668238D01*
X4357381Y-9649190D01*
X4366905Y-9639667D01*
X4385952Y-9630143D01*
X4414524Y-9630143D01*
X4433571Y-9639667D01*
X4443095Y-9649190D01*
X4452619Y-9668238D01*
X4452619Y-9725381D01*
X4443095Y-9744429D01*
X4433571Y-9753952D01*
X4414524Y-9763476D01*
X4385952Y-9763476D01*
X4566905Y-9763476D02*
X4547857Y-9753952D01*
X4538333Y-9734905D01*
X4538333Y-9563476D01*
X4719286Y-9753952D02*
X4700238Y-9763476D01*
X4662143Y-9763476D01*
X4643095Y-9753952D01*
X4633571Y-9734905D01*
X4633571Y-9658714D01*
X4643095Y-9639667D01*
X4662143Y-9630143D01*
X4700238Y-9630143D01*
X4719286Y-9639667D01*
X4728810Y-9658714D01*
X4728810Y-9677762D01*
X4633571Y-9696810D01*
X4805000Y-9753952D02*
X4824048Y-9763476D01*
X4862143Y-9763476D01*
X4881190Y-9753952D01*
X4890714Y-9734905D01*
X4890714Y-9725381D01*
X4881190Y-9706333D01*
X4862143Y-9696810D01*
X4833571Y-9696810D01*
X4814524Y-9687286D01*
X4805000Y-9668238D01*
X4805000Y-9658714D01*
X4814524Y-9639667D01*
X4833571Y-9630143D01*
X4862143Y-9630143D01*
X4881190Y-9639667D01*
X4957381Y-9839667D02*
X4966905Y-9830143D01*
X4985952Y-9801571D01*
X4995476Y-9782524D01*
X5005000Y-9753952D01*
X5014524Y-9706333D01*
X5014524Y-9668238D01*
X5005000Y-9620619D01*
X4995476Y-9592048D01*
X4985952Y-9573000D01*
X4966905Y-9544429D01*
X4957381Y-9534905D01*
D14*
X-21109Y-9975891D02*
X-21109Y-9898109D01*
X-98891Y-9898109D01*
X-98891Y-9975891D01*
X-21109Y-9975891D01*
D11*
X357381Y-10027476D02*
X243095Y-10027476D01*
X300238Y-10027476D02*
X300238Y-9827476D01*
X281190Y-9856048D01*
X262143Y-9875095D01*
X243095Y-9884619D01*
X443095Y-10008429D02*
X452619Y-10017952D01*
X443095Y-10027476D01*
X433571Y-10017952D01*
X443095Y-10008429D01*
X443095Y-10027476D01*
X643095Y-10027476D02*
X528810Y-10027476D01*
X585952Y-10027476D02*
X585952Y-9827476D01*
X566905Y-9856048D01*
X547857Y-9875095D01*
X528810Y-9884619D01*
X766905Y-9827476D02*
X785952Y-9827476D01*
X805000Y-9837000D01*
X814524Y-9846524D01*
X824048Y-9865571D01*
X833571Y-9903667D01*
X833571Y-9951286D01*
X824048Y-9989381D01*
X814524Y-10008429D01*
X805000Y-10017952D01*
X785952Y-10027476D01*
X766905Y-10027476D01*
X747857Y-10017952D01*
X738333Y-10008429D01*
X728809Y-9989381D01*
X719286Y-9951286D01*
X719286Y-9903667D01*
X728809Y-9865571D01*
X738333Y-9846524D01*
X747857Y-9837000D01*
X766905Y-9827476D01*
X957381Y-9827476D02*
X976428Y-9827476D01*
X995476Y-9837000D01*
X1005000Y-9846524D01*
X1014524Y-9865571D01*
X1024048Y-9903667D01*
X1024048Y-9951286D01*
X1014524Y-9989381D01*
X1005000Y-10008429D01*
X995476Y-10017952D01*
X976428Y-10027476D01*
X957381Y-10027476D01*
X938333Y-10017952D01*
X928809Y-10008429D01*
X919286Y-9989381D01*
X909762Y-9951286D01*
X909762Y-9903667D01*
X919286Y-9865571D01*
X928809Y-9846524D01*
X938333Y-9837000D01*
X957381Y-9827476D01*
X1109762Y-10027476D02*
X1109762Y-9894143D01*
X1109762Y-9913190D02*
X1119286Y-9903667D01*
X1138333Y-9894143D01*
X1166905Y-9894143D01*
X1185952Y-9903667D01*
X1195476Y-9922714D01*
X1195476Y-10027476D01*
X1195476Y-9922714D02*
X1205000Y-9903667D01*
X1224048Y-9894143D01*
X1252619Y-9894143D01*
X1271667Y-9903667D01*
X1281190Y-9922714D01*
X1281190Y-10027476D01*
X1376429Y-10027476D02*
X1376429Y-9894143D01*
X1376429Y-9913190D02*
X1385952Y-9903667D01*
X1405000Y-9894143D01*
X1433571Y-9894143D01*
X1452619Y-9903667D01*
X1462143Y-9922714D01*
X1462143Y-10027476D01*
X1462143Y-9922714D02*
X1471667Y-9903667D01*
X1490714Y-9894143D01*
X1519286Y-9894143D01*
X1538333Y-9903667D01*
X1547857Y-9922714D01*
X1547857Y-10027476D01*
X1938333Y-9817952D02*
X1766905Y-10075095D01*
X2195476Y-9827476D02*
X2214524Y-9827476D01*
X2233571Y-9837000D01*
X2243095Y-9846524D01*
X2252619Y-9865571D01*
X2262143Y-9903667D01*
X2262143Y-9951286D01*
X2252619Y-9989381D01*
X2243095Y-10008429D01*
X2233571Y-10017952D01*
X2214524Y-10027476D01*
X2195476Y-10027476D01*
X2176429Y-10017952D01*
X2166905Y-10008429D01*
X2157381Y-9989381D01*
X2147857Y-9951286D01*
X2147857Y-9903667D01*
X2157381Y-9865571D01*
X2166905Y-9846524D01*
X2176429Y-9837000D01*
X2195476Y-9827476D01*
X2347857Y-10008429D02*
X2357381Y-10017952D01*
X2347857Y-10027476D01*
X2338333Y-10017952D01*
X2347857Y-10008429D01*
X2347857Y-10027476D01*
X2481190Y-9827476D02*
X2500238Y-9827476D01*
X2519286Y-9837000D01*
X2528810Y-9846524D01*
X2538333Y-9865571D01*
X2547857Y-9903667D01*
X2547857Y-9951286D01*
X2538333Y-9989381D01*
X2528810Y-10008429D01*
X2519286Y-10017952D01*
X2500238Y-10027476D01*
X2481190Y-10027476D01*
X2462143Y-10017952D01*
X2452619Y-10008429D01*
X2443095Y-9989381D01*
X2433571Y-9951286D01*
X2433571Y-9903667D01*
X2443095Y-9865571D01*
X2452619Y-9846524D01*
X2462143Y-9837000D01*
X2481190Y-9827476D01*
X2719286Y-9894143D02*
X2719286Y-10027476D01*
X2671667Y-9817952D02*
X2624048Y-9960810D01*
X2747857Y-9960810D01*
X2805000Y-9827476D02*
X2928809Y-9827476D01*
X2862143Y-9903667D01*
X2890714Y-9903667D01*
X2909762Y-9913190D01*
X2919286Y-9922714D01*
X2928809Y-9941762D01*
X2928809Y-9989381D01*
X2919286Y-10008429D01*
X2909762Y-10017952D01*
X2890714Y-10027476D01*
X2833571Y-10027476D01*
X2814524Y-10017952D01*
X2805000Y-10008429D01*
X2995476Y-9827476D02*
X3119286Y-9827476D01*
X3052619Y-9903667D01*
X3081190Y-9903667D01*
X3100238Y-9913190D01*
X3109762Y-9922714D01*
X3119286Y-9941762D01*
X3119286Y-9989381D01*
X3109762Y-10008429D01*
X3100238Y-10017952D01*
X3081190Y-10027476D01*
X3024048Y-10027476D01*
X3005000Y-10017952D01*
X2995476Y-10008429D01*
X3195476Y-9827476D02*
X3195476Y-9865571D01*
X3271667Y-9827476D02*
X3271667Y-9865571D01*
X3566905Y-10103667D02*
X3557381Y-10094143D01*
X3538333Y-10065571D01*
X3528809Y-10046524D01*
X3519286Y-10017952D01*
X3509762Y-9970333D01*
X3509762Y-9932238D01*
X3519286Y-9884619D01*
X3528809Y-9856048D01*
X3538333Y-9837000D01*
X3557381Y-9808429D01*
X3566905Y-9798905D01*
X3747857Y-10027476D02*
X3633571Y-10027476D01*
X3690714Y-10027476D02*
X3690714Y-9827476D01*
X3671667Y-9856048D01*
X3652619Y-9875095D01*
X3633571Y-9884619D01*
X3824048Y-9846524D02*
X3833571Y-9837000D01*
X3852619Y-9827476D01*
X3900238Y-9827476D01*
X3919286Y-9837000D01*
X3928809Y-9846524D01*
X3938333Y-9865571D01*
X3938333Y-9884619D01*
X3928809Y-9913190D01*
X3814524Y-10027476D01*
X3938333Y-10027476D01*
X4176428Y-10027476D02*
X4176428Y-9827476D01*
X4262143Y-10027476D02*
X4262143Y-9922714D01*
X4252619Y-9903667D01*
X4233571Y-9894143D01*
X4205000Y-9894143D01*
X4185952Y-9903667D01*
X4176428Y-9913190D01*
X4385952Y-10027476D02*
X4366905Y-10017952D01*
X4357381Y-10008429D01*
X4347857Y-9989381D01*
X4347857Y-9932238D01*
X4357381Y-9913190D01*
X4366905Y-9903667D01*
X4385952Y-9894143D01*
X4414524Y-9894143D01*
X4433571Y-9903667D01*
X4443095Y-9913190D01*
X4452619Y-9932238D01*
X4452619Y-9989381D01*
X4443095Y-10008429D01*
X4433571Y-10017952D01*
X4414524Y-10027476D01*
X4385952Y-10027476D01*
X4566905Y-10027476D02*
X4547857Y-10017952D01*
X4538333Y-9998905D01*
X4538333Y-9827476D01*
X4719286Y-10017952D02*
X4700238Y-10027476D01*
X4662143Y-10027476D01*
X4643095Y-10017952D01*
X4633571Y-9998905D01*
X4633571Y-9922714D01*
X4643095Y-9903667D01*
X4662143Y-9894143D01*
X4700238Y-9894143D01*
X4719286Y-9903667D01*
X4728810Y-9922714D01*
X4728810Y-9941762D01*
X4633571Y-9960810D01*
X4805000Y-10017952D02*
X4824048Y-10027476D01*
X4862143Y-10027476D01*
X4881190Y-10017952D01*
X4890714Y-9998905D01*
X4890714Y-9989381D01*
X4881190Y-9970333D01*
X4862143Y-9960810D01*
X4833571Y-9960810D01*
X4814524Y-9951286D01*
X4805000Y-9932238D01*
X4805000Y-9922714D01*
X4814524Y-9903667D01*
X4833571Y-9894143D01*
X4862143Y-9894143D01*
X4881190Y-9903667D01*
X4957381Y-10103667D02*
X4966905Y-10094143D01*
X4985952Y-10065571D01*
X4995476Y-10046524D01*
X5005000Y-10017952D01*
X5014524Y-9970333D01*
X5014524Y-9932238D01*
X5005000Y-9884619D01*
X4995476Y-9856048D01*
X4985952Y-9837000D01*
X4966905Y-9808429D01*
X4957381Y-9798905D01*
M02*
