G04 #@! TF.GenerationSoftware,KiCad,Pcbnew,(6.0.11)*
G04 #@! TF.CreationDate,2023-03-04T17:24:56+01:00*
G04 #@! TF.ProjectId,jig2,6a696732-2e6b-4696-9361-645f70636258,rev?*
G04 #@! TF.SameCoordinates,Original*
G04 #@! TF.FileFunction,Copper,L2,Bot*
G04 #@! TF.FilePolarity,Positive*
%FSLAX46Y46*%
G04 Gerber Fmt 4.6, Leading zero omitted, Abs format (unit mm)*
G04 Created by KiCad (PCBNEW (6.0.11)) date 2023-03-04 17:24:56*
%MOMM*%
%LPD*%
G01*
G04 APERTURE LIST*
G04 #@! TA.AperFunction,ComponentPad*
%ADD10C,2.000000*%
G04 #@! TD*
G04 #@! TA.AperFunction,ComponentPad*
%ADD11R,1.700000X1.700000*%
G04 #@! TD*
G04 #@! TA.AperFunction,ComponentPad*
%ADD12O,1.700000X1.700000*%
G04 #@! TD*
G04 #@! TA.AperFunction,ComponentPad*
%ADD13R,1.800000X1.800000*%
G04 #@! TD*
G04 #@! TA.AperFunction,ComponentPad*
%ADD14C,1.800000*%
G04 #@! TD*
G04 #@! TA.AperFunction,ComponentPad*
%ADD15C,1.270000*%
G04 #@! TD*
G04 #@! TA.AperFunction,ViaPad*
%ADD16C,0.600000*%
G04 #@! TD*
G04 #@! TA.AperFunction,Conductor*
%ADD17C,1.000000*%
G04 #@! TD*
G04 #@! TA.AperFunction,Conductor*
%ADD18C,0.500000*%
G04 #@! TD*
G04 APERTURE END LIST*
D10*
X9250000Y-4765564D03*
X2750000Y-4765564D03*
X2750000Y-9265564D03*
X9250000Y-9265564D03*
D11*
X7620000Y-35560000D03*
D12*
X7620000Y-38100000D03*
X7620000Y-40640000D03*
X7620000Y-43180000D03*
X7620000Y-45720000D03*
X7620000Y-48260000D03*
X7620000Y-50800000D03*
X7620000Y-53340000D03*
X7620000Y-55880000D03*
X7620000Y-58420000D03*
X7620000Y-60960000D03*
X7620000Y-63500000D03*
X7620000Y-66040000D03*
X7620000Y-68580000D03*
X7620000Y-71120000D03*
X7620000Y-73660000D03*
X7620000Y-76200000D03*
X7620000Y-78740000D03*
X7620000Y-81280000D03*
D13*
X23290000Y-5080000D03*
D14*
X25830000Y-5080000D03*
D11*
X32975000Y-35570000D03*
D12*
X32975000Y-38110000D03*
X32975000Y-40650000D03*
X32975000Y-43190000D03*
X32975000Y-45730000D03*
X32975000Y-48270000D03*
X32975000Y-50810000D03*
X32975000Y-53350000D03*
X32975000Y-55890000D03*
X32975000Y-58430000D03*
X32975000Y-60970000D03*
X32975000Y-63510000D03*
X32975000Y-66050000D03*
X32975000Y-68590000D03*
X32975000Y-71130000D03*
X32975000Y-73670000D03*
X32975000Y-76210000D03*
X32975000Y-78750000D03*
X32975000Y-81290000D03*
D15*
X28256000Y-17005000D03*
X28256000Y-19005000D03*
X28256000Y-21005000D03*
X28206000Y-23005000D03*
X30006000Y-20005000D03*
X30006000Y-22005000D03*
X31756000Y-17005000D03*
X31756000Y-19005000D03*
X31756000Y-21005000D03*
X31756000Y-23005000D03*
D13*
X28830000Y-5080000D03*
D14*
X31370000Y-5080000D03*
D10*
X19250000Y-4765564D03*
X12750000Y-4765564D03*
X19250000Y-9265564D03*
X12750000Y-9265564D03*
D13*
X34370000Y-5080000D03*
D14*
X36910000Y-5080000D03*
D10*
X14750000Y-20820000D03*
X21250000Y-20820000D03*
X14750000Y-25320000D03*
X21250000Y-25320000D03*
D16*
X23000000Y-35500000D03*
X24000000Y-39700000D03*
X11000000Y-29750000D03*
X11500000Y-15000000D03*
X14440000Y-79310000D03*
X7620000Y-21620000D03*
X20500000Y-17000000D03*
X20500000Y-15250000D03*
X21000000Y-13750000D03*
X26750000Y-38250000D03*
D17*
X23000000Y-37093502D02*
X23000000Y-35500000D01*
X24828249Y-38921751D02*
X24050000Y-39700000D01*
X25606498Y-39700000D02*
X24828249Y-38921751D01*
X24828249Y-38921751D02*
X23000000Y-37093502D01*
X32975000Y-35570000D02*
X28845000Y-39700000D01*
X24050000Y-39700000D02*
X24000000Y-39700000D01*
D18*
X11000000Y-15500000D02*
X11500000Y-15000000D01*
D17*
X28845000Y-39700000D02*
X25606498Y-39700000D01*
D18*
X11000000Y-29750000D02*
X11000000Y-15500000D01*
X32975000Y-40650000D02*
X23150000Y-40650000D01*
X19250000Y-36750000D02*
X19250000Y-9265564D01*
X23150000Y-40650000D02*
X19250000Y-36750000D01*
X21940000Y-43190000D02*
X16750000Y-38000000D01*
X32975000Y-43190000D02*
X21940000Y-43190000D01*
X16750000Y-38000000D02*
X16750000Y-16765564D01*
X16750000Y-16765564D02*
X9250000Y-9265564D01*
X14750000Y-40250000D02*
X14750000Y-25320000D01*
X20230000Y-45730000D02*
X14750000Y-40250000D01*
X32975000Y-45730000D02*
X20230000Y-45730000D01*
D17*
X9200000Y-50800000D02*
X10750000Y-49250000D01*
X10750000Y-49250000D02*
X10750000Y-37250000D01*
D18*
X25410000Y-68590000D02*
X25160000Y-68590000D01*
X6820000Y-20820000D02*
X7620000Y-21620000D01*
D17*
X33505000Y-17005000D02*
X31756000Y-17005000D01*
X9060000Y-35560000D02*
X7620000Y-35560000D01*
X7620000Y-50800000D02*
X9200000Y-50800000D01*
D18*
X4200000Y-6215564D02*
X2750000Y-4765564D01*
D17*
X34525000Y-18025000D02*
X33505000Y-17005000D01*
X10750000Y-37250000D02*
X9060000Y-35560000D01*
X32975000Y-68590000D02*
X25410000Y-68590000D01*
D18*
X25160000Y-68590000D02*
X14440000Y-79310000D01*
X6820000Y-20820000D02*
X4200000Y-18200000D01*
D17*
X34525000Y-67040000D02*
X34525000Y-18025000D01*
X7620000Y-50800000D02*
X25410000Y-68590000D01*
D18*
X7620000Y-21620000D02*
X7620000Y-35560000D01*
D17*
X32975000Y-68590000D02*
X34525000Y-67040000D01*
D18*
X4200000Y-18200000D02*
X4200000Y-6215564D01*
X29239950Y-7750000D02*
X20500000Y-16489950D01*
X31700000Y-7750000D02*
X29239950Y-7750000D01*
X34370000Y-5080000D02*
X31700000Y-7750000D01*
X20500000Y-16489950D02*
X20500000Y-16750000D01*
X20500000Y-16750000D02*
X20500000Y-17000000D01*
X28830000Y-7170000D02*
X20750000Y-15250000D01*
X20750000Y-15250000D02*
X20500000Y-15250000D01*
X28830000Y-5080000D02*
X28830000Y-7170000D01*
X23290000Y-5080000D02*
X23290000Y-11460000D01*
X23290000Y-11460000D02*
X21000000Y-13750000D01*
D17*
X25250000Y-18250000D02*
X26495000Y-17005000D01*
X26495000Y-17005000D02*
X28256000Y-17005000D01*
X26750000Y-26250000D02*
X25250000Y-24750000D01*
X26750000Y-38250000D02*
X26750000Y-26250000D01*
X25250000Y-24750000D02*
X25250000Y-18250000D01*
M02*
