%
M48
M72
T01C0.0120
T02C0.0138
T03C0.0200
T04C0.0394
T05C0.0400
T06C0.0591
T07C0.0787
%
T01
X16423Y17962
X17312Y18647
X17559Y19975
X16968Y20123
X17411Y21501
X24005Y4355
X23905Y3355
X25905Y3405
X26505Y2855
X27755Y4105
X27755Y4805
X29755Y4805
X29755Y4105
X29755Y3255
X28755Y1055
X32955Y3305
X32955Y4105
X32955Y4805
X35355Y4855
X36855Y5205
X37405Y4705
T02
X11255Y655
X10955Y655
X3555Y655
X3255Y655
X505Y655
X5155Y8305
X6355Y9105
X3505Y11455
X3205Y11455
X505Y11455
X5155Y19105
X6355Y19905
X3505Y22255
X3205Y22255
X505Y22255
X3705Y25405
X4955Y25005
X5005Y25655
X4755Y26455
X6155Y26155
X8855Y28305
X10255Y29155
X10255Y29455
X10855Y30355
X12105Y29955
X13255Y29805
X13205Y27505
X12805Y26155
X11705Y26055
X11705Y27605
X10255Y24955
X10255Y24655
X11455Y22955
X11255Y22255
X10955Y22255
X12255Y21255
X12855Y20105
X12855Y19605
X14505Y19455
X14505Y19155
X15955Y18255
X16805Y18555
X17705Y18105
X19105Y18205
X19405Y18205
X20355Y19155
X20355Y19455
X19105Y20055
X19705Y21505
X18955Y22955
X17505Y22255
X17205Y22255
X16705Y21505
X16005Y21155
X15255Y21505
X15455Y22955
X20355Y24655
X20355Y24955
X20855Y24305
X21305Y24955
X22755Y24355
X20755Y23055
X21955Y20755
X22905Y20055
X23955Y20005
X24155Y19055
X23405Y19055
X26355Y18555
X28355Y18555
X28355Y16555
X26355Y16555
X23955Y15805
X22355Y16055
X21305Y16155
X20405Y14455
X20155Y14455
X20155Y14155
X20405Y14155
X19405Y13205
X19105Y13205
X18305Y14155
X18305Y14455
X16405Y12505
X16105Y12505
X17855Y11455
X17855Y11155
X18355Y11155
X18355Y11455
X20155Y11455
X20155Y11155
X20405Y11155
X20405Y11455
X22055Y12655
X21605Y13055
X22855Y13055
X24005Y13305
X22655Y11855
X23955Y10605
X26355Y9055
X24005Y6555
X23705Y6555
X22205Y5755
X22205Y5455
X19505Y4655
X19205Y4655
X19205Y2755
X19505Y2755
X22205Y2055
X22205Y1755
X22205Y505
X27222Y2768
X19505Y6555
X19205Y6555
X19105Y8205
X19405Y8205
X16405Y7705
X16105Y7705
X14505Y8755
X14505Y9055
X12855Y8805
X12855Y9305
X12255Y10455
X11255Y11455
X10955Y11455
X14505Y14155
X14505Y14455
X15405Y14155
X15405Y15005
X11905Y17505
X11255Y17605
X11355Y17105
X10305Y17655
X9947Y17655
X10555Y18405
X11205Y18355
X14805Y26555
X18955Y27455
X20355Y29155
X20355Y29455
X21255Y28855
X22305Y26205
X20355Y31655
X30355Y28055
X30355Y26055
X33355Y26055
X33355Y28055
X36855Y28555
X37805Y27905
X37305Y24155
X36255Y23605
X36155Y22055
X35505Y22055
X35955Y21055
X36455Y20505
X35855Y19605
X36355Y19055
X36355Y17555
X32855Y15505
X37355Y9555
X36055Y6555
X35755Y6555
X38955Y6555
X32855Y9055
X16405Y10105
X16105Y10105
X14505Y6655
X14505Y6355
X16105Y5305
X16405Y5305
X14505Y4205
X14505Y3955
X16105Y2905
X16405Y2905
X14505Y2005
X14505Y1705
X11355Y6305
X11255Y6805
X11905Y6705
X11205Y7555
X10555Y7605
X10305Y6855
X9947Y6855
X6955Y28655
X10255Y31655
X2155Y30905
T03
X11605Y7305
X12105Y7305
X12105Y7805
X12105Y8305
X11605Y8305
X11605Y7805
X11605Y8805
X11605Y9305
X12105Y9305
X12105Y8805
X12105Y18105
X12105Y18605
X11605Y18605
X11605Y18105
X11605Y19105
X11605Y19605
X12105Y19605
X12105Y19105
X12105Y20105
X11605Y20105
X12555Y24705
X12555Y25205
X13055Y25205
X13555Y25205
X14055Y25205
X14555Y25205
X14555Y24705
X14055Y24705
X13555Y24705
X13055Y24705
X6355Y24555
X6355Y24055
X5855Y24055
X5355Y24055
X4855Y24055
X4355Y24055
X4355Y24555
X4855Y24555
X5355Y24555
X5855Y24555
X24655Y4855
X25155Y4855
X25155Y4355
X24655Y4355
X24655Y3855
X24655Y3355
X25155Y3355
X25155Y3855
X25155Y2855
X24655Y2855
X37587Y18555
X37087Y18555
X37087Y19055
X37087Y19555
X37087Y20055
X37087Y20555
X37587Y20555
X37587Y20055
X37587Y19555
X37587Y19055
T04
X3172Y7614
X3959Y7614
X4747Y7614
X5534Y7614
X4353Y8303
X3566Y8303
X3959Y8992
X3172Y9011
X4747Y8992
X5534Y8992
X3172Y18414
X3959Y18414
X4747Y18414
X5534Y18414
X4353Y19103
X3566Y19103
X3959Y19792
X3172Y19811
X4747Y19792
X5534Y19792
X12880Y28274
X12093Y28274
X11305Y28274
X11305Y29061
X12093Y29061
X12880Y29061
X13668Y29061
X14455Y29061
X14455Y28274
X13668Y28274
X16261Y17324
X17049Y17324
X17049Y16536
X16261Y16536
X16261Y15749
X16261Y14961
X16261Y14174
X17049Y14174
X17049Y14961
X17049Y15749
X16261Y13386
X17049Y13386
X15813Y11996
X15026Y11996
X16207Y11307
X16994Y11307
X16601Y10618
X15813Y9596
X15026Y9596
X15026Y8218
X15813Y8218
X16601Y7196
X17388Y7196
X16994Y6507
X16207Y6507
X16601Y5818
X15813Y4796
X15026Y4796
X15026Y3418
X15813Y3418
X16601Y3418
X17388Y3399
X16994Y4107
X16207Y4107
X16601Y4796
X17388Y4796
X18480Y5211
X19268Y5211
X19268Y4099
X20055Y4099
X20842Y4099
X20842Y3311
X20055Y3311
X19268Y3311
X18480Y3311
X18480Y4099
X20055Y5211
X20842Y5211
X20842Y5999
X20055Y5999
X19268Y5999
X18480Y5999
X17388Y5799
X15813Y5818
X15026Y5818
X15026Y7196
X15813Y7196
X16601Y8218
X17388Y8199
X16994Y8907
X16207Y8907
X16601Y9596
X17388Y9596
X17388Y10599
X18861Y11099
X18861Y11886
X19649Y11886
X19649Y11099
X19649Y10311
X18861Y10311
X18861Y9524
X18861Y8736
X19649Y8736
X19649Y9524
X17388Y11996
X16601Y11996
X15813Y10618
X15026Y10618
X18861Y12674
X19649Y13736
X19649Y14524
X19649Y15311
X18861Y15311
X18861Y14524
X18861Y13736
X19649Y12674
X19649Y16099
X19649Y16886
X19649Y17674
X18861Y17674
X18861Y16886
X18861Y16099
X21630Y5999
X21630Y5211
X21630Y4099
X21630Y3311
X34386Y3361
X34386Y4149
X35174Y4149
X35961Y4149
X35961Y3361
X35174Y3361
X36749Y3361
X37536Y3361
X38324Y3361
X38324Y4149
X37536Y4149
X36749Y4149
T05
X3155Y5555
X4155Y5555
X5155Y5555
X6155Y5555
X7155Y5555
X8155Y5555
X15855Y26055
X15855Y27055
X15855Y28055
X15855Y29055
X15855Y30055
X15855Y31055
X24855Y28555
X24855Y27555
X24855Y26555
X24855Y25555
X24855Y24555
X24855Y23555
X24855Y22555
X24855Y21555
X24855Y20555
X24855Y19555
X24855Y18555
X24855Y17555
X24855Y16555
X24855Y15555
X24855Y14555
X24855Y13555
X24855Y12555
X24855Y11555
X24855Y10555
X24855Y9555
X24855Y8555
X24855Y7555
X27255Y1705
X28255Y1705
X29255Y1705
X30255Y1705
X31255Y1705
X32255Y1705
X34855Y7555
X34855Y8555
X34855Y9555
X34855Y10555
X34855Y11555
X34855Y12555
X34855Y13555
X34855Y14555
X34855Y15555
X34855Y16555
X34855Y17555
X34855Y18555
X34855Y19555
X34855Y20555
X34855Y21555
X34855Y22555
X34855Y23555
X34855Y24555
X34855Y25555
X34855Y26555
X34855Y27555
X34855Y28555
X8955Y27255
X7955Y27255
X6955Y27255
X5955Y27255
X4955Y27255
X3955Y27255
X2955Y27255
X1955Y27255
X955Y27255
X2855Y29305
X3855Y29305
X3855Y30305
X2855Y30305
X4855Y30305
X5855Y30305
X5855Y29305
X4855Y29305
X3155Y16355
X4155Y16355
X5155Y16355
X6155Y16355
X7155Y16355
X8155Y16355
T06
X1355Y2305
X7855Y8305
X13355Y13105
X15455Y15705
X13355Y2305
X24955Y955
X38455Y5755
X38455Y955
X16955Y23455
X12905Y26755
X7855Y19105
X1355Y21105
X1355Y13105
X1355Y10305
T07
X22355Y17655
X22355Y8055
X37355Y8055
X37355Y17655
X37355Y30555
X22355Y30555
M30
