G75*
%MOIN*%
%OFA0B0*%
%FSLAX25Y25*%
%IPPOS*%
%LPD*%
%AMOC8*
5,1,8,0,0,1.08239X$1,22.5*
%
%ADD10C,0.00000*%
%ADD11C,0.03200*%
%ADD12C,0.06693*%
D10*
X0003550Y0003550D02*
X0031294Y0003550D01*
X0031861Y0006550D02*
X0031863Y0006602D01*
X0031869Y0006654D01*
X0031879Y0006705D01*
X0031892Y0006755D01*
X0031910Y0006805D01*
X0031931Y0006852D01*
X0031955Y0006898D01*
X0031984Y0006942D01*
X0032015Y0006984D01*
X0032049Y0007023D01*
X0032086Y0007060D01*
X0032126Y0007093D01*
X0032169Y0007124D01*
X0032213Y0007151D01*
X0032259Y0007175D01*
X0032308Y0007195D01*
X0032357Y0007211D01*
X0032408Y0007224D01*
X0032459Y0007233D01*
X0032511Y0007238D01*
X0032563Y0007239D01*
X0032615Y0007236D01*
X0032667Y0007229D01*
X0032718Y0007218D01*
X0032768Y0007204D01*
X0032817Y0007185D01*
X0032864Y0007163D01*
X0032909Y0007138D01*
X0032953Y0007109D01*
X0032994Y0007077D01*
X0033033Y0007042D01*
X0033068Y0007004D01*
X0033101Y0006963D01*
X0033131Y0006921D01*
X0033157Y0006876D01*
X0033180Y0006829D01*
X0033199Y0006780D01*
X0033215Y0006730D01*
X0033227Y0006680D01*
X0033235Y0006628D01*
X0033239Y0006576D01*
X0033239Y0006524D01*
X0033235Y0006472D01*
X0033227Y0006420D01*
X0033215Y0006370D01*
X0033199Y0006320D01*
X0033180Y0006271D01*
X0033157Y0006224D01*
X0033131Y0006179D01*
X0033101Y0006137D01*
X0033068Y0006096D01*
X0033033Y0006058D01*
X0032994Y0006023D01*
X0032953Y0005991D01*
X0032909Y0005962D01*
X0032864Y0005937D01*
X0032817Y0005915D01*
X0032768Y0005896D01*
X0032718Y0005882D01*
X0032667Y0005871D01*
X0032615Y0005864D01*
X0032563Y0005861D01*
X0032511Y0005862D01*
X0032459Y0005867D01*
X0032408Y0005876D01*
X0032357Y0005889D01*
X0032308Y0005905D01*
X0032259Y0005925D01*
X0032213Y0005949D01*
X0032169Y0005976D01*
X0032126Y0006007D01*
X0032086Y0006040D01*
X0032049Y0006077D01*
X0032015Y0006116D01*
X0031984Y0006158D01*
X0031955Y0006202D01*
X0031931Y0006248D01*
X0031910Y0006295D01*
X0031892Y0006345D01*
X0031879Y0006395D01*
X0031869Y0006446D01*
X0031863Y0006498D01*
X0031861Y0006550D01*
X0034861Y0006550D02*
X0034863Y0006602D01*
X0034869Y0006654D01*
X0034879Y0006705D01*
X0034892Y0006755D01*
X0034910Y0006805D01*
X0034931Y0006852D01*
X0034955Y0006898D01*
X0034984Y0006942D01*
X0035015Y0006984D01*
X0035049Y0007023D01*
X0035086Y0007060D01*
X0035126Y0007093D01*
X0035169Y0007124D01*
X0035213Y0007151D01*
X0035259Y0007175D01*
X0035308Y0007195D01*
X0035357Y0007211D01*
X0035408Y0007224D01*
X0035459Y0007233D01*
X0035511Y0007238D01*
X0035563Y0007239D01*
X0035615Y0007236D01*
X0035667Y0007229D01*
X0035718Y0007218D01*
X0035768Y0007204D01*
X0035817Y0007185D01*
X0035864Y0007163D01*
X0035909Y0007138D01*
X0035953Y0007109D01*
X0035994Y0007077D01*
X0036033Y0007042D01*
X0036068Y0007004D01*
X0036101Y0006963D01*
X0036131Y0006921D01*
X0036157Y0006876D01*
X0036180Y0006829D01*
X0036199Y0006780D01*
X0036215Y0006730D01*
X0036227Y0006680D01*
X0036235Y0006628D01*
X0036239Y0006576D01*
X0036239Y0006524D01*
X0036235Y0006472D01*
X0036227Y0006420D01*
X0036215Y0006370D01*
X0036199Y0006320D01*
X0036180Y0006271D01*
X0036157Y0006224D01*
X0036131Y0006179D01*
X0036101Y0006137D01*
X0036068Y0006096D01*
X0036033Y0006058D01*
X0035994Y0006023D01*
X0035953Y0005991D01*
X0035909Y0005962D01*
X0035864Y0005937D01*
X0035817Y0005915D01*
X0035768Y0005896D01*
X0035718Y0005882D01*
X0035667Y0005871D01*
X0035615Y0005864D01*
X0035563Y0005861D01*
X0035511Y0005862D01*
X0035459Y0005867D01*
X0035408Y0005876D01*
X0035357Y0005889D01*
X0035308Y0005905D01*
X0035259Y0005925D01*
X0035213Y0005949D01*
X0035169Y0005976D01*
X0035126Y0006007D01*
X0035086Y0006040D01*
X0035049Y0006077D01*
X0035015Y0006116D01*
X0034984Y0006158D01*
X0034955Y0006202D01*
X0034931Y0006248D01*
X0034910Y0006295D01*
X0034892Y0006345D01*
X0034879Y0006395D01*
X0034869Y0006446D01*
X0034863Y0006498D01*
X0034861Y0006550D01*
X0036806Y0003550D02*
X0108294Y0003550D01*
X0108861Y0006550D02*
X0108863Y0006602D01*
X0108869Y0006654D01*
X0108879Y0006705D01*
X0108892Y0006755D01*
X0108910Y0006805D01*
X0108931Y0006852D01*
X0108955Y0006898D01*
X0108984Y0006942D01*
X0109015Y0006984D01*
X0109049Y0007023D01*
X0109086Y0007060D01*
X0109126Y0007093D01*
X0109169Y0007124D01*
X0109213Y0007151D01*
X0109259Y0007175D01*
X0109308Y0007195D01*
X0109357Y0007211D01*
X0109408Y0007224D01*
X0109459Y0007233D01*
X0109511Y0007238D01*
X0109563Y0007239D01*
X0109615Y0007236D01*
X0109667Y0007229D01*
X0109718Y0007218D01*
X0109768Y0007204D01*
X0109817Y0007185D01*
X0109864Y0007163D01*
X0109909Y0007138D01*
X0109953Y0007109D01*
X0109994Y0007077D01*
X0110033Y0007042D01*
X0110068Y0007004D01*
X0110101Y0006963D01*
X0110131Y0006921D01*
X0110157Y0006876D01*
X0110180Y0006829D01*
X0110199Y0006780D01*
X0110215Y0006730D01*
X0110227Y0006680D01*
X0110235Y0006628D01*
X0110239Y0006576D01*
X0110239Y0006524D01*
X0110235Y0006472D01*
X0110227Y0006420D01*
X0110215Y0006370D01*
X0110199Y0006320D01*
X0110180Y0006271D01*
X0110157Y0006224D01*
X0110131Y0006179D01*
X0110101Y0006137D01*
X0110068Y0006096D01*
X0110033Y0006058D01*
X0109994Y0006023D01*
X0109953Y0005991D01*
X0109909Y0005962D01*
X0109864Y0005937D01*
X0109817Y0005915D01*
X0109768Y0005896D01*
X0109718Y0005882D01*
X0109667Y0005871D01*
X0109615Y0005864D01*
X0109563Y0005861D01*
X0109511Y0005862D01*
X0109459Y0005867D01*
X0109408Y0005876D01*
X0109357Y0005889D01*
X0109308Y0005905D01*
X0109259Y0005925D01*
X0109213Y0005949D01*
X0109169Y0005976D01*
X0109126Y0006007D01*
X0109086Y0006040D01*
X0109049Y0006077D01*
X0109015Y0006116D01*
X0108984Y0006158D01*
X0108955Y0006202D01*
X0108931Y0006248D01*
X0108910Y0006295D01*
X0108892Y0006345D01*
X0108879Y0006395D01*
X0108869Y0006446D01*
X0108863Y0006498D01*
X0108861Y0006550D01*
X0111861Y0006550D02*
X0111863Y0006602D01*
X0111869Y0006654D01*
X0111879Y0006705D01*
X0111892Y0006755D01*
X0111910Y0006805D01*
X0111931Y0006852D01*
X0111955Y0006898D01*
X0111984Y0006942D01*
X0112015Y0006984D01*
X0112049Y0007023D01*
X0112086Y0007060D01*
X0112126Y0007093D01*
X0112169Y0007124D01*
X0112213Y0007151D01*
X0112259Y0007175D01*
X0112308Y0007195D01*
X0112357Y0007211D01*
X0112408Y0007224D01*
X0112459Y0007233D01*
X0112511Y0007238D01*
X0112563Y0007239D01*
X0112615Y0007236D01*
X0112667Y0007229D01*
X0112718Y0007218D01*
X0112768Y0007204D01*
X0112817Y0007185D01*
X0112864Y0007163D01*
X0112909Y0007138D01*
X0112953Y0007109D01*
X0112994Y0007077D01*
X0113033Y0007042D01*
X0113068Y0007004D01*
X0113101Y0006963D01*
X0113131Y0006921D01*
X0113157Y0006876D01*
X0113180Y0006829D01*
X0113199Y0006780D01*
X0113215Y0006730D01*
X0113227Y0006680D01*
X0113235Y0006628D01*
X0113239Y0006576D01*
X0113239Y0006524D01*
X0113235Y0006472D01*
X0113227Y0006420D01*
X0113215Y0006370D01*
X0113199Y0006320D01*
X0113180Y0006271D01*
X0113157Y0006224D01*
X0113131Y0006179D01*
X0113101Y0006137D01*
X0113068Y0006096D01*
X0113033Y0006058D01*
X0112994Y0006023D01*
X0112953Y0005991D01*
X0112909Y0005962D01*
X0112864Y0005937D01*
X0112817Y0005915D01*
X0112768Y0005896D01*
X0112718Y0005882D01*
X0112667Y0005871D01*
X0112615Y0005864D01*
X0112563Y0005861D01*
X0112511Y0005862D01*
X0112459Y0005867D01*
X0112408Y0005876D01*
X0112357Y0005889D01*
X0112308Y0005905D01*
X0112259Y0005925D01*
X0112213Y0005949D01*
X0112169Y0005976D01*
X0112126Y0006007D01*
X0112086Y0006040D01*
X0112049Y0006077D01*
X0112015Y0006116D01*
X0111984Y0006158D01*
X0111955Y0006202D01*
X0111931Y0006248D01*
X0111910Y0006295D01*
X0111892Y0006345D01*
X0111879Y0006395D01*
X0111869Y0006446D01*
X0111863Y0006498D01*
X0111861Y0006550D01*
X0113806Y0003550D02*
X0391251Y0003550D01*
X0391251Y0318011D01*
X0003550Y0318011D01*
X0003550Y0003550D01*
X0004361Y0006550D02*
X0004363Y0006602D01*
X0004369Y0006654D01*
X0004379Y0006705D01*
X0004392Y0006755D01*
X0004410Y0006805D01*
X0004431Y0006852D01*
X0004455Y0006898D01*
X0004484Y0006942D01*
X0004515Y0006984D01*
X0004549Y0007023D01*
X0004586Y0007060D01*
X0004626Y0007093D01*
X0004669Y0007124D01*
X0004713Y0007151D01*
X0004759Y0007175D01*
X0004808Y0007195D01*
X0004857Y0007211D01*
X0004908Y0007224D01*
X0004959Y0007233D01*
X0005011Y0007238D01*
X0005063Y0007239D01*
X0005115Y0007236D01*
X0005167Y0007229D01*
X0005218Y0007218D01*
X0005268Y0007204D01*
X0005317Y0007185D01*
X0005364Y0007163D01*
X0005409Y0007138D01*
X0005453Y0007109D01*
X0005494Y0007077D01*
X0005533Y0007042D01*
X0005568Y0007004D01*
X0005601Y0006963D01*
X0005631Y0006921D01*
X0005657Y0006876D01*
X0005680Y0006829D01*
X0005699Y0006780D01*
X0005715Y0006730D01*
X0005727Y0006680D01*
X0005735Y0006628D01*
X0005739Y0006576D01*
X0005739Y0006524D01*
X0005735Y0006472D01*
X0005727Y0006420D01*
X0005715Y0006370D01*
X0005699Y0006320D01*
X0005680Y0006271D01*
X0005657Y0006224D01*
X0005631Y0006179D01*
X0005601Y0006137D01*
X0005568Y0006096D01*
X0005533Y0006058D01*
X0005494Y0006023D01*
X0005453Y0005991D01*
X0005409Y0005962D01*
X0005364Y0005937D01*
X0005317Y0005915D01*
X0005268Y0005896D01*
X0005218Y0005882D01*
X0005167Y0005871D01*
X0005115Y0005864D01*
X0005063Y0005861D01*
X0005011Y0005862D01*
X0004959Y0005867D01*
X0004908Y0005876D01*
X0004857Y0005889D01*
X0004808Y0005905D01*
X0004759Y0005925D01*
X0004713Y0005949D01*
X0004669Y0005976D01*
X0004626Y0006007D01*
X0004586Y0006040D01*
X0004549Y0006077D01*
X0004515Y0006116D01*
X0004484Y0006158D01*
X0004455Y0006202D01*
X0004431Y0006248D01*
X0004410Y0006295D01*
X0004392Y0006345D01*
X0004379Y0006395D01*
X0004369Y0006446D01*
X0004363Y0006498D01*
X0004361Y0006550D01*
X0004361Y0114550D02*
X0004363Y0114602D01*
X0004369Y0114654D01*
X0004379Y0114705D01*
X0004392Y0114755D01*
X0004410Y0114805D01*
X0004431Y0114852D01*
X0004455Y0114898D01*
X0004484Y0114942D01*
X0004515Y0114984D01*
X0004549Y0115023D01*
X0004586Y0115060D01*
X0004626Y0115093D01*
X0004669Y0115124D01*
X0004713Y0115151D01*
X0004759Y0115175D01*
X0004808Y0115195D01*
X0004857Y0115211D01*
X0004908Y0115224D01*
X0004959Y0115233D01*
X0005011Y0115238D01*
X0005063Y0115239D01*
X0005115Y0115236D01*
X0005167Y0115229D01*
X0005218Y0115218D01*
X0005268Y0115204D01*
X0005317Y0115185D01*
X0005364Y0115163D01*
X0005409Y0115138D01*
X0005453Y0115109D01*
X0005494Y0115077D01*
X0005533Y0115042D01*
X0005568Y0115004D01*
X0005601Y0114963D01*
X0005631Y0114921D01*
X0005657Y0114876D01*
X0005680Y0114829D01*
X0005699Y0114780D01*
X0005715Y0114730D01*
X0005727Y0114680D01*
X0005735Y0114628D01*
X0005739Y0114576D01*
X0005739Y0114524D01*
X0005735Y0114472D01*
X0005727Y0114420D01*
X0005715Y0114370D01*
X0005699Y0114320D01*
X0005680Y0114271D01*
X0005657Y0114224D01*
X0005631Y0114179D01*
X0005601Y0114137D01*
X0005568Y0114096D01*
X0005533Y0114058D01*
X0005494Y0114023D01*
X0005453Y0113991D01*
X0005409Y0113962D01*
X0005364Y0113937D01*
X0005317Y0113915D01*
X0005268Y0113896D01*
X0005218Y0113882D01*
X0005167Y0113871D01*
X0005115Y0113864D01*
X0005063Y0113861D01*
X0005011Y0113862D01*
X0004959Y0113867D01*
X0004908Y0113876D01*
X0004857Y0113889D01*
X0004808Y0113905D01*
X0004759Y0113925D01*
X0004713Y0113949D01*
X0004669Y0113976D01*
X0004626Y0114007D01*
X0004586Y0114040D01*
X0004549Y0114077D01*
X0004515Y0114116D01*
X0004484Y0114158D01*
X0004455Y0114202D01*
X0004431Y0114248D01*
X0004410Y0114295D01*
X0004392Y0114345D01*
X0004379Y0114395D01*
X0004369Y0114446D01*
X0004363Y0114498D01*
X0004361Y0114550D01*
X0031361Y0114550D02*
X0031363Y0114602D01*
X0031369Y0114654D01*
X0031379Y0114705D01*
X0031392Y0114755D01*
X0031410Y0114805D01*
X0031431Y0114852D01*
X0031455Y0114898D01*
X0031484Y0114942D01*
X0031515Y0114984D01*
X0031549Y0115023D01*
X0031586Y0115060D01*
X0031626Y0115093D01*
X0031669Y0115124D01*
X0031713Y0115151D01*
X0031759Y0115175D01*
X0031808Y0115195D01*
X0031857Y0115211D01*
X0031908Y0115224D01*
X0031959Y0115233D01*
X0032011Y0115238D01*
X0032063Y0115239D01*
X0032115Y0115236D01*
X0032167Y0115229D01*
X0032218Y0115218D01*
X0032268Y0115204D01*
X0032317Y0115185D01*
X0032364Y0115163D01*
X0032409Y0115138D01*
X0032453Y0115109D01*
X0032494Y0115077D01*
X0032533Y0115042D01*
X0032568Y0115004D01*
X0032601Y0114963D01*
X0032631Y0114921D01*
X0032657Y0114876D01*
X0032680Y0114829D01*
X0032699Y0114780D01*
X0032715Y0114730D01*
X0032727Y0114680D01*
X0032735Y0114628D01*
X0032739Y0114576D01*
X0032739Y0114524D01*
X0032735Y0114472D01*
X0032727Y0114420D01*
X0032715Y0114370D01*
X0032699Y0114320D01*
X0032680Y0114271D01*
X0032657Y0114224D01*
X0032631Y0114179D01*
X0032601Y0114137D01*
X0032568Y0114096D01*
X0032533Y0114058D01*
X0032494Y0114023D01*
X0032453Y0113991D01*
X0032409Y0113962D01*
X0032364Y0113937D01*
X0032317Y0113915D01*
X0032268Y0113896D01*
X0032218Y0113882D01*
X0032167Y0113871D01*
X0032115Y0113864D01*
X0032063Y0113861D01*
X0032011Y0113862D01*
X0031959Y0113867D01*
X0031908Y0113876D01*
X0031857Y0113889D01*
X0031808Y0113905D01*
X0031759Y0113925D01*
X0031713Y0113949D01*
X0031669Y0113976D01*
X0031626Y0114007D01*
X0031586Y0114040D01*
X0031549Y0114077D01*
X0031515Y0114116D01*
X0031484Y0114158D01*
X0031455Y0114202D01*
X0031431Y0114248D01*
X0031410Y0114295D01*
X0031392Y0114345D01*
X0031379Y0114395D01*
X0031369Y0114446D01*
X0031363Y0114498D01*
X0031361Y0114550D01*
X0034361Y0114550D02*
X0034363Y0114602D01*
X0034369Y0114654D01*
X0034379Y0114705D01*
X0034392Y0114755D01*
X0034410Y0114805D01*
X0034431Y0114852D01*
X0034455Y0114898D01*
X0034484Y0114942D01*
X0034515Y0114984D01*
X0034549Y0115023D01*
X0034586Y0115060D01*
X0034626Y0115093D01*
X0034669Y0115124D01*
X0034713Y0115151D01*
X0034759Y0115175D01*
X0034808Y0115195D01*
X0034857Y0115211D01*
X0034908Y0115224D01*
X0034959Y0115233D01*
X0035011Y0115238D01*
X0035063Y0115239D01*
X0035115Y0115236D01*
X0035167Y0115229D01*
X0035218Y0115218D01*
X0035268Y0115204D01*
X0035317Y0115185D01*
X0035364Y0115163D01*
X0035409Y0115138D01*
X0035453Y0115109D01*
X0035494Y0115077D01*
X0035533Y0115042D01*
X0035568Y0115004D01*
X0035601Y0114963D01*
X0035631Y0114921D01*
X0035657Y0114876D01*
X0035680Y0114829D01*
X0035699Y0114780D01*
X0035715Y0114730D01*
X0035727Y0114680D01*
X0035735Y0114628D01*
X0035739Y0114576D01*
X0035739Y0114524D01*
X0035735Y0114472D01*
X0035727Y0114420D01*
X0035715Y0114370D01*
X0035699Y0114320D01*
X0035680Y0114271D01*
X0035657Y0114224D01*
X0035631Y0114179D01*
X0035601Y0114137D01*
X0035568Y0114096D01*
X0035533Y0114058D01*
X0035494Y0114023D01*
X0035453Y0113991D01*
X0035409Y0113962D01*
X0035364Y0113937D01*
X0035317Y0113915D01*
X0035268Y0113896D01*
X0035218Y0113882D01*
X0035167Y0113871D01*
X0035115Y0113864D01*
X0035063Y0113861D01*
X0035011Y0113862D01*
X0034959Y0113867D01*
X0034908Y0113876D01*
X0034857Y0113889D01*
X0034808Y0113905D01*
X0034759Y0113925D01*
X0034713Y0113949D01*
X0034669Y0113976D01*
X0034626Y0114007D01*
X0034586Y0114040D01*
X0034549Y0114077D01*
X0034515Y0114116D01*
X0034484Y0114158D01*
X0034455Y0114202D01*
X0034431Y0114248D01*
X0034410Y0114295D01*
X0034392Y0114345D01*
X0034379Y0114395D01*
X0034369Y0114446D01*
X0034363Y0114498D01*
X0034361Y0114550D01*
X0108861Y0114550D02*
X0108863Y0114602D01*
X0108869Y0114654D01*
X0108879Y0114705D01*
X0108892Y0114755D01*
X0108910Y0114805D01*
X0108931Y0114852D01*
X0108955Y0114898D01*
X0108984Y0114942D01*
X0109015Y0114984D01*
X0109049Y0115023D01*
X0109086Y0115060D01*
X0109126Y0115093D01*
X0109169Y0115124D01*
X0109213Y0115151D01*
X0109259Y0115175D01*
X0109308Y0115195D01*
X0109357Y0115211D01*
X0109408Y0115224D01*
X0109459Y0115233D01*
X0109511Y0115238D01*
X0109563Y0115239D01*
X0109615Y0115236D01*
X0109667Y0115229D01*
X0109718Y0115218D01*
X0109768Y0115204D01*
X0109817Y0115185D01*
X0109864Y0115163D01*
X0109909Y0115138D01*
X0109953Y0115109D01*
X0109994Y0115077D01*
X0110033Y0115042D01*
X0110068Y0115004D01*
X0110101Y0114963D01*
X0110131Y0114921D01*
X0110157Y0114876D01*
X0110180Y0114829D01*
X0110199Y0114780D01*
X0110215Y0114730D01*
X0110227Y0114680D01*
X0110235Y0114628D01*
X0110239Y0114576D01*
X0110239Y0114524D01*
X0110235Y0114472D01*
X0110227Y0114420D01*
X0110215Y0114370D01*
X0110199Y0114320D01*
X0110180Y0114271D01*
X0110157Y0114224D01*
X0110131Y0114179D01*
X0110101Y0114137D01*
X0110068Y0114096D01*
X0110033Y0114058D01*
X0109994Y0114023D01*
X0109953Y0113991D01*
X0109909Y0113962D01*
X0109864Y0113937D01*
X0109817Y0113915D01*
X0109768Y0113896D01*
X0109718Y0113882D01*
X0109667Y0113871D01*
X0109615Y0113864D01*
X0109563Y0113861D01*
X0109511Y0113862D01*
X0109459Y0113867D01*
X0109408Y0113876D01*
X0109357Y0113889D01*
X0109308Y0113905D01*
X0109259Y0113925D01*
X0109213Y0113949D01*
X0109169Y0113976D01*
X0109126Y0114007D01*
X0109086Y0114040D01*
X0109049Y0114077D01*
X0109015Y0114116D01*
X0108984Y0114158D01*
X0108955Y0114202D01*
X0108931Y0114248D01*
X0108910Y0114295D01*
X0108892Y0114345D01*
X0108879Y0114395D01*
X0108869Y0114446D01*
X0108863Y0114498D01*
X0108861Y0114550D01*
X0111861Y0114550D02*
X0111863Y0114602D01*
X0111869Y0114654D01*
X0111879Y0114705D01*
X0111892Y0114755D01*
X0111910Y0114805D01*
X0111931Y0114852D01*
X0111955Y0114898D01*
X0111984Y0114942D01*
X0112015Y0114984D01*
X0112049Y0115023D01*
X0112086Y0115060D01*
X0112126Y0115093D01*
X0112169Y0115124D01*
X0112213Y0115151D01*
X0112259Y0115175D01*
X0112308Y0115195D01*
X0112357Y0115211D01*
X0112408Y0115224D01*
X0112459Y0115233D01*
X0112511Y0115238D01*
X0112563Y0115239D01*
X0112615Y0115236D01*
X0112667Y0115229D01*
X0112718Y0115218D01*
X0112768Y0115204D01*
X0112817Y0115185D01*
X0112864Y0115163D01*
X0112909Y0115138D01*
X0112953Y0115109D01*
X0112994Y0115077D01*
X0113033Y0115042D01*
X0113068Y0115004D01*
X0113101Y0114963D01*
X0113131Y0114921D01*
X0113157Y0114876D01*
X0113180Y0114829D01*
X0113199Y0114780D01*
X0113215Y0114730D01*
X0113227Y0114680D01*
X0113235Y0114628D01*
X0113239Y0114576D01*
X0113239Y0114524D01*
X0113235Y0114472D01*
X0113227Y0114420D01*
X0113215Y0114370D01*
X0113199Y0114320D01*
X0113180Y0114271D01*
X0113157Y0114224D01*
X0113131Y0114179D01*
X0113101Y0114137D01*
X0113068Y0114096D01*
X0113033Y0114058D01*
X0112994Y0114023D01*
X0112953Y0113991D01*
X0112909Y0113962D01*
X0112864Y0113937D01*
X0112817Y0113915D01*
X0112768Y0113896D01*
X0112718Y0113882D01*
X0112667Y0113871D01*
X0112615Y0113864D01*
X0112563Y0113861D01*
X0112511Y0113862D01*
X0112459Y0113867D01*
X0112408Y0113876D01*
X0112357Y0113889D01*
X0112308Y0113905D01*
X0112259Y0113925D01*
X0112213Y0113949D01*
X0112169Y0113976D01*
X0112126Y0114007D01*
X0112086Y0114040D01*
X0112049Y0114077D01*
X0112015Y0114116D01*
X0111984Y0114158D01*
X0111955Y0114202D01*
X0111931Y0114248D01*
X0111910Y0114295D01*
X0111892Y0114345D01*
X0111879Y0114395D01*
X0111869Y0114446D01*
X0111863Y0114498D01*
X0111861Y0114550D01*
X0144361Y0090550D02*
X0144363Y0090602D01*
X0144369Y0090654D01*
X0144379Y0090705D01*
X0144392Y0090755D01*
X0144410Y0090805D01*
X0144431Y0090852D01*
X0144455Y0090898D01*
X0144484Y0090942D01*
X0144515Y0090984D01*
X0144549Y0091023D01*
X0144586Y0091060D01*
X0144626Y0091093D01*
X0144669Y0091124D01*
X0144713Y0091151D01*
X0144759Y0091175D01*
X0144808Y0091195D01*
X0144857Y0091211D01*
X0144908Y0091224D01*
X0144959Y0091233D01*
X0145011Y0091238D01*
X0145063Y0091239D01*
X0145115Y0091236D01*
X0145167Y0091229D01*
X0145218Y0091218D01*
X0145268Y0091204D01*
X0145317Y0091185D01*
X0145364Y0091163D01*
X0145409Y0091138D01*
X0145453Y0091109D01*
X0145494Y0091077D01*
X0145533Y0091042D01*
X0145568Y0091004D01*
X0145601Y0090963D01*
X0145631Y0090921D01*
X0145657Y0090876D01*
X0145680Y0090829D01*
X0145699Y0090780D01*
X0145715Y0090730D01*
X0145727Y0090680D01*
X0145735Y0090628D01*
X0145739Y0090576D01*
X0145739Y0090524D01*
X0145735Y0090472D01*
X0145727Y0090420D01*
X0145715Y0090370D01*
X0145699Y0090320D01*
X0145680Y0090271D01*
X0145657Y0090224D01*
X0145631Y0090179D01*
X0145601Y0090137D01*
X0145568Y0090096D01*
X0145533Y0090058D01*
X0145494Y0090023D01*
X0145453Y0089991D01*
X0145409Y0089962D01*
X0145364Y0089937D01*
X0145317Y0089915D01*
X0145268Y0089896D01*
X0145218Y0089882D01*
X0145167Y0089871D01*
X0145115Y0089864D01*
X0145063Y0089861D01*
X0145011Y0089862D01*
X0144959Y0089867D01*
X0144908Y0089876D01*
X0144857Y0089889D01*
X0144808Y0089905D01*
X0144759Y0089925D01*
X0144713Y0089949D01*
X0144669Y0089976D01*
X0144626Y0090007D01*
X0144586Y0090040D01*
X0144549Y0090077D01*
X0144515Y0090116D01*
X0144484Y0090158D01*
X0144455Y0090202D01*
X0144431Y0090248D01*
X0144410Y0090295D01*
X0144392Y0090345D01*
X0144379Y0090395D01*
X0144369Y0090446D01*
X0144363Y0090498D01*
X0144361Y0090550D01*
X0144361Y0087550D02*
X0144363Y0087602D01*
X0144369Y0087654D01*
X0144379Y0087705D01*
X0144392Y0087755D01*
X0144410Y0087805D01*
X0144431Y0087852D01*
X0144455Y0087898D01*
X0144484Y0087942D01*
X0144515Y0087984D01*
X0144549Y0088023D01*
X0144586Y0088060D01*
X0144626Y0088093D01*
X0144669Y0088124D01*
X0144713Y0088151D01*
X0144759Y0088175D01*
X0144808Y0088195D01*
X0144857Y0088211D01*
X0144908Y0088224D01*
X0144959Y0088233D01*
X0145011Y0088238D01*
X0145063Y0088239D01*
X0145115Y0088236D01*
X0145167Y0088229D01*
X0145218Y0088218D01*
X0145268Y0088204D01*
X0145317Y0088185D01*
X0145364Y0088163D01*
X0145409Y0088138D01*
X0145453Y0088109D01*
X0145494Y0088077D01*
X0145533Y0088042D01*
X0145568Y0088004D01*
X0145601Y0087963D01*
X0145631Y0087921D01*
X0145657Y0087876D01*
X0145680Y0087829D01*
X0145699Y0087780D01*
X0145715Y0087730D01*
X0145727Y0087680D01*
X0145735Y0087628D01*
X0145739Y0087576D01*
X0145739Y0087524D01*
X0145735Y0087472D01*
X0145727Y0087420D01*
X0145715Y0087370D01*
X0145699Y0087320D01*
X0145680Y0087271D01*
X0145657Y0087224D01*
X0145631Y0087179D01*
X0145601Y0087137D01*
X0145568Y0087096D01*
X0145533Y0087058D01*
X0145494Y0087023D01*
X0145453Y0086991D01*
X0145409Y0086962D01*
X0145364Y0086937D01*
X0145317Y0086915D01*
X0145268Y0086896D01*
X0145218Y0086882D01*
X0145167Y0086871D01*
X0145115Y0086864D01*
X0145063Y0086861D01*
X0145011Y0086862D01*
X0144959Y0086867D01*
X0144908Y0086876D01*
X0144857Y0086889D01*
X0144808Y0086905D01*
X0144759Y0086925D01*
X0144713Y0086949D01*
X0144669Y0086976D01*
X0144626Y0087007D01*
X0144586Y0087040D01*
X0144549Y0087077D01*
X0144515Y0087116D01*
X0144484Y0087158D01*
X0144455Y0087202D01*
X0144431Y0087248D01*
X0144410Y0087295D01*
X0144392Y0087345D01*
X0144379Y0087395D01*
X0144369Y0087446D01*
X0144363Y0087498D01*
X0144361Y0087550D01*
X0160361Y0077050D02*
X0160363Y0077102D01*
X0160369Y0077154D01*
X0160379Y0077205D01*
X0160392Y0077255D01*
X0160410Y0077305D01*
X0160431Y0077352D01*
X0160455Y0077398D01*
X0160484Y0077442D01*
X0160515Y0077484D01*
X0160549Y0077523D01*
X0160586Y0077560D01*
X0160626Y0077593D01*
X0160669Y0077624D01*
X0160713Y0077651D01*
X0160759Y0077675D01*
X0160808Y0077695D01*
X0160857Y0077711D01*
X0160908Y0077724D01*
X0160959Y0077733D01*
X0161011Y0077738D01*
X0161063Y0077739D01*
X0161115Y0077736D01*
X0161167Y0077729D01*
X0161218Y0077718D01*
X0161268Y0077704D01*
X0161317Y0077685D01*
X0161364Y0077663D01*
X0161409Y0077638D01*
X0161453Y0077609D01*
X0161494Y0077577D01*
X0161533Y0077542D01*
X0161568Y0077504D01*
X0161601Y0077463D01*
X0161631Y0077421D01*
X0161657Y0077376D01*
X0161680Y0077329D01*
X0161699Y0077280D01*
X0161715Y0077230D01*
X0161727Y0077180D01*
X0161735Y0077128D01*
X0161739Y0077076D01*
X0161739Y0077024D01*
X0161735Y0076972D01*
X0161727Y0076920D01*
X0161715Y0076870D01*
X0161699Y0076820D01*
X0161680Y0076771D01*
X0161657Y0076724D01*
X0161631Y0076679D01*
X0161601Y0076637D01*
X0161568Y0076596D01*
X0161533Y0076558D01*
X0161494Y0076523D01*
X0161453Y0076491D01*
X0161409Y0076462D01*
X0161364Y0076437D01*
X0161317Y0076415D01*
X0161268Y0076396D01*
X0161218Y0076382D01*
X0161167Y0076371D01*
X0161115Y0076364D01*
X0161063Y0076361D01*
X0161011Y0076362D01*
X0160959Y0076367D01*
X0160908Y0076376D01*
X0160857Y0076389D01*
X0160808Y0076405D01*
X0160759Y0076425D01*
X0160713Y0076449D01*
X0160669Y0076476D01*
X0160626Y0076507D01*
X0160586Y0076540D01*
X0160549Y0076577D01*
X0160515Y0076616D01*
X0160484Y0076658D01*
X0160455Y0076702D01*
X0160431Y0076748D01*
X0160410Y0076795D01*
X0160392Y0076845D01*
X0160379Y0076895D01*
X0160369Y0076946D01*
X0160363Y0076998D01*
X0160361Y0077050D01*
X0163361Y0077050D02*
X0163363Y0077102D01*
X0163369Y0077154D01*
X0163379Y0077205D01*
X0163392Y0077255D01*
X0163410Y0077305D01*
X0163431Y0077352D01*
X0163455Y0077398D01*
X0163484Y0077442D01*
X0163515Y0077484D01*
X0163549Y0077523D01*
X0163586Y0077560D01*
X0163626Y0077593D01*
X0163669Y0077624D01*
X0163713Y0077651D01*
X0163759Y0077675D01*
X0163808Y0077695D01*
X0163857Y0077711D01*
X0163908Y0077724D01*
X0163959Y0077733D01*
X0164011Y0077738D01*
X0164063Y0077739D01*
X0164115Y0077736D01*
X0164167Y0077729D01*
X0164218Y0077718D01*
X0164268Y0077704D01*
X0164317Y0077685D01*
X0164364Y0077663D01*
X0164409Y0077638D01*
X0164453Y0077609D01*
X0164494Y0077577D01*
X0164533Y0077542D01*
X0164568Y0077504D01*
X0164601Y0077463D01*
X0164631Y0077421D01*
X0164657Y0077376D01*
X0164680Y0077329D01*
X0164699Y0077280D01*
X0164715Y0077230D01*
X0164727Y0077180D01*
X0164735Y0077128D01*
X0164739Y0077076D01*
X0164739Y0077024D01*
X0164735Y0076972D01*
X0164727Y0076920D01*
X0164715Y0076870D01*
X0164699Y0076820D01*
X0164680Y0076771D01*
X0164657Y0076724D01*
X0164631Y0076679D01*
X0164601Y0076637D01*
X0164568Y0076596D01*
X0164533Y0076558D01*
X0164494Y0076523D01*
X0164453Y0076491D01*
X0164409Y0076462D01*
X0164364Y0076437D01*
X0164317Y0076415D01*
X0164268Y0076396D01*
X0164218Y0076382D01*
X0164167Y0076371D01*
X0164115Y0076364D01*
X0164063Y0076361D01*
X0164011Y0076362D01*
X0163959Y0076367D01*
X0163908Y0076376D01*
X0163857Y0076389D01*
X0163808Y0076405D01*
X0163759Y0076425D01*
X0163713Y0076449D01*
X0163669Y0076476D01*
X0163626Y0076507D01*
X0163586Y0076540D01*
X0163549Y0076577D01*
X0163515Y0076616D01*
X0163484Y0076658D01*
X0163455Y0076702D01*
X0163431Y0076748D01*
X0163410Y0076795D01*
X0163392Y0076845D01*
X0163379Y0076895D01*
X0163369Y0076946D01*
X0163363Y0076998D01*
X0163361Y0077050D01*
X0144361Y0066550D02*
X0144363Y0066602D01*
X0144369Y0066654D01*
X0144379Y0066705D01*
X0144392Y0066755D01*
X0144410Y0066805D01*
X0144431Y0066852D01*
X0144455Y0066898D01*
X0144484Y0066942D01*
X0144515Y0066984D01*
X0144549Y0067023D01*
X0144586Y0067060D01*
X0144626Y0067093D01*
X0144669Y0067124D01*
X0144713Y0067151D01*
X0144759Y0067175D01*
X0144808Y0067195D01*
X0144857Y0067211D01*
X0144908Y0067224D01*
X0144959Y0067233D01*
X0145011Y0067238D01*
X0145063Y0067239D01*
X0145115Y0067236D01*
X0145167Y0067229D01*
X0145218Y0067218D01*
X0145268Y0067204D01*
X0145317Y0067185D01*
X0145364Y0067163D01*
X0145409Y0067138D01*
X0145453Y0067109D01*
X0145494Y0067077D01*
X0145533Y0067042D01*
X0145568Y0067004D01*
X0145601Y0066963D01*
X0145631Y0066921D01*
X0145657Y0066876D01*
X0145680Y0066829D01*
X0145699Y0066780D01*
X0145715Y0066730D01*
X0145727Y0066680D01*
X0145735Y0066628D01*
X0145739Y0066576D01*
X0145739Y0066524D01*
X0145735Y0066472D01*
X0145727Y0066420D01*
X0145715Y0066370D01*
X0145699Y0066320D01*
X0145680Y0066271D01*
X0145657Y0066224D01*
X0145631Y0066179D01*
X0145601Y0066137D01*
X0145568Y0066096D01*
X0145533Y0066058D01*
X0145494Y0066023D01*
X0145453Y0065991D01*
X0145409Y0065962D01*
X0145364Y0065937D01*
X0145317Y0065915D01*
X0145268Y0065896D01*
X0145218Y0065882D01*
X0145167Y0065871D01*
X0145115Y0065864D01*
X0145063Y0065861D01*
X0145011Y0065862D01*
X0144959Y0065867D01*
X0144908Y0065876D01*
X0144857Y0065889D01*
X0144808Y0065905D01*
X0144759Y0065925D01*
X0144713Y0065949D01*
X0144669Y0065976D01*
X0144626Y0066007D01*
X0144586Y0066040D01*
X0144549Y0066077D01*
X0144515Y0066116D01*
X0144484Y0066158D01*
X0144455Y0066202D01*
X0144431Y0066248D01*
X0144410Y0066295D01*
X0144392Y0066345D01*
X0144379Y0066395D01*
X0144369Y0066446D01*
X0144363Y0066498D01*
X0144361Y0066550D01*
X0144361Y0063550D02*
X0144363Y0063602D01*
X0144369Y0063654D01*
X0144379Y0063705D01*
X0144392Y0063755D01*
X0144410Y0063805D01*
X0144431Y0063852D01*
X0144455Y0063898D01*
X0144484Y0063942D01*
X0144515Y0063984D01*
X0144549Y0064023D01*
X0144586Y0064060D01*
X0144626Y0064093D01*
X0144669Y0064124D01*
X0144713Y0064151D01*
X0144759Y0064175D01*
X0144808Y0064195D01*
X0144857Y0064211D01*
X0144908Y0064224D01*
X0144959Y0064233D01*
X0145011Y0064238D01*
X0145063Y0064239D01*
X0145115Y0064236D01*
X0145167Y0064229D01*
X0145218Y0064218D01*
X0145268Y0064204D01*
X0145317Y0064185D01*
X0145364Y0064163D01*
X0145409Y0064138D01*
X0145453Y0064109D01*
X0145494Y0064077D01*
X0145533Y0064042D01*
X0145568Y0064004D01*
X0145601Y0063963D01*
X0145631Y0063921D01*
X0145657Y0063876D01*
X0145680Y0063829D01*
X0145699Y0063780D01*
X0145715Y0063730D01*
X0145727Y0063680D01*
X0145735Y0063628D01*
X0145739Y0063576D01*
X0145739Y0063524D01*
X0145735Y0063472D01*
X0145727Y0063420D01*
X0145715Y0063370D01*
X0145699Y0063320D01*
X0145680Y0063271D01*
X0145657Y0063224D01*
X0145631Y0063179D01*
X0145601Y0063137D01*
X0145568Y0063096D01*
X0145533Y0063058D01*
X0145494Y0063023D01*
X0145453Y0062991D01*
X0145409Y0062962D01*
X0145364Y0062937D01*
X0145317Y0062915D01*
X0145268Y0062896D01*
X0145218Y0062882D01*
X0145167Y0062871D01*
X0145115Y0062864D01*
X0145063Y0062861D01*
X0145011Y0062862D01*
X0144959Y0062867D01*
X0144908Y0062876D01*
X0144857Y0062889D01*
X0144808Y0062905D01*
X0144759Y0062925D01*
X0144713Y0062949D01*
X0144669Y0062976D01*
X0144626Y0063007D01*
X0144586Y0063040D01*
X0144549Y0063077D01*
X0144515Y0063116D01*
X0144484Y0063158D01*
X0144455Y0063202D01*
X0144431Y0063248D01*
X0144410Y0063295D01*
X0144392Y0063345D01*
X0144379Y0063395D01*
X0144369Y0063446D01*
X0144363Y0063498D01*
X0144361Y0063550D01*
X0160361Y0053050D02*
X0160363Y0053102D01*
X0160369Y0053154D01*
X0160379Y0053205D01*
X0160392Y0053255D01*
X0160410Y0053305D01*
X0160431Y0053352D01*
X0160455Y0053398D01*
X0160484Y0053442D01*
X0160515Y0053484D01*
X0160549Y0053523D01*
X0160586Y0053560D01*
X0160626Y0053593D01*
X0160669Y0053624D01*
X0160713Y0053651D01*
X0160759Y0053675D01*
X0160808Y0053695D01*
X0160857Y0053711D01*
X0160908Y0053724D01*
X0160959Y0053733D01*
X0161011Y0053738D01*
X0161063Y0053739D01*
X0161115Y0053736D01*
X0161167Y0053729D01*
X0161218Y0053718D01*
X0161268Y0053704D01*
X0161317Y0053685D01*
X0161364Y0053663D01*
X0161409Y0053638D01*
X0161453Y0053609D01*
X0161494Y0053577D01*
X0161533Y0053542D01*
X0161568Y0053504D01*
X0161601Y0053463D01*
X0161631Y0053421D01*
X0161657Y0053376D01*
X0161680Y0053329D01*
X0161699Y0053280D01*
X0161715Y0053230D01*
X0161727Y0053180D01*
X0161735Y0053128D01*
X0161739Y0053076D01*
X0161739Y0053024D01*
X0161735Y0052972D01*
X0161727Y0052920D01*
X0161715Y0052870D01*
X0161699Y0052820D01*
X0161680Y0052771D01*
X0161657Y0052724D01*
X0161631Y0052679D01*
X0161601Y0052637D01*
X0161568Y0052596D01*
X0161533Y0052558D01*
X0161494Y0052523D01*
X0161453Y0052491D01*
X0161409Y0052462D01*
X0161364Y0052437D01*
X0161317Y0052415D01*
X0161268Y0052396D01*
X0161218Y0052382D01*
X0161167Y0052371D01*
X0161115Y0052364D01*
X0161063Y0052361D01*
X0161011Y0052362D01*
X0160959Y0052367D01*
X0160908Y0052376D01*
X0160857Y0052389D01*
X0160808Y0052405D01*
X0160759Y0052425D01*
X0160713Y0052449D01*
X0160669Y0052476D01*
X0160626Y0052507D01*
X0160586Y0052540D01*
X0160549Y0052577D01*
X0160515Y0052616D01*
X0160484Y0052658D01*
X0160455Y0052702D01*
X0160431Y0052748D01*
X0160410Y0052795D01*
X0160392Y0052845D01*
X0160379Y0052895D01*
X0160369Y0052946D01*
X0160363Y0052998D01*
X0160361Y0053050D01*
X0163361Y0053050D02*
X0163363Y0053102D01*
X0163369Y0053154D01*
X0163379Y0053205D01*
X0163392Y0053255D01*
X0163410Y0053305D01*
X0163431Y0053352D01*
X0163455Y0053398D01*
X0163484Y0053442D01*
X0163515Y0053484D01*
X0163549Y0053523D01*
X0163586Y0053560D01*
X0163626Y0053593D01*
X0163669Y0053624D01*
X0163713Y0053651D01*
X0163759Y0053675D01*
X0163808Y0053695D01*
X0163857Y0053711D01*
X0163908Y0053724D01*
X0163959Y0053733D01*
X0164011Y0053738D01*
X0164063Y0053739D01*
X0164115Y0053736D01*
X0164167Y0053729D01*
X0164218Y0053718D01*
X0164268Y0053704D01*
X0164317Y0053685D01*
X0164364Y0053663D01*
X0164409Y0053638D01*
X0164453Y0053609D01*
X0164494Y0053577D01*
X0164533Y0053542D01*
X0164568Y0053504D01*
X0164601Y0053463D01*
X0164631Y0053421D01*
X0164657Y0053376D01*
X0164680Y0053329D01*
X0164699Y0053280D01*
X0164715Y0053230D01*
X0164727Y0053180D01*
X0164735Y0053128D01*
X0164739Y0053076D01*
X0164739Y0053024D01*
X0164735Y0052972D01*
X0164727Y0052920D01*
X0164715Y0052870D01*
X0164699Y0052820D01*
X0164680Y0052771D01*
X0164657Y0052724D01*
X0164631Y0052679D01*
X0164601Y0052637D01*
X0164568Y0052596D01*
X0164533Y0052558D01*
X0164494Y0052523D01*
X0164453Y0052491D01*
X0164409Y0052462D01*
X0164364Y0052437D01*
X0164317Y0052415D01*
X0164268Y0052396D01*
X0164218Y0052382D01*
X0164167Y0052371D01*
X0164115Y0052364D01*
X0164063Y0052361D01*
X0164011Y0052362D01*
X0163959Y0052367D01*
X0163908Y0052376D01*
X0163857Y0052389D01*
X0163808Y0052405D01*
X0163759Y0052425D01*
X0163713Y0052449D01*
X0163669Y0052476D01*
X0163626Y0052507D01*
X0163586Y0052540D01*
X0163549Y0052577D01*
X0163515Y0052616D01*
X0163484Y0052658D01*
X0163455Y0052702D01*
X0163431Y0052748D01*
X0163410Y0052795D01*
X0163392Y0052845D01*
X0163379Y0052895D01*
X0163369Y0052946D01*
X0163363Y0052998D01*
X0163361Y0053050D01*
X0144361Y0042050D02*
X0144363Y0042102D01*
X0144369Y0042154D01*
X0144379Y0042205D01*
X0144392Y0042255D01*
X0144410Y0042305D01*
X0144431Y0042352D01*
X0144455Y0042398D01*
X0144484Y0042442D01*
X0144515Y0042484D01*
X0144549Y0042523D01*
X0144586Y0042560D01*
X0144626Y0042593D01*
X0144669Y0042624D01*
X0144713Y0042651D01*
X0144759Y0042675D01*
X0144808Y0042695D01*
X0144857Y0042711D01*
X0144908Y0042724D01*
X0144959Y0042733D01*
X0145011Y0042738D01*
X0145063Y0042739D01*
X0145115Y0042736D01*
X0145167Y0042729D01*
X0145218Y0042718D01*
X0145268Y0042704D01*
X0145317Y0042685D01*
X0145364Y0042663D01*
X0145409Y0042638D01*
X0145453Y0042609D01*
X0145494Y0042577D01*
X0145533Y0042542D01*
X0145568Y0042504D01*
X0145601Y0042463D01*
X0145631Y0042421D01*
X0145657Y0042376D01*
X0145680Y0042329D01*
X0145699Y0042280D01*
X0145715Y0042230D01*
X0145727Y0042180D01*
X0145735Y0042128D01*
X0145739Y0042076D01*
X0145739Y0042024D01*
X0145735Y0041972D01*
X0145727Y0041920D01*
X0145715Y0041870D01*
X0145699Y0041820D01*
X0145680Y0041771D01*
X0145657Y0041724D01*
X0145631Y0041679D01*
X0145601Y0041637D01*
X0145568Y0041596D01*
X0145533Y0041558D01*
X0145494Y0041523D01*
X0145453Y0041491D01*
X0145409Y0041462D01*
X0145364Y0041437D01*
X0145317Y0041415D01*
X0145268Y0041396D01*
X0145218Y0041382D01*
X0145167Y0041371D01*
X0145115Y0041364D01*
X0145063Y0041361D01*
X0145011Y0041362D01*
X0144959Y0041367D01*
X0144908Y0041376D01*
X0144857Y0041389D01*
X0144808Y0041405D01*
X0144759Y0041425D01*
X0144713Y0041449D01*
X0144669Y0041476D01*
X0144626Y0041507D01*
X0144586Y0041540D01*
X0144549Y0041577D01*
X0144515Y0041616D01*
X0144484Y0041658D01*
X0144455Y0041702D01*
X0144431Y0041748D01*
X0144410Y0041795D01*
X0144392Y0041845D01*
X0144379Y0041895D01*
X0144369Y0041946D01*
X0144363Y0041998D01*
X0144361Y0042050D01*
X0144361Y0039550D02*
X0144363Y0039602D01*
X0144369Y0039654D01*
X0144379Y0039705D01*
X0144392Y0039755D01*
X0144410Y0039805D01*
X0144431Y0039852D01*
X0144455Y0039898D01*
X0144484Y0039942D01*
X0144515Y0039984D01*
X0144549Y0040023D01*
X0144586Y0040060D01*
X0144626Y0040093D01*
X0144669Y0040124D01*
X0144713Y0040151D01*
X0144759Y0040175D01*
X0144808Y0040195D01*
X0144857Y0040211D01*
X0144908Y0040224D01*
X0144959Y0040233D01*
X0145011Y0040238D01*
X0145063Y0040239D01*
X0145115Y0040236D01*
X0145167Y0040229D01*
X0145218Y0040218D01*
X0145268Y0040204D01*
X0145317Y0040185D01*
X0145364Y0040163D01*
X0145409Y0040138D01*
X0145453Y0040109D01*
X0145494Y0040077D01*
X0145533Y0040042D01*
X0145568Y0040004D01*
X0145601Y0039963D01*
X0145631Y0039921D01*
X0145657Y0039876D01*
X0145680Y0039829D01*
X0145699Y0039780D01*
X0145715Y0039730D01*
X0145727Y0039680D01*
X0145735Y0039628D01*
X0145739Y0039576D01*
X0145739Y0039524D01*
X0145735Y0039472D01*
X0145727Y0039420D01*
X0145715Y0039370D01*
X0145699Y0039320D01*
X0145680Y0039271D01*
X0145657Y0039224D01*
X0145631Y0039179D01*
X0145601Y0039137D01*
X0145568Y0039096D01*
X0145533Y0039058D01*
X0145494Y0039023D01*
X0145453Y0038991D01*
X0145409Y0038962D01*
X0145364Y0038937D01*
X0145317Y0038915D01*
X0145268Y0038896D01*
X0145218Y0038882D01*
X0145167Y0038871D01*
X0145115Y0038864D01*
X0145063Y0038861D01*
X0145011Y0038862D01*
X0144959Y0038867D01*
X0144908Y0038876D01*
X0144857Y0038889D01*
X0144808Y0038905D01*
X0144759Y0038925D01*
X0144713Y0038949D01*
X0144669Y0038976D01*
X0144626Y0039007D01*
X0144586Y0039040D01*
X0144549Y0039077D01*
X0144515Y0039116D01*
X0144484Y0039158D01*
X0144455Y0039202D01*
X0144431Y0039248D01*
X0144410Y0039295D01*
X0144392Y0039345D01*
X0144379Y0039395D01*
X0144369Y0039446D01*
X0144363Y0039498D01*
X0144361Y0039550D01*
X0160361Y0029050D02*
X0160363Y0029102D01*
X0160369Y0029154D01*
X0160379Y0029205D01*
X0160392Y0029255D01*
X0160410Y0029305D01*
X0160431Y0029352D01*
X0160455Y0029398D01*
X0160484Y0029442D01*
X0160515Y0029484D01*
X0160549Y0029523D01*
X0160586Y0029560D01*
X0160626Y0029593D01*
X0160669Y0029624D01*
X0160713Y0029651D01*
X0160759Y0029675D01*
X0160808Y0029695D01*
X0160857Y0029711D01*
X0160908Y0029724D01*
X0160959Y0029733D01*
X0161011Y0029738D01*
X0161063Y0029739D01*
X0161115Y0029736D01*
X0161167Y0029729D01*
X0161218Y0029718D01*
X0161268Y0029704D01*
X0161317Y0029685D01*
X0161364Y0029663D01*
X0161409Y0029638D01*
X0161453Y0029609D01*
X0161494Y0029577D01*
X0161533Y0029542D01*
X0161568Y0029504D01*
X0161601Y0029463D01*
X0161631Y0029421D01*
X0161657Y0029376D01*
X0161680Y0029329D01*
X0161699Y0029280D01*
X0161715Y0029230D01*
X0161727Y0029180D01*
X0161735Y0029128D01*
X0161739Y0029076D01*
X0161739Y0029024D01*
X0161735Y0028972D01*
X0161727Y0028920D01*
X0161715Y0028870D01*
X0161699Y0028820D01*
X0161680Y0028771D01*
X0161657Y0028724D01*
X0161631Y0028679D01*
X0161601Y0028637D01*
X0161568Y0028596D01*
X0161533Y0028558D01*
X0161494Y0028523D01*
X0161453Y0028491D01*
X0161409Y0028462D01*
X0161364Y0028437D01*
X0161317Y0028415D01*
X0161268Y0028396D01*
X0161218Y0028382D01*
X0161167Y0028371D01*
X0161115Y0028364D01*
X0161063Y0028361D01*
X0161011Y0028362D01*
X0160959Y0028367D01*
X0160908Y0028376D01*
X0160857Y0028389D01*
X0160808Y0028405D01*
X0160759Y0028425D01*
X0160713Y0028449D01*
X0160669Y0028476D01*
X0160626Y0028507D01*
X0160586Y0028540D01*
X0160549Y0028577D01*
X0160515Y0028616D01*
X0160484Y0028658D01*
X0160455Y0028702D01*
X0160431Y0028748D01*
X0160410Y0028795D01*
X0160392Y0028845D01*
X0160379Y0028895D01*
X0160369Y0028946D01*
X0160363Y0028998D01*
X0160361Y0029050D01*
X0163361Y0029050D02*
X0163363Y0029102D01*
X0163369Y0029154D01*
X0163379Y0029205D01*
X0163392Y0029255D01*
X0163410Y0029305D01*
X0163431Y0029352D01*
X0163455Y0029398D01*
X0163484Y0029442D01*
X0163515Y0029484D01*
X0163549Y0029523D01*
X0163586Y0029560D01*
X0163626Y0029593D01*
X0163669Y0029624D01*
X0163713Y0029651D01*
X0163759Y0029675D01*
X0163808Y0029695D01*
X0163857Y0029711D01*
X0163908Y0029724D01*
X0163959Y0029733D01*
X0164011Y0029738D01*
X0164063Y0029739D01*
X0164115Y0029736D01*
X0164167Y0029729D01*
X0164218Y0029718D01*
X0164268Y0029704D01*
X0164317Y0029685D01*
X0164364Y0029663D01*
X0164409Y0029638D01*
X0164453Y0029609D01*
X0164494Y0029577D01*
X0164533Y0029542D01*
X0164568Y0029504D01*
X0164601Y0029463D01*
X0164631Y0029421D01*
X0164657Y0029376D01*
X0164680Y0029329D01*
X0164699Y0029280D01*
X0164715Y0029230D01*
X0164727Y0029180D01*
X0164735Y0029128D01*
X0164739Y0029076D01*
X0164739Y0029024D01*
X0164735Y0028972D01*
X0164727Y0028920D01*
X0164715Y0028870D01*
X0164699Y0028820D01*
X0164680Y0028771D01*
X0164657Y0028724D01*
X0164631Y0028679D01*
X0164601Y0028637D01*
X0164568Y0028596D01*
X0164533Y0028558D01*
X0164494Y0028523D01*
X0164453Y0028491D01*
X0164409Y0028462D01*
X0164364Y0028437D01*
X0164317Y0028415D01*
X0164268Y0028396D01*
X0164218Y0028382D01*
X0164167Y0028371D01*
X0164115Y0028364D01*
X0164063Y0028361D01*
X0164011Y0028362D01*
X0163959Y0028367D01*
X0163908Y0028376D01*
X0163857Y0028389D01*
X0163808Y0028405D01*
X0163759Y0028425D01*
X0163713Y0028449D01*
X0163669Y0028476D01*
X0163626Y0028507D01*
X0163586Y0028540D01*
X0163549Y0028577D01*
X0163515Y0028616D01*
X0163484Y0028658D01*
X0163455Y0028702D01*
X0163431Y0028748D01*
X0163410Y0028795D01*
X0163392Y0028845D01*
X0163379Y0028895D01*
X0163369Y0028946D01*
X0163363Y0028998D01*
X0163361Y0029050D01*
X0144361Y0020050D02*
X0144363Y0020102D01*
X0144369Y0020154D01*
X0144379Y0020205D01*
X0144392Y0020255D01*
X0144410Y0020305D01*
X0144431Y0020352D01*
X0144455Y0020398D01*
X0144484Y0020442D01*
X0144515Y0020484D01*
X0144549Y0020523D01*
X0144586Y0020560D01*
X0144626Y0020593D01*
X0144669Y0020624D01*
X0144713Y0020651D01*
X0144759Y0020675D01*
X0144808Y0020695D01*
X0144857Y0020711D01*
X0144908Y0020724D01*
X0144959Y0020733D01*
X0145011Y0020738D01*
X0145063Y0020739D01*
X0145115Y0020736D01*
X0145167Y0020729D01*
X0145218Y0020718D01*
X0145268Y0020704D01*
X0145317Y0020685D01*
X0145364Y0020663D01*
X0145409Y0020638D01*
X0145453Y0020609D01*
X0145494Y0020577D01*
X0145533Y0020542D01*
X0145568Y0020504D01*
X0145601Y0020463D01*
X0145631Y0020421D01*
X0145657Y0020376D01*
X0145680Y0020329D01*
X0145699Y0020280D01*
X0145715Y0020230D01*
X0145727Y0020180D01*
X0145735Y0020128D01*
X0145739Y0020076D01*
X0145739Y0020024D01*
X0145735Y0019972D01*
X0145727Y0019920D01*
X0145715Y0019870D01*
X0145699Y0019820D01*
X0145680Y0019771D01*
X0145657Y0019724D01*
X0145631Y0019679D01*
X0145601Y0019637D01*
X0145568Y0019596D01*
X0145533Y0019558D01*
X0145494Y0019523D01*
X0145453Y0019491D01*
X0145409Y0019462D01*
X0145364Y0019437D01*
X0145317Y0019415D01*
X0145268Y0019396D01*
X0145218Y0019382D01*
X0145167Y0019371D01*
X0145115Y0019364D01*
X0145063Y0019361D01*
X0145011Y0019362D01*
X0144959Y0019367D01*
X0144908Y0019376D01*
X0144857Y0019389D01*
X0144808Y0019405D01*
X0144759Y0019425D01*
X0144713Y0019449D01*
X0144669Y0019476D01*
X0144626Y0019507D01*
X0144586Y0019540D01*
X0144549Y0019577D01*
X0144515Y0019616D01*
X0144484Y0019658D01*
X0144455Y0019702D01*
X0144431Y0019748D01*
X0144410Y0019795D01*
X0144392Y0019845D01*
X0144379Y0019895D01*
X0144369Y0019946D01*
X0144363Y0019998D01*
X0144361Y0020050D01*
X0144361Y0017050D02*
X0144363Y0017102D01*
X0144369Y0017154D01*
X0144379Y0017205D01*
X0144392Y0017255D01*
X0144410Y0017305D01*
X0144431Y0017352D01*
X0144455Y0017398D01*
X0144484Y0017442D01*
X0144515Y0017484D01*
X0144549Y0017523D01*
X0144586Y0017560D01*
X0144626Y0017593D01*
X0144669Y0017624D01*
X0144713Y0017651D01*
X0144759Y0017675D01*
X0144808Y0017695D01*
X0144857Y0017711D01*
X0144908Y0017724D01*
X0144959Y0017733D01*
X0145011Y0017738D01*
X0145063Y0017739D01*
X0145115Y0017736D01*
X0145167Y0017729D01*
X0145218Y0017718D01*
X0145268Y0017704D01*
X0145317Y0017685D01*
X0145364Y0017663D01*
X0145409Y0017638D01*
X0145453Y0017609D01*
X0145494Y0017577D01*
X0145533Y0017542D01*
X0145568Y0017504D01*
X0145601Y0017463D01*
X0145631Y0017421D01*
X0145657Y0017376D01*
X0145680Y0017329D01*
X0145699Y0017280D01*
X0145715Y0017230D01*
X0145727Y0017180D01*
X0145735Y0017128D01*
X0145739Y0017076D01*
X0145739Y0017024D01*
X0145735Y0016972D01*
X0145727Y0016920D01*
X0145715Y0016870D01*
X0145699Y0016820D01*
X0145680Y0016771D01*
X0145657Y0016724D01*
X0145631Y0016679D01*
X0145601Y0016637D01*
X0145568Y0016596D01*
X0145533Y0016558D01*
X0145494Y0016523D01*
X0145453Y0016491D01*
X0145409Y0016462D01*
X0145364Y0016437D01*
X0145317Y0016415D01*
X0145268Y0016396D01*
X0145218Y0016382D01*
X0145167Y0016371D01*
X0145115Y0016364D01*
X0145063Y0016361D01*
X0145011Y0016362D01*
X0144959Y0016367D01*
X0144908Y0016376D01*
X0144857Y0016389D01*
X0144808Y0016405D01*
X0144759Y0016425D01*
X0144713Y0016449D01*
X0144669Y0016476D01*
X0144626Y0016507D01*
X0144586Y0016540D01*
X0144549Y0016577D01*
X0144515Y0016616D01*
X0144484Y0016658D01*
X0144455Y0016702D01*
X0144431Y0016748D01*
X0144410Y0016795D01*
X0144392Y0016845D01*
X0144379Y0016895D01*
X0144369Y0016946D01*
X0144363Y0016998D01*
X0144361Y0017050D01*
X0191361Y0027550D02*
X0191363Y0027602D01*
X0191369Y0027654D01*
X0191379Y0027705D01*
X0191392Y0027755D01*
X0191410Y0027805D01*
X0191431Y0027852D01*
X0191455Y0027898D01*
X0191484Y0027942D01*
X0191515Y0027984D01*
X0191549Y0028023D01*
X0191586Y0028060D01*
X0191626Y0028093D01*
X0191669Y0028124D01*
X0191713Y0028151D01*
X0191759Y0028175D01*
X0191808Y0028195D01*
X0191857Y0028211D01*
X0191908Y0028224D01*
X0191959Y0028233D01*
X0192011Y0028238D01*
X0192063Y0028239D01*
X0192115Y0028236D01*
X0192167Y0028229D01*
X0192218Y0028218D01*
X0192268Y0028204D01*
X0192317Y0028185D01*
X0192364Y0028163D01*
X0192409Y0028138D01*
X0192453Y0028109D01*
X0192494Y0028077D01*
X0192533Y0028042D01*
X0192568Y0028004D01*
X0192601Y0027963D01*
X0192631Y0027921D01*
X0192657Y0027876D01*
X0192680Y0027829D01*
X0192699Y0027780D01*
X0192715Y0027730D01*
X0192727Y0027680D01*
X0192735Y0027628D01*
X0192739Y0027576D01*
X0192739Y0027524D01*
X0192735Y0027472D01*
X0192727Y0027420D01*
X0192715Y0027370D01*
X0192699Y0027320D01*
X0192680Y0027271D01*
X0192657Y0027224D01*
X0192631Y0027179D01*
X0192601Y0027137D01*
X0192568Y0027096D01*
X0192533Y0027058D01*
X0192494Y0027023D01*
X0192453Y0026991D01*
X0192409Y0026962D01*
X0192364Y0026937D01*
X0192317Y0026915D01*
X0192268Y0026896D01*
X0192218Y0026882D01*
X0192167Y0026871D01*
X0192115Y0026864D01*
X0192063Y0026861D01*
X0192011Y0026862D01*
X0191959Y0026867D01*
X0191908Y0026876D01*
X0191857Y0026889D01*
X0191808Y0026905D01*
X0191759Y0026925D01*
X0191713Y0026949D01*
X0191669Y0026976D01*
X0191626Y0027007D01*
X0191586Y0027040D01*
X0191549Y0027077D01*
X0191515Y0027116D01*
X0191484Y0027158D01*
X0191455Y0027202D01*
X0191431Y0027248D01*
X0191410Y0027295D01*
X0191392Y0027345D01*
X0191379Y0027395D01*
X0191369Y0027446D01*
X0191363Y0027498D01*
X0191361Y0027550D01*
X0194361Y0027550D02*
X0194363Y0027602D01*
X0194369Y0027654D01*
X0194379Y0027705D01*
X0194392Y0027755D01*
X0194410Y0027805D01*
X0194431Y0027852D01*
X0194455Y0027898D01*
X0194484Y0027942D01*
X0194515Y0027984D01*
X0194549Y0028023D01*
X0194586Y0028060D01*
X0194626Y0028093D01*
X0194669Y0028124D01*
X0194713Y0028151D01*
X0194759Y0028175D01*
X0194808Y0028195D01*
X0194857Y0028211D01*
X0194908Y0028224D01*
X0194959Y0028233D01*
X0195011Y0028238D01*
X0195063Y0028239D01*
X0195115Y0028236D01*
X0195167Y0028229D01*
X0195218Y0028218D01*
X0195268Y0028204D01*
X0195317Y0028185D01*
X0195364Y0028163D01*
X0195409Y0028138D01*
X0195453Y0028109D01*
X0195494Y0028077D01*
X0195533Y0028042D01*
X0195568Y0028004D01*
X0195601Y0027963D01*
X0195631Y0027921D01*
X0195657Y0027876D01*
X0195680Y0027829D01*
X0195699Y0027780D01*
X0195715Y0027730D01*
X0195727Y0027680D01*
X0195735Y0027628D01*
X0195739Y0027576D01*
X0195739Y0027524D01*
X0195735Y0027472D01*
X0195727Y0027420D01*
X0195715Y0027370D01*
X0195699Y0027320D01*
X0195680Y0027271D01*
X0195657Y0027224D01*
X0195631Y0027179D01*
X0195601Y0027137D01*
X0195568Y0027096D01*
X0195533Y0027058D01*
X0195494Y0027023D01*
X0195453Y0026991D01*
X0195409Y0026962D01*
X0195364Y0026937D01*
X0195317Y0026915D01*
X0195268Y0026896D01*
X0195218Y0026882D01*
X0195167Y0026871D01*
X0195115Y0026864D01*
X0195063Y0026861D01*
X0195011Y0026862D01*
X0194959Y0026867D01*
X0194908Y0026876D01*
X0194857Y0026889D01*
X0194808Y0026905D01*
X0194759Y0026925D01*
X0194713Y0026949D01*
X0194669Y0026976D01*
X0194626Y0027007D01*
X0194586Y0027040D01*
X0194549Y0027077D01*
X0194515Y0027116D01*
X0194484Y0027158D01*
X0194455Y0027202D01*
X0194431Y0027248D01*
X0194410Y0027295D01*
X0194392Y0027345D01*
X0194379Y0027395D01*
X0194369Y0027446D01*
X0194363Y0027498D01*
X0194361Y0027550D01*
X0194361Y0046550D02*
X0194363Y0046602D01*
X0194369Y0046654D01*
X0194379Y0046705D01*
X0194392Y0046755D01*
X0194410Y0046805D01*
X0194431Y0046852D01*
X0194455Y0046898D01*
X0194484Y0046942D01*
X0194515Y0046984D01*
X0194549Y0047023D01*
X0194586Y0047060D01*
X0194626Y0047093D01*
X0194669Y0047124D01*
X0194713Y0047151D01*
X0194759Y0047175D01*
X0194808Y0047195D01*
X0194857Y0047211D01*
X0194908Y0047224D01*
X0194959Y0047233D01*
X0195011Y0047238D01*
X0195063Y0047239D01*
X0195115Y0047236D01*
X0195167Y0047229D01*
X0195218Y0047218D01*
X0195268Y0047204D01*
X0195317Y0047185D01*
X0195364Y0047163D01*
X0195409Y0047138D01*
X0195453Y0047109D01*
X0195494Y0047077D01*
X0195533Y0047042D01*
X0195568Y0047004D01*
X0195601Y0046963D01*
X0195631Y0046921D01*
X0195657Y0046876D01*
X0195680Y0046829D01*
X0195699Y0046780D01*
X0195715Y0046730D01*
X0195727Y0046680D01*
X0195735Y0046628D01*
X0195739Y0046576D01*
X0195739Y0046524D01*
X0195735Y0046472D01*
X0195727Y0046420D01*
X0195715Y0046370D01*
X0195699Y0046320D01*
X0195680Y0046271D01*
X0195657Y0046224D01*
X0195631Y0046179D01*
X0195601Y0046137D01*
X0195568Y0046096D01*
X0195533Y0046058D01*
X0195494Y0046023D01*
X0195453Y0045991D01*
X0195409Y0045962D01*
X0195364Y0045937D01*
X0195317Y0045915D01*
X0195268Y0045896D01*
X0195218Y0045882D01*
X0195167Y0045871D01*
X0195115Y0045864D01*
X0195063Y0045861D01*
X0195011Y0045862D01*
X0194959Y0045867D01*
X0194908Y0045876D01*
X0194857Y0045889D01*
X0194808Y0045905D01*
X0194759Y0045925D01*
X0194713Y0045949D01*
X0194669Y0045976D01*
X0194626Y0046007D01*
X0194586Y0046040D01*
X0194549Y0046077D01*
X0194515Y0046116D01*
X0194484Y0046158D01*
X0194455Y0046202D01*
X0194431Y0046248D01*
X0194410Y0046295D01*
X0194392Y0046345D01*
X0194379Y0046395D01*
X0194369Y0046446D01*
X0194363Y0046498D01*
X0194361Y0046550D01*
X0191361Y0046550D02*
X0191363Y0046602D01*
X0191369Y0046654D01*
X0191379Y0046705D01*
X0191392Y0046755D01*
X0191410Y0046805D01*
X0191431Y0046852D01*
X0191455Y0046898D01*
X0191484Y0046942D01*
X0191515Y0046984D01*
X0191549Y0047023D01*
X0191586Y0047060D01*
X0191626Y0047093D01*
X0191669Y0047124D01*
X0191713Y0047151D01*
X0191759Y0047175D01*
X0191808Y0047195D01*
X0191857Y0047211D01*
X0191908Y0047224D01*
X0191959Y0047233D01*
X0192011Y0047238D01*
X0192063Y0047239D01*
X0192115Y0047236D01*
X0192167Y0047229D01*
X0192218Y0047218D01*
X0192268Y0047204D01*
X0192317Y0047185D01*
X0192364Y0047163D01*
X0192409Y0047138D01*
X0192453Y0047109D01*
X0192494Y0047077D01*
X0192533Y0047042D01*
X0192568Y0047004D01*
X0192601Y0046963D01*
X0192631Y0046921D01*
X0192657Y0046876D01*
X0192680Y0046829D01*
X0192699Y0046780D01*
X0192715Y0046730D01*
X0192727Y0046680D01*
X0192735Y0046628D01*
X0192739Y0046576D01*
X0192739Y0046524D01*
X0192735Y0046472D01*
X0192727Y0046420D01*
X0192715Y0046370D01*
X0192699Y0046320D01*
X0192680Y0046271D01*
X0192657Y0046224D01*
X0192631Y0046179D01*
X0192601Y0046137D01*
X0192568Y0046096D01*
X0192533Y0046058D01*
X0192494Y0046023D01*
X0192453Y0045991D01*
X0192409Y0045962D01*
X0192364Y0045937D01*
X0192317Y0045915D01*
X0192268Y0045896D01*
X0192218Y0045882D01*
X0192167Y0045871D01*
X0192115Y0045864D01*
X0192063Y0045861D01*
X0192011Y0045862D01*
X0191959Y0045867D01*
X0191908Y0045876D01*
X0191857Y0045889D01*
X0191808Y0045905D01*
X0191759Y0045925D01*
X0191713Y0045949D01*
X0191669Y0045976D01*
X0191626Y0046007D01*
X0191586Y0046040D01*
X0191549Y0046077D01*
X0191515Y0046116D01*
X0191484Y0046158D01*
X0191455Y0046202D01*
X0191431Y0046248D01*
X0191410Y0046295D01*
X0191392Y0046345D01*
X0191379Y0046395D01*
X0191369Y0046446D01*
X0191363Y0046498D01*
X0191361Y0046550D01*
X0191361Y0065550D02*
X0191363Y0065602D01*
X0191369Y0065654D01*
X0191379Y0065705D01*
X0191392Y0065755D01*
X0191410Y0065805D01*
X0191431Y0065852D01*
X0191455Y0065898D01*
X0191484Y0065942D01*
X0191515Y0065984D01*
X0191549Y0066023D01*
X0191586Y0066060D01*
X0191626Y0066093D01*
X0191669Y0066124D01*
X0191713Y0066151D01*
X0191759Y0066175D01*
X0191808Y0066195D01*
X0191857Y0066211D01*
X0191908Y0066224D01*
X0191959Y0066233D01*
X0192011Y0066238D01*
X0192063Y0066239D01*
X0192115Y0066236D01*
X0192167Y0066229D01*
X0192218Y0066218D01*
X0192268Y0066204D01*
X0192317Y0066185D01*
X0192364Y0066163D01*
X0192409Y0066138D01*
X0192453Y0066109D01*
X0192494Y0066077D01*
X0192533Y0066042D01*
X0192568Y0066004D01*
X0192601Y0065963D01*
X0192631Y0065921D01*
X0192657Y0065876D01*
X0192680Y0065829D01*
X0192699Y0065780D01*
X0192715Y0065730D01*
X0192727Y0065680D01*
X0192735Y0065628D01*
X0192739Y0065576D01*
X0192739Y0065524D01*
X0192735Y0065472D01*
X0192727Y0065420D01*
X0192715Y0065370D01*
X0192699Y0065320D01*
X0192680Y0065271D01*
X0192657Y0065224D01*
X0192631Y0065179D01*
X0192601Y0065137D01*
X0192568Y0065096D01*
X0192533Y0065058D01*
X0192494Y0065023D01*
X0192453Y0064991D01*
X0192409Y0064962D01*
X0192364Y0064937D01*
X0192317Y0064915D01*
X0192268Y0064896D01*
X0192218Y0064882D01*
X0192167Y0064871D01*
X0192115Y0064864D01*
X0192063Y0064861D01*
X0192011Y0064862D01*
X0191959Y0064867D01*
X0191908Y0064876D01*
X0191857Y0064889D01*
X0191808Y0064905D01*
X0191759Y0064925D01*
X0191713Y0064949D01*
X0191669Y0064976D01*
X0191626Y0065007D01*
X0191586Y0065040D01*
X0191549Y0065077D01*
X0191515Y0065116D01*
X0191484Y0065158D01*
X0191455Y0065202D01*
X0191431Y0065248D01*
X0191410Y0065295D01*
X0191392Y0065345D01*
X0191379Y0065395D01*
X0191369Y0065446D01*
X0191363Y0065498D01*
X0191361Y0065550D01*
X0194361Y0065550D02*
X0194363Y0065602D01*
X0194369Y0065654D01*
X0194379Y0065705D01*
X0194392Y0065755D01*
X0194410Y0065805D01*
X0194431Y0065852D01*
X0194455Y0065898D01*
X0194484Y0065942D01*
X0194515Y0065984D01*
X0194549Y0066023D01*
X0194586Y0066060D01*
X0194626Y0066093D01*
X0194669Y0066124D01*
X0194713Y0066151D01*
X0194759Y0066175D01*
X0194808Y0066195D01*
X0194857Y0066211D01*
X0194908Y0066224D01*
X0194959Y0066233D01*
X0195011Y0066238D01*
X0195063Y0066239D01*
X0195115Y0066236D01*
X0195167Y0066229D01*
X0195218Y0066218D01*
X0195268Y0066204D01*
X0195317Y0066185D01*
X0195364Y0066163D01*
X0195409Y0066138D01*
X0195453Y0066109D01*
X0195494Y0066077D01*
X0195533Y0066042D01*
X0195568Y0066004D01*
X0195601Y0065963D01*
X0195631Y0065921D01*
X0195657Y0065876D01*
X0195680Y0065829D01*
X0195699Y0065780D01*
X0195715Y0065730D01*
X0195727Y0065680D01*
X0195735Y0065628D01*
X0195739Y0065576D01*
X0195739Y0065524D01*
X0195735Y0065472D01*
X0195727Y0065420D01*
X0195715Y0065370D01*
X0195699Y0065320D01*
X0195680Y0065271D01*
X0195657Y0065224D01*
X0195631Y0065179D01*
X0195601Y0065137D01*
X0195568Y0065096D01*
X0195533Y0065058D01*
X0195494Y0065023D01*
X0195453Y0064991D01*
X0195409Y0064962D01*
X0195364Y0064937D01*
X0195317Y0064915D01*
X0195268Y0064896D01*
X0195218Y0064882D01*
X0195167Y0064871D01*
X0195115Y0064864D01*
X0195063Y0064861D01*
X0195011Y0064862D01*
X0194959Y0064867D01*
X0194908Y0064876D01*
X0194857Y0064889D01*
X0194808Y0064905D01*
X0194759Y0064925D01*
X0194713Y0064949D01*
X0194669Y0064976D01*
X0194626Y0065007D01*
X0194586Y0065040D01*
X0194549Y0065077D01*
X0194515Y0065116D01*
X0194484Y0065158D01*
X0194455Y0065202D01*
X0194431Y0065248D01*
X0194410Y0065295D01*
X0194392Y0065345D01*
X0194379Y0065395D01*
X0194369Y0065446D01*
X0194363Y0065498D01*
X0194361Y0065550D01*
X0193361Y0082050D02*
X0193363Y0082102D01*
X0193369Y0082154D01*
X0193379Y0082205D01*
X0193392Y0082255D01*
X0193410Y0082305D01*
X0193431Y0082352D01*
X0193455Y0082398D01*
X0193484Y0082442D01*
X0193515Y0082484D01*
X0193549Y0082523D01*
X0193586Y0082560D01*
X0193626Y0082593D01*
X0193669Y0082624D01*
X0193713Y0082651D01*
X0193759Y0082675D01*
X0193808Y0082695D01*
X0193857Y0082711D01*
X0193908Y0082724D01*
X0193959Y0082733D01*
X0194011Y0082738D01*
X0194063Y0082739D01*
X0194115Y0082736D01*
X0194167Y0082729D01*
X0194218Y0082718D01*
X0194268Y0082704D01*
X0194317Y0082685D01*
X0194364Y0082663D01*
X0194409Y0082638D01*
X0194453Y0082609D01*
X0194494Y0082577D01*
X0194533Y0082542D01*
X0194568Y0082504D01*
X0194601Y0082463D01*
X0194631Y0082421D01*
X0194657Y0082376D01*
X0194680Y0082329D01*
X0194699Y0082280D01*
X0194715Y0082230D01*
X0194727Y0082180D01*
X0194735Y0082128D01*
X0194739Y0082076D01*
X0194739Y0082024D01*
X0194735Y0081972D01*
X0194727Y0081920D01*
X0194715Y0081870D01*
X0194699Y0081820D01*
X0194680Y0081771D01*
X0194657Y0081724D01*
X0194631Y0081679D01*
X0194601Y0081637D01*
X0194568Y0081596D01*
X0194533Y0081558D01*
X0194494Y0081523D01*
X0194453Y0081491D01*
X0194409Y0081462D01*
X0194364Y0081437D01*
X0194317Y0081415D01*
X0194268Y0081396D01*
X0194218Y0081382D01*
X0194167Y0081371D01*
X0194115Y0081364D01*
X0194063Y0081361D01*
X0194011Y0081362D01*
X0193959Y0081367D01*
X0193908Y0081376D01*
X0193857Y0081389D01*
X0193808Y0081405D01*
X0193759Y0081425D01*
X0193713Y0081449D01*
X0193669Y0081476D01*
X0193626Y0081507D01*
X0193586Y0081540D01*
X0193549Y0081577D01*
X0193515Y0081616D01*
X0193484Y0081658D01*
X0193455Y0081702D01*
X0193431Y0081748D01*
X0193410Y0081795D01*
X0193392Y0081845D01*
X0193379Y0081895D01*
X0193369Y0081946D01*
X0193363Y0081998D01*
X0193361Y0082050D01*
X0190361Y0082050D02*
X0190363Y0082102D01*
X0190369Y0082154D01*
X0190379Y0082205D01*
X0190392Y0082255D01*
X0190410Y0082305D01*
X0190431Y0082352D01*
X0190455Y0082398D01*
X0190484Y0082442D01*
X0190515Y0082484D01*
X0190549Y0082523D01*
X0190586Y0082560D01*
X0190626Y0082593D01*
X0190669Y0082624D01*
X0190713Y0082651D01*
X0190759Y0082675D01*
X0190808Y0082695D01*
X0190857Y0082711D01*
X0190908Y0082724D01*
X0190959Y0082733D01*
X0191011Y0082738D01*
X0191063Y0082739D01*
X0191115Y0082736D01*
X0191167Y0082729D01*
X0191218Y0082718D01*
X0191268Y0082704D01*
X0191317Y0082685D01*
X0191364Y0082663D01*
X0191409Y0082638D01*
X0191453Y0082609D01*
X0191494Y0082577D01*
X0191533Y0082542D01*
X0191568Y0082504D01*
X0191601Y0082463D01*
X0191631Y0082421D01*
X0191657Y0082376D01*
X0191680Y0082329D01*
X0191699Y0082280D01*
X0191715Y0082230D01*
X0191727Y0082180D01*
X0191735Y0082128D01*
X0191739Y0082076D01*
X0191739Y0082024D01*
X0191735Y0081972D01*
X0191727Y0081920D01*
X0191715Y0081870D01*
X0191699Y0081820D01*
X0191680Y0081771D01*
X0191657Y0081724D01*
X0191631Y0081679D01*
X0191601Y0081637D01*
X0191568Y0081596D01*
X0191533Y0081558D01*
X0191494Y0081523D01*
X0191453Y0081491D01*
X0191409Y0081462D01*
X0191364Y0081437D01*
X0191317Y0081415D01*
X0191268Y0081396D01*
X0191218Y0081382D01*
X0191167Y0081371D01*
X0191115Y0081364D01*
X0191063Y0081361D01*
X0191011Y0081362D01*
X0190959Y0081367D01*
X0190908Y0081376D01*
X0190857Y0081389D01*
X0190808Y0081405D01*
X0190759Y0081425D01*
X0190713Y0081449D01*
X0190669Y0081476D01*
X0190626Y0081507D01*
X0190586Y0081540D01*
X0190549Y0081577D01*
X0190515Y0081616D01*
X0190484Y0081658D01*
X0190455Y0081702D01*
X0190431Y0081748D01*
X0190410Y0081795D01*
X0190392Y0081845D01*
X0190379Y0081895D01*
X0190369Y0081946D01*
X0190363Y0081998D01*
X0190361Y0082050D01*
X0163361Y0101050D02*
X0163363Y0101102D01*
X0163369Y0101154D01*
X0163379Y0101205D01*
X0163392Y0101255D01*
X0163410Y0101305D01*
X0163431Y0101352D01*
X0163455Y0101398D01*
X0163484Y0101442D01*
X0163515Y0101484D01*
X0163549Y0101523D01*
X0163586Y0101560D01*
X0163626Y0101593D01*
X0163669Y0101624D01*
X0163713Y0101651D01*
X0163759Y0101675D01*
X0163808Y0101695D01*
X0163857Y0101711D01*
X0163908Y0101724D01*
X0163959Y0101733D01*
X0164011Y0101738D01*
X0164063Y0101739D01*
X0164115Y0101736D01*
X0164167Y0101729D01*
X0164218Y0101718D01*
X0164268Y0101704D01*
X0164317Y0101685D01*
X0164364Y0101663D01*
X0164409Y0101638D01*
X0164453Y0101609D01*
X0164494Y0101577D01*
X0164533Y0101542D01*
X0164568Y0101504D01*
X0164601Y0101463D01*
X0164631Y0101421D01*
X0164657Y0101376D01*
X0164680Y0101329D01*
X0164699Y0101280D01*
X0164715Y0101230D01*
X0164727Y0101180D01*
X0164735Y0101128D01*
X0164739Y0101076D01*
X0164739Y0101024D01*
X0164735Y0100972D01*
X0164727Y0100920D01*
X0164715Y0100870D01*
X0164699Y0100820D01*
X0164680Y0100771D01*
X0164657Y0100724D01*
X0164631Y0100679D01*
X0164601Y0100637D01*
X0164568Y0100596D01*
X0164533Y0100558D01*
X0164494Y0100523D01*
X0164453Y0100491D01*
X0164409Y0100462D01*
X0164364Y0100437D01*
X0164317Y0100415D01*
X0164268Y0100396D01*
X0164218Y0100382D01*
X0164167Y0100371D01*
X0164115Y0100364D01*
X0164063Y0100361D01*
X0164011Y0100362D01*
X0163959Y0100367D01*
X0163908Y0100376D01*
X0163857Y0100389D01*
X0163808Y0100405D01*
X0163759Y0100425D01*
X0163713Y0100449D01*
X0163669Y0100476D01*
X0163626Y0100507D01*
X0163586Y0100540D01*
X0163549Y0100577D01*
X0163515Y0100616D01*
X0163484Y0100658D01*
X0163455Y0100702D01*
X0163431Y0100748D01*
X0163410Y0100795D01*
X0163392Y0100845D01*
X0163379Y0100895D01*
X0163369Y0100946D01*
X0163363Y0100998D01*
X0163361Y0101050D01*
X0160361Y0101050D02*
X0160363Y0101102D01*
X0160369Y0101154D01*
X0160379Y0101205D01*
X0160392Y0101255D01*
X0160410Y0101305D01*
X0160431Y0101352D01*
X0160455Y0101398D01*
X0160484Y0101442D01*
X0160515Y0101484D01*
X0160549Y0101523D01*
X0160586Y0101560D01*
X0160626Y0101593D01*
X0160669Y0101624D01*
X0160713Y0101651D01*
X0160759Y0101675D01*
X0160808Y0101695D01*
X0160857Y0101711D01*
X0160908Y0101724D01*
X0160959Y0101733D01*
X0161011Y0101738D01*
X0161063Y0101739D01*
X0161115Y0101736D01*
X0161167Y0101729D01*
X0161218Y0101718D01*
X0161268Y0101704D01*
X0161317Y0101685D01*
X0161364Y0101663D01*
X0161409Y0101638D01*
X0161453Y0101609D01*
X0161494Y0101577D01*
X0161533Y0101542D01*
X0161568Y0101504D01*
X0161601Y0101463D01*
X0161631Y0101421D01*
X0161657Y0101376D01*
X0161680Y0101329D01*
X0161699Y0101280D01*
X0161715Y0101230D01*
X0161727Y0101180D01*
X0161735Y0101128D01*
X0161739Y0101076D01*
X0161739Y0101024D01*
X0161735Y0100972D01*
X0161727Y0100920D01*
X0161715Y0100870D01*
X0161699Y0100820D01*
X0161680Y0100771D01*
X0161657Y0100724D01*
X0161631Y0100679D01*
X0161601Y0100637D01*
X0161568Y0100596D01*
X0161533Y0100558D01*
X0161494Y0100523D01*
X0161453Y0100491D01*
X0161409Y0100462D01*
X0161364Y0100437D01*
X0161317Y0100415D01*
X0161268Y0100396D01*
X0161218Y0100382D01*
X0161167Y0100371D01*
X0161115Y0100364D01*
X0161063Y0100361D01*
X0161011Y0100362D01*
X0160959Y0100367D01*
X0160908Y0100376D01*
X0160857Y0100389D01*
X0160808Y0100405D01*
X0160759Y0100425D01*
X0160713Y0100449D01*
X0160669Y0100476D01*
X0160626Y0100507D01*
X0160586Y0100540D01*
X0160549Y0100577D01*
X0160515Y0100616D01*
X0160484Y0100658D01*
X0160455Y0100702D01*
X0160431Y0100748D01*
X0160410Y0100795D01*
X0160392Y0100845D01*
X0160379Y0100895D01*
X0160369Y0100946D01*
X0160363Y0100998D01*
X0160361Y0101050D01*
X0177861Y0111550D02*
X0177863Y0111602D01*
X0177869Y0111654D01*
X0177879Y0111705D01*
X0177892Y0111755D01*
X0177910Y0111805D01*
X0177931Y0111852D01*
X0177955Y0111898D01*
X0177984Y0111942D01*
X0178015Y0111984D01*
X0178049Y0112023D01*
X0178086Y0112060D01*
X0178126Y0112093D01*
X0178169Y0112124D01*
X0178213Y0112151D01*
X0178259Y0112175D01*
X0178308Y0112195D01*
X0178357Y0112211D01*
X0178408Y0112224D01*
X0178459Y0112233D01*
X0178511Y0112238D01*
X0178563Y0112239D01*
X0178615Y0112236D01*
X0178667Y0112229D01*
X0178718Y0112218D01*
X0178768Y0112204D01*
X0178817Y0112185D01*
X0178864Y0112163D01*
X0178909Y0112138D01*
X0178953Y0112109D01*
X0178994Y0112077D01*
X0179033Y0112042D01*
X0179068Y0112004D01*
X0179101Y0111963D01*
X0179131Y0111921D01*
X0179157Y0111876D01*
X0179180Y0111829D01*
X0179199Y0111780D01*
X0179215Y0111730D01*
X0179227Y0111680D01*
X0179235Y0111628D01*
X0179239Y0111576D01*
X0179239Y0111524D01*
X0179235Y0111472D01*
X0179227Y0111420D01*
X0179215Y0111370D01*
X0179199Y0111320D01*
X0179180Y0111271D01*
X0179157Y0111224D01*
X0179131Y0111179D01*
X0179101Y0111137D01*
X0179068Y0111096D01*
X0179033Y0111058D01*
X0178994Y0111023D01*
X0178953Y0110991D01*
X0178909Y0110962D01*
X0178864Y0110937D01*
X0178817Y0110915D01*
X0178768Y0110896D01*
X0178718Y0110882D01*
X0178667Y0110871D01*
X0178615Y0110864D01*
X0178563Y0110861D01*
X0178511Y0110862D01*
X0178459Y0110867D01*
X0178408Y0110876D01*
X0178357Y0110889D01*
X0178308Y0110905D01*
X0178259Y0110925D01*
X0178213Y0110949D01*
X0178169Y0110976D01*
X0178126Y0111007D01*
X0178086Y0111040D01*
X0178049Y0111077D01*
X0178015Y0111116D01*
X0177984Y0111158D01*
X0177955Y0111202D01*
X0177931Y0111248D01*
X0177910Y0111295D01*
X0177892Y0111345D01*
X0177879Y0111395D01*
X0177869Y0111446D01*
X0177863Y0111498D01*
X0177861Y0111550D01*
X0177861Y0114550D02*
X0177863Y0114602D01*
X0177869Y0114654D01*
X0177879Y0114705D01*
X0177892Y0114755D01*
X0177910Y0114805D01*
X0177931Y0114852D01*
X0177955Y0114898D01*
X0177984Y0114942D01*
X0178015Y0114984D01*
X0178049Y0115023D01*
X0178086Y0115060D01*
X0178126Y0115093D01*
X0178169Y0115124D01*
X0178213Y0115151D01*
X0178259Y0115175D01*
X0178308Y0115195D01*
X0178357Y0115211D01*
X0178408Y0115224D01*
X0178459Y0115233D01*
X0178511Y0115238D01*
X0178563Y0115239D01*
X0178615Y0115236D01*
X0178667Y0115229D01*
X0178718Y0115218D01*
X0178768Y0115204D01*
X0178817Y0115185D01*
X0178864Y0115163D01*
X0178909Y0115138D01*
X0178953Y0115109D01*
X0178994Y0115077D01*
X0179033Y0115042D01*
X0179068Y0115004D01*
X0179101Y0114963D01*
X0179131Y0114921D01*
X0179157Y0114876D01*
X0179180Y0114829D01*
X0179199Y0114780D01*
X0179215Y0114730D01*
X0179227Y0114680D01*
X0179235Y0114628D01*
X0179239Y0114576D01*
X0179239Y0114524D01*
X0179235Y0114472D01*
X0179227Y0114420D01*
X0179215Y0114370D01*
X0179199Y0114320D01*
X0179180Y0114271D01*
X0179157Y0114224D01*
X0179131Y0114179D01*
X0179101Y0114137D01*
X0179068Y0114096D01*
X0179033Y0114058D01*
X0178994Y0114023D01*
X0178953Y0113991D01*
X0178909Y0113962D01*
X0178864Y0113937D01*
X0178817Y0113915D01*
X0178768Y0113896D01*
X0178718Y0113882D01*
X0178667Y0113871D01*
X0178615Y0113864D01*
X0178563Y0113861D01*
X0178511Y0113862D01*
X0178459Y0113867D01*
X0178408Y0113876D01*
X0178357Y0113889D01*
X0178308Y0113905D01*
X0178259Y0113925D01*
X0178213Y0113949D01*
X0178169Y0113976D01*
X0178126Y0114007D01*
X0178086Y0114040D01*
X0178049Y0114077D01*
X0178015Y0114116D01*
X0177984Y0114158D01*
X0177955Y0114202D01*
X0177931Y0114248D01*
X0177910Y0114295D01*
X0177892Y0114345D01*
X0177879Y0114395D01*
X0177869Y0114446D01*
X0177863Y0114498D01*
X0177861Y0114550D01*
X0182861Y0114550D02*
X0182863Y0114602D01*
X0182869Y0114654D01*
X0182879Y0114705D01*
X0182892Y0114755D01*
X0182910Y0114805D01*
X0182931Y0114852D01*
X0182955Y0114898D01*
X0182984Y0114942D01*
X0183015Y0114984D01*
X0183049Y0115023D01*
X0183086Y0115060D01*
X0183126Y0115093D01*
X0183169Y0115124D01*
X0183213Y0115151D01*
X0183259Y0115175D01*
X0183308Y0115195D01*
X0183357Y0115211D01*
X0183408Y0115224D01*
X0183459Y0115233D01*
X0183511Y0115238D01*
X0183563Y0115239D01*
X0183615Y0115236D01*
X0183667Y0115229D01*
X0183718Y0115218D01*
X0183768Y0115204D01*
X0183817Y0115185D01*
X0183864Y0115163D01*
X0183909Y0115138D01*
X0183953Y0115109D01*
X0183994Y0115077D01*
X0184033Y0115042D01*
X0184068Y0115004D01*
X0184101Y0114963D01*
X0184131Y0114921D01*
X0184157Y0114876D01*
X0184180Y0114829D01*
X0184199Y0114780D01*
X0184215Y0114730D01*
X0184227Y0114680D01*
X0184235Y0114628D01*
X0184239Y0114576D01*
X0184239Y0114524D01*
X0184235Y0114472D01*
X0184227Y0114420D01*
X0184215Y0114370D01*
X0184199Y0114320D01*
X0184180Y0114271D01*
X0184157Y0114224D01*
X0184131Y0114179D01*
X0184101Y0114137D01*
X0184068Y0114096D01*
X0184033Y0114058D01*
X0183994Y0114023D01*
X0183953Y0113991D01*
X0183909Y0113962D01*
X0183864Y0113937D01*
X0183817Y0113915D01*
X0183768Y0113896D01*
X0183718Y0113882D01*
X0183667Y0113871D01*
X0183615Y0113864D01*
X0183563Y0113861D01*
X0183511Y0113862D01*
X0183459Y0113867D01*
X0183408Y0113876D01*
X0183357Y0113889D01*
X0183308Y0113905D01*
X0183259Y0113925D01*
X0183213Y0113949D01*
X0183169Y0113976D01*
X0183126Y0114007D01*
X0183086Y0114040D01*
X0183049Y0114077D01*
X0183015Y0114116D01*
X0182984Y0114158D01*
X0182955Y0114202D01*
X0182931Y0114248D01*
X0182910Y0114295D01*
X0182892Y0114345D01*
X0182879Y0114395D01*
X0182869Y0114446D01*
X0182863Y0114498D01*
X0182861Y0114550D01*
X0182861Y0111550D02*
X0182863Y0111602D01*
X0182869Y0111654D01*
X0182879Y0111705D01*
X0182892Y0111755D01*
X0182910Y0111805D01*
X0182931Y0111852D01*
X0182955Y0111898D01*
X0182984Y0111942D01*
X0183015Y0111984D01*
X0183049Y0112023D01*
X0183086Y0112060D01*
X0183126Y0112093D01*
X0183169Y0112124D01*
X0183213Y0112151D01*
X0183259Y0112175D01*
X0183308Y0112195D01*
X0183357Y0112211D01*
X0183408Y0112224D01*
X0183459Y0112233D01*
X0183511Y0112238D01*
X0183563Y0112239D01*
X0183615Y0112236D01*
X0183667Y0112229D01*
X0183718Y0112218D01*
X0183768Y0112204D01*
X0183817Y0112185D01*
X0183864Y0112163D01*
X0183909Y0112138D01*
X0183953Y0112109D01*
X0183994Y0112077D01*
X0184033Y0112042D01*
X0184068Y0112004D01*
X0184101Y0111963D01*
X0184131Y0111921D01*
X0184157Y0111876D01*
X0184180Y0111829D01*
X0184199Y0111780D01*
X0184215Y0111730D01*
X0184227Y0111680D01*
X0184235Y0111628D01*
X0184239Y0111576D01*
X0184239Y0111524D01*
X0184235Y0111472D01*
X0184227Y0111420D01*
X0184215Y0111370D01*
X0184199Y0111320D01*
X0184180Y0111271D01*
X0184157Y0111224D01*
X0184131Y0111179D01*
X0184101Y0111137D01*
X0184068Y0111096D01*
X0184033Y0111058D01*
X0183994Y0111023D01*
X0183953Y0110991D01*
X0183909Y0110962D01*
X0183864Y0110937D01*
X0183817Y0110915D01*
X0183768Y0110896D01*
X0183718Y0110882D01*
X0183667Y0110871D01*
X0183615Y0110864D01*
X0183563Y0110861D01*
X0183511Y0110862D01*
X0183459Y0110867D01*
X0183408Y0110876D01*
X0183357Y0110889D01*
X0183308Y0110905D01*
X0183259Y0110925D01*
X0183213Y0110949D01*
X0183169Y0110976D01*
X0183126Y0111007D01*
X0183086Y0111040D01*
X0183049Y0111077D01*
X0183015Y0111116D01*
X0182984Y0111158D01*
X0182955Y0111202D01*
X0182931Y0111248D01*
X0182910Y0111295D01*
X0182892Y0111345D01*
X0182879Y0111395D01*
X0182869Y0111446D01*
X0182863Y0111498D01*
X0182861Y0111550D01*
X0200861Y0111550D02*
X0200863Y0111602D01*
X0200869Y0111654D01*
X0200879Y0111705D01*
X0200892Y0111755D01*
X0200910Y0111805D01*
X0200931Y0111852D01*
X0200955Y0111898D01*
X0200984Y0111942D01*
X0201015Y0111984D01*
X0201049Y0112023D01*
X0201086Y0112060D01*
X0201126Y0112093D01*
X0201169Y0112124D01*
X0201213Y0112151D01*
X0201259Y0112175D01*
X0201308Y0112195D01*
X0201357Y0112211D01*
X0201408Y0112224D01*
X0201459Y0112233D01*
X0201511Y0112238D01*
X0201563Y0112239D01*
X0201615Y0112236D01*
X0201667Y0112229D01*
X0201718Y0112218D01*
X0201768Y0112204D01*
X0201817Y0112185D01*
X0201864Y0112163D01*
X0201909Y0112138D01*
X0201953Y0112109D01*
X0201994Y0112077D01*
X0202033Y0112042D01*
X0202068Y0112004D01*
X0202101Y0111963D01*
X0202131Y0111921D01*
X0202157Y0111876D01*
X0202180Y0111829D01*
X0202199Y0111780D01*
X0202215Y0111730D01*
X0202227Y0111680D01*
X0202235Y0111628D01*
X0202239Y0111576D01*
X0202239Y0111524D01*
X0202235Y0111472D01*
X0202227Y0111420D01*
X0202215Y0111370D01*
X0202199Y0111320D01*
X0202180Y0111271D01*
X0202157Y0111224D01*
X0202131Y0111179D01*
X0202101Y0111137D01*
X0202068Y0111096D01*
X0202033Y0111058D01*
X0201994Y0111023D01*
X0201953Y0110991D01*
X0201909Y0110962D01*
X0201864Y0110937D01*
X0201817Y0110915D01*
X0201768Y0110896D01*
X0201718Y0110882D01*
X0201667Y0110871D01*
X0201615Y0110864D01*
X0201563Y0110861D01*
X0201511Y0110862D01*
X0201459Y0110867D01*
X0201408Y0110876D01*
X0201357Y0110889D01*
X0201308Y0110905D01*
X0201259Y0110925D01*
X0201213Y0110949D01*
X0201169Y0110976D01*
X0201126Y0111007D01*
X0201086Y0111040D01*
X0201049Y0111077D01*
X0201015Y0111116D01*
X0200984Y0111158D01*
X0200955Y0111202D01*
X0200931Y0111248D01*
X0200910Y0111295D01*
X0200892Y0111345D01*
X0200879Y0111395D01*
X0200869Y0111446D01*
X0200863Y0111498D01*
X0200861Y0111550D01*
X0200861Y0114550D02*
X0200863Y0114602D01*
X0200869Y0114654D01*
X0200879Y0114705D01*
X0200892Y0114755D01*
X0200910Y0114805D01*
X0200931Y0114852D01*
X0200955Y0114898D01*
X0200984Y0114942D01*
X0201015Y0114984D01*
X0201049Y0115023D01*
X0201086Y0115060D01*
X0201126Y0115093D01*
X0201169Y0115124D01*
X0201213Y0115151D01*
X0201259Y0115175D01*
X0201308Y0115195D01*
X0201357Y0115211D01*
X0201408Y0115224D01*
X0201459Y0115233D01*
X0201511Y0115238D01*
X0201563Y0115239D01*
X0201615Y0115236D01*
X0201667Y0115229D01*
X0201718Y0115218D01*
X0201768Y0115204D01*
X0201817Y0115185D01*
X0201864Y0115163D01*
X0201909Y0115138D01*
X0201953Y0115109D01*
X0201994Y0115077D01*
X0202033Y0115042D01*
X0202068Y0115004D01*
X0202101Y0114963D01*
X0202131Y0114921D01*
X0202157Y0114876D01*
X0202180Y0114829D01*
X0202199Y0114780D01*
X0202215Y0114730D01*
X0202227Y0114680D01*
X0202235Y0114628D01*
X0202239Y0114576D01*
X0202239Y0114524D01*
X0202235Y0114472D01*
X0202227Y0114420D01*
X0202215Y0114370D01*
X0202199Y0114320D01*
X0202180Y0114271D01*
X0202157Y0114224D01*
X0202131Y0114179D01*
X0202101Y0114137D01*
X0202068Y0114096D01*
X0202033Y0114058D01*
X0201994Y0114023D01*
X0201953Y0113991D01*
X0201909Y0113962D01*
X0201864Y0113937D01*
X0201817Y0113915D01*
X0201768Y0113896D01*
X0201718Y0113882D01*
X0201667Y0113871D01*
X0201615Y0113864D01*
X0201563Y0113861D01*
X0201511Y0113862D01*
X0201459Y0113867D01*
X0201408Y0113876D01*
X0201357Y0113889D01*
X0201308Y0113905D01*
X0201259Y0113925D01*
X0201213Y0113949D01*
X0201169Y0113976D01*
X0201126Y0114007D01*
X0201086Y0114040D01*
X0201049Y0114077D01*
X0201015Y0114116D01*
X0200984Y0114158D01*
X0200955Y0114202D01*
X0200931Y0114248D01*
X0200910Y0114295D01*
X0200892Y0114345D01*
X0200879Y0114395D01*
X0200869Y0114446D01*
X0200863Y0114498D01*
X0200861Y0114550D01*
X0203361Y0114550D02*
X0203363Y0114602D01*
X0203369Y0114654D01*
X0203379Y0114705D01*
X0203392Y0114755D01*
X0203410Y0114805D01*
X0203431Y0114852D01*
X0203455Y0114898D01*
X0203484Y0114942D01*
X0203515Y0114984D01*
X0203549Y0115023D01*
X0203586Y0115060D01*
X0203626Y0115093D01*
X0203669Y0115124D01*
X0203713Y0115151D01*
X0203759Y0115175D01*
X0203808Y0115195D01*
X0203857Y0115211D01*
X0203908Y0115224D01*
X0203959Y0115233D01*
X0204011Y0115238D01*
X0204063Y0115239D01*
X0204115Y0115236D01*
X0204167Y0115229D01*
X0204218Y0115218D01*
X0204268Y0115204D01*
X0204317Y0115185D01*
X0204364Y0115163D01*
X0204409Y0115138D01*
X0204453Y0115109D01*
X0204494Y0115077D01*
X0204533Y0115042D01*
X0204568Y0115004D01*
X0204601Y0114963D01*
X0204631Y0114921D01*
X0204657Y0114876D01*
X0204680Y0114829D01*
X0204699Y0114780D01*
X0204715Y0114730D01*
X0204727Y0114680D01*
X0204735Y0114628D01*
X0204739Y0114576D01*
X0204739Y0114524D01*
X0204735Y0114472D01*
X0204727Y0114420D01*
X0204715Y0114370D01*
X0204699Y0114320D01*
X0204680Y0114271D01*
X0204657Y0114224D01*
X0204631Y0114179D01*
X0204601Y0114137D01*
X0204568Y0114096D01*
X0204533Y0114058D01*
X0204494Y0114023D01*
X0204453Y0113991D01*
X0204409Y0113962D01*
X0204364Y0113937D01*
X0204317Y0113915D01*
X0204268Y0113896D01*
X0204218Y0113882D01*
X0204167Y0113871D01*
X0204115Y0113864D01*
X0204063Y0113861D01*
X0204011Y0113862D01*
X0203959Y0113867D01*
X0203908Y0113876D01*
X0203857Y0113889D01*
X0203808Y0113905D01*
X0203759Y0113925D01*
X0203713Y0113949D01*
X0203669Y0113976D01*
X0203626Y0114007D01*
X0203586Y0114040D01*
X0203549Y0114077D01*
X0203515Y0114116D01*
X0203484Y0114158D01*
X0203455Y0114202D01*
X0203431Y0114248D01*
X0203410Y0114295D01*
X0203392Y0114345D01*
X0203379Y0114395D01*
X0203369Y0114446D01*
X0203363Y0114498D01*
X0203361Y0114550D01*
X0203361Y0111550D02*
X0203363Y0111602D01*
X0203369Y0111654D01*
X0203379Y0111705D01*
X0203392Y0111755D01*
X0203410Y0111805D01*
X0203431Y0111852D01*
X0203455Y0111898D01*
X0203484Y0111942D01*
X0203515Y0111984D01*
X0203549Y0112023D01*
X0203586Y0112060D01*
X0203626Y0112093D01*
X0203669Y0112124D01*
X0203713Y0112151D01*
X0203759Y0112175D01*
X0203808Y0112195D01*
X0203857Y0112211D01*
X0203908Y0112224D01*
X0203959Y0112233D01*
X0204011Y0112238D01*
X0204063Y0112239D01*
X0204115Y0112236D01*
X0204167Y0112229D01*
X0204218Y0112218D01*
X0204268Y0112204D01*
X0204317Y0112185D01*
X0204364Y0112163D01*
X0204409Y0112138D01*
X0204453Y0112109D01*
X0204494Y0112077D01*
X0204533Y0112042D01*
X0204568Y0112004D01*
X0204601Y0111963D01*
X0204631Y0111921D01*
X0204657Y0111876D01*
X0204680Y0111829D01*
X0204699Y0111780D01*
X0204715Y0111730D01*
X0204727Y0111680D01*
X0204735Y0111628D01*
X0204739Y0111576D01*
X0204739Y0111524D01*
X0204735Y0111472D01*
X0204727Y0111420D01*
X0204715Y0111370D01*
X0204699Y0111320D01*
X0204680Y0111271D01*
X0204657Y0111224D01*
X0204631Y0111179D01*
X0204601Y0111137D01*
X0204568Y0111096D01*
X0204533Y0111058D01*
X0204494Y0111023D01*
X0204453Y0110991D01*
X0204409Y0110962D01*
X0204364Y0110937D01*
X0204317Y0110915D01*
X0204268Y0110896D01*
X0204218Y0110882D01*
X0204167Y0110871D01*
X0204115Y0110864D01*
X0204063Y0110861D01*
X0204011Y0110862D01*
X0203959Y0110867D01*
X0203908Y0110876D01*
X0203857Y0110889D01*
X0203808Y0110905D01*
X0203759Y0110925D01*
X0203713Y0110949D01*
X0203669Y0110976D01*
X0203626Y0111007D01*
X0203586Y0111040D01*
X0203549Y0111077D01*
X0203515Y0111116D01*
X0203484Y0111158D01*
X0203455Y0111202D01*
X0203431Y0111248D01*
X0203410Y0111295D01*
X0203392Y0111345D01*
X0203379Y0111395D01*
X0203369Y0111446D01*
X0203363Y0111498D01*
X0203361Y0111550D01*
X0193361Y0132050D02*
X0193363Y0132102D01*
X0193369Y0132154D01*
X0193379Y0132205D01*
X0193392Y0132255D01*
X0193410Y0132305D01*
X0193431Y0132352D01*
X0193455Y0132398D01*
X0193484Y0132442D01*
X0193515Y0132484D01*
X0193549Y0132523D01*
X0193586Y0132560D01*
X0193626Y0132593D01*
X0193669Y0132624D01*
X0193713Y0132651D01*
X0193759Y0132675D01*
X0193808Y0132695D01*
X0193857Y0132711D01*
X0193908Y0132724D01*
X0193959Y0132733D01*
X0194011Y0132738D01*
X0194063Y0132739D01*
X0194115Y0132736D01*
X0194167Y0132729D01*
X0194218Y0132718D01*
X0194268Y0132704D01*
X0194317Y0132685D01*
X0194364Y0132663D01*
X0194409Y0132638D01*
X0194453Y0132609D01*
X0194494Y0132577D01*
X0194533Y0132542D01*
X0194568Y0132504D01*
X0194601Y0132463D01*
X0194631Y0132421D01*
X0194657Y0132376D01*
X0194680Y0132329D01*
X0194699Y0132280D01*
X0194715Y0132230D01*
X0194727Y0132180D01*
X0194735Y0132128D01*
X0194739Y0132076D01*
X0194739Y0132024D01*
X0194735Y0131972D01*
X0194727Y0131920D01*
X0194715Y0131870D01*
X0194699Y0131820D01*
X0194680Y0131771D01*
X0194657Y0131724D01*
X0194631Y0131679D01*
X0194601Y0131637D01*
X0194568Y0131596D01*
X0194533Y0131558D01*
X0194494Y0131523D01*
X0194453Y0131491D01*
X0194409Y0131462D01*
X0194364Y0131437D01*
X0194317Y0131415D01*
X0194268Y0131396D01*
X0194218Y0131382D01*
X0194167Y0131371D01*
X0194115Y0131364D01*
X0194063Y0131361D01*
X0194011Y0131362D01*
X0193959Y0131367D01*
X0193908Y0131376D01*
X0193857Y0131389D01*
X0193808Y0131405D01*
X0193759Y0131425D01*
X0193713Y0131449D01*
X0193669Y0131476D01*
X0193626Y0131507D01*
X0193586Y0131540D01*
X0193549Y0131577D01*
X0193515Y0131616D01*
X0193484Y0131658D01*
X0193455Y0131702D01*
X0193431Y0131748D01*
X0193410Y0131795D01*
X0193392Y0131845D01*
X0193379Y0131895D01*
X0193369Y0131946D01*
X0193363Y0131998D01*
X0193361Y0132050D01*
X0190361Y0132050D02*
X0190363Y0132102D01*
X0190369Y0132154D01*
X0190379Y0132205D01*
X0190392Y0132255D01*
X0190410Y0132305D01*
X0190431Y0132352D01*
X0190455Y0132398D01*
X0190484Y0132442D01*
X0190515Y0132484D01*
X0190549Y0132523D01*
X0190586Y0132560D01*
X0190626Y0132593D01*
X0190669Y0132624D01*
X0190713Y0132651D01*
X0190759Y0132675D01*
X0190808Y0132695D01*
X0190857Y0132711D01*
X0190908Y0132724D01*
X0190959Y0132733D01*
X0191011Y0132738D01*
X0191063Y0132739D01*
X0191115Y0132736D01*
X0191167Y0132729D01*
X0191218Y0132718D01*
X0191268Y0132704D01*
X0191317Y0132685D01*
X0191364Y0132663D01*
X0191409Y0132638D01*
X0191453Y0132609D01*
X0191494Y0132577D01*
X0191533Y0132542D01*
X0191568Y0132504D01*
X0191601Y0132463D01*
X0191631Y0132421D01*
X0191657Y0132376D01*
X0191680Y0132329D01*
X0191699Y0132280D01*
X0191715Y0132230D01*
X0191727Y0132180D01*
X0191735Y0132128D01*
X0191739Y0132076D01*
X0191739Y0132024D01*
X0191735Y0131972D01*
X0191727Y0131920D01*
X0191715Y0131870D01*
X0191699Y0131820D01*
X0191680Y0131771D01*
X0191657Y0131724D01*
X0191631Y0131679D01*
X0191601Y0131637D01*
X0191568Y0131596D01*
X0191533Y0131558D01*
X0191494Y0131523D01*
X0191453Y0131491D01*
X0191409Y0131462D01*
X0191364Y0131437D01*
X0191317Y0131415D01*
X0191268Y0131396D01*
X0191218Y0131382D01*
X0191167Y0131371D01*
X0191115Y0131364D01*
X0191063Y0131361D01*
X0191011Y0131362D01*
X0190959Y0131367D01*
X0190908Y0131376D01*
X0190857Y0131389D01*
X0190808Y0131405D01*
X0190759Y0131425D01*
X0190713Y0131449D01*
X0190669Y0131476D01*
X0190626Y0131507D01*
X0190586Y0131540D01*
X0190549Y0131577D01*
X0190515Y0131616D01*
X0190484Y0131658D01*
X0190455Y0131702D01*
X0190431Y0131748D01*
X0190410Y0131795D01*
X0190392Y0131845D01*
X0190379Y0131895D01*
X0190369Y0131946D01*
X0190363Y0131998D01*
X0190361Y0132050D01*
X0182361Y0141550D02*
X0182363Y0141602D01*
X0182369Y0141654D01*
X0182379Y0141705D01*
X0182392Y0141755D01*
X0182410Y0141805D01*
X0182431Y0141852D01*
X0182455Y0141898D01*
X0182484Y0141942D01*
X0182515Y0141984D01*
X0182549Y0142023D01*
X0182586Y0142060D01*
X0182626Y0142093D01*
X0182669Y0142124D01*
X0182713Y0142151D01*
X0182759Y0142175D01*
X0182808Y0142195D01*
X0182857Y0142211D01*
X0182908Y0142224D01*
X0182959Y0142233D01*
X0183011Y0142238D01*
X0183063Y0142239D01*
X0183115Y0142236D01*
X0183167Y0142229D01*
X0183218Y0142218D01*
X0183268Y0142204D01*
X0183317Y0142185D01*
X0183364Y0142163D01*
X0183409Y0142138D01*
X0183453Y0142109D01*
X0183494Y0142077D01*
X0183533Y0142042D01*
X0183568Y0142004D01*
X0183601Y0141963D01*
X0183631Y0141921D01*
X0183657Y0141876D01*
X0183680Y0141829D01*
X0183699Y0141780D01*
X0183715Y0141730D01*
X0183727Y0141680D01*
X0183735Y0141628D01*
X0183739Y0141576D01*
X0183739Y0141524D01*
X0183735Y0141472D01*
X0183727Y0141420D01*
X0183715Y0141370D01*
X0183699Y0141320D01*
X0183680Y0141271D01*
X0183657Y0141224D01*
X0183631Y0141179D01*
X0183601Y0141137D01*
X0183568Y0141096D01*
X0183533Y0141058D01*
X0183494Y0141023D01*
X0183453Y0140991D01*
X0183409Y0140962D01*
X0183364Y0140937D01*
X0183317Y0140915D01*
X0183268Y0140896D01*
X0183218Y0140882D01*
X0183167Y0140871D01*
X0183115Y0140864D01*
X0183063Y0140861D01*
X0183011Y0140862D01*
X0182959Y0140867D01*
X0182908Y0140876D01*
X0182857Y0140889D01*
X0182808Y0140905D01*
X0182759Y0140925D01*
X0182713Y0140949D01*
X0182669Y0140976D01*
X0182626Y0141007D01*
X0182586Y0141040D01*
X0182549Y0141077D01*
X0182515Y0141116D01*
X0182484Y0141158D01*
X0182455Y0141202D01*
X0182431Y0141248D01*
X0182410Y0141295D01*
X0182392Y0141345D01*
X0182379Y0141395D01*
X0182369Y0141446D01*
X0182363Y0141498D01*
X0182361Y0141550D01*
X0182361Y0144550D02*
X0182363Y0144602D01*
X0182369Y0144654D01*
X0182379Y0144705D01*
X0182392Y0144755D01*
X0182410Y0144805D01*
X0182431Y0144852D01*
X0182455Y0144898D01*
X0182484Y0144942D01*
X0182515Y0144984D01*
X0182549Y0145023D01*
X0182586Y0145060D01*
X0182626Y0145093D01*
X0182669Y0145124D01*
X0182713Y0145151D01*
X0182759Y0145175D01*
X0182808Y0145195D01*
X0182857Y0145211D01*
X0182908Y0145224D01*
X0182959Y0145233D01*
X0183011Y0145238D01*
X0183063Y0145239D01*
X0183115Y0145236D01*
X0183167Y0145229D01*
X0183218Y0145218D01*
X0183268Y0145204D01*
X0183317Y0145185D01*
X0183364Y0145163D01*
X0183409Y0145138D01*
X0183453Y0145109D01*
X0183494Y0145077D01*
X0183533Y0145042D01*
X0183568Y0145004D01*
X0183601Y0144963D01*
X0183631Y0144921D01*
X0183657Y0144876D01*
X0183680Y0144829D01*
X0183699Y0144780D01*
X0183715Y0144730D01*
X0183727Y0144680D01*
X0183735Y0144628D01*
X0183739Y0144576D01*
X0183739Y0144524D01*
X0183735Y0144472D01*
X0183727Y0144420D01*
X0183715Y0144370D01*
X0183699Y0144320D01*
X0183680Y0144271D01*
X0183657Y0144224D01*
X0183631Y0144179D01*
X0183601Y0144137D01*
X0183568Y0144096D01*
X0183533Y0144058D01*
X0183494Y0144023D01*
X0183453Y0143991D01*
X0183409Y0143962D01*
X0183364Y0143937D01*
X0183317Y0143915D01*
X0183268Y0143896D01*
X0183218Y0143882D01*
X0183167Y0143871D01*
X0183115Y0143864D01*
X0183063Y0143861D01*
X0183011Y0143862D01*
X0182959Y0143867D01*
X0182908Y0143876D01*
X0182857Y0143889D01*
X0182808Y0143905D01*
X0182759Y0143925D01*
X0182713Y0143949D01*
X0182669Y0143976D01*
X0182626Y0144007D01*
X0182586Y0144040D01*
X0182549Y0144077D01*
X0182515Y0144116D01*
X0182484Y0144158D01*
X0182455Y0144202D01*
X0182431Y0144248D01*
X0182410Y0144295D01*
X0182392Y0144345D01*
X0182379Y0144395D01*
X0182369Y0144446D01*
X0182363Y0144498D01*
X0182361Y0144550D01*
X0200861Y0144550D02*
X0200863Y0144602D01*
X0200869Y0144654D01*
X0200879Y0144705D01*
X0200892Y0144755D01*
X0200910Y0144805D01*
X0200931Y0144852D01*
X0200955Y0144898D01*
X0200984Y0144942D01*
X0201015Y0144984D01*
X0201049Y0145023D01*
X0201086Y0145060D01*
X0201126Y0145093D01*
X0201169Y0145124D01*
X0201213Y0145151D01*
X0201259Y0145175D01*
X0201308Y0145195D01*
X0201357Y0145211D01*
X0201408Y0145224D01*
X0201459Y0145233D01*
X0201511Y0145238D01*
X0201563Y0145239D01*
X0201615Y0145236D01*
X0201667Y0145229D01*
X0201718Y0145218D01*
X0201768Y0145204D01*
X0201817Y0145185D01*
X0201864Y0145163D01*
X0201909Y0145138D01*
X0201953Y0145109D01*
X0201994Y0145077D01*
X0202033Y0145042D01*
X0202068Y0145004D01*
X0202101Y0144963D01*
X0202131Y0144921D01*
X0202157Y0144876D01*
X0202180Y0144829D01*
X0202199Y0144780D01*
X0202215Y0144730D01*
X0202227Y0144680D01*
X0202235Y0144628D01*
X0202239Y0144576D01*
X0202239Y0144524D01*
X0202235Y0144472D01*
X0202227Y0144420D01*
X0202215Y0144370D01*
X0202199Y0144320D01*
X0202180Y0144271D01*
X0202157Y0144224D01*
X0202131Y0144179D01*
X0202101Y0144137D01*
X0202068Y0144096D01*
X0202033Y0144058D01*
X0201994Y0144023D01*
X0201953Y0143991D01*
X0201909Y0143962D01*
X0201864Y0143937D01*
X0201817Y0143915D01*
X0201768Y0143896D01*
X0201718Y0143882D01*
X0201667Y0143871D01*
X0201615Y0143864D01*
X0201563Y0143861D01*
X0201511Y0143862D01*
X0201459Y0143867D01*
X0201408Y0143876D01*
X0201357Y0143889D01*
X0201308Y0143905D01*
X0201259Y0143925D01*
X0201213Y0143949D01*
X0201169Y0143976D01*
X0201126Y0144007D01*
X0201086Y0144040D01*
X0201049Y0144077D01*
X0201015Y0144116D01*
X0200984Y0144158D01*
X0200955Y0144202D01*
X0200931Y0144248D01*
X0200910Y0144295D01*
X0200892Y0144345D01*
X0200879Y0144395D01*
X0200869Y0144446D01*
X0200863Y0144498D01*
X0200861Y0144550D01*
X0200861Y0141550D02*
X0200863Y0141602D01*
X0200869Y0141654D01*
X0200879Y0141705D01*
X0200892Y0141755D01*
X0200910Y0141805D01*
X0200931Y0141852D01*
X0200955Y0141898D01*
X0200984Y0141942D01*
X0201015Y0141984D01*
X0201049Y0142023D01*
X0201086Y0142060D01*
X0201126Y0142093D01*
X0201169Y0142124D01*
X0201213Y0142151D01*
X0201259Y0142175D01*
X0201308Y0142195D01*
X0201357Y0142211D01*
X0201408Y0142224D01*
X0201459Y0142233D01*
X0201511Y0142238D01*
X0201563Y0142239D01*
X0201615Y0142236D01*
X0201667Y0142229D01*
X0201718Y0142218D01*
X0201768Y0142204D01*
X0201817Y0142185D01*
X0201864Y0142163D01*
X0201909Y0142138D01*
X0201953Y0142109D01*
X0201994Y0142077D01*
X0202033Y0142042D01*
X0202068Y0142004D01*
X0202101Y0141963D01*
X0202131Y0141921D01*
X0202157Y0141876D01*
X0202180Y0141829D01*
X0202199Y0141780D01*
X0202215Y0141730D01*
X0202227Y0141680D01*
X0202235Y0141628D01*
X0202239Y0141576D01*
X0202239Y0141524D01*
X0202235Y0141472D01*
X0202227Y0141420D01*
X0202215Y0141370D01*
X0202199Y0141320D01*
X0202180Y0141271D01*
X0202157Y0141224D01*
X0202131Y0141179D01*
X0202101Y0141137D01*
X0202068Y0141096D01*
X0202033Y0141058D01*
X0201994Y0141023D01*
X0201953Y0140991D01*
X0201909Y0140962D01*
X0201864Y0140937D01*
X0201817Y0140915D01*
X0201768Y0140896D01*
X0201718Y0140882D01*
X0201667Y0140871D01*
X0201615Y0140864D01*
X0201563Y0140861D01*
X0201511Y0140862D01*
X0201459Y0140867D01*
X0201408Y0140876D01*
X0201357Y0140889D01*
X0201308Y0140905D01*
X0201259Y0140925D01*
X0201213Y0140949D01*
X0201169Y0140976D01*
X0201126Y0141007D01*
X0201086Y0141040D01*
X0201049Y0141077D01*
X0201015Y0141116D01*
X0200984Y0141158D01*
X0200955Y0141202D01*
X0200931Y0141248D01*
X0200910Y0141295D01*
X0200892Y0141345D01*
X0200879Y0141395D01*
X0200869Y0141446D01*
X0200863Y0141498D01*
X0200861Y0141550D01*
X0203361Y0141550D02*
X0203363Y0141602D01*
X0203369Y0141654D01*
X0203379Y0141705D01*
X0203392Y0141755D01*
X0203410Y0141805D01*
X0203431Y0141852D01*
X0203455Y0141898D01*
X0203484Y0141942D01*
X0203515Y0141984D01*
X0203549Y0142023D01*
X0203586Y0142060D01*
X0203626Y0142093D01*
X0203669Y0142124D01*
X0203713Y0142151D01*
X0203759Y0142175D01*
X0203808Y0142195D01*
X0203857Y0142211D01*
X0203908Y0142224D01*
X0203959Y0142233D01*
X0204011Y0142238D01*
X0204063Y0142239D01*
X0204115Y0142236D01*
X0204167Y0142229D01*
X0204218Y0142218D01*
X0204268Y0142204D01*
X0204317Y0142185D01*
X0204364Y0142163D01*
X0204409Y0142138D01*
X0204453Y0142109D01*
X0204494Y0142077D01*
X0204533Y0142042D01*
X0204568Y0142004D01*
X0204601Y0141963D01*
X0204631Y0141921D01*
X0204657Y0141876D01*
X0204680Y0141829D01*
X0204699Y0141780D01*
X0204715Y0141730D01*
X0204727Y0141680D01*
X0204735Y0141628D01*
X0204739Y0141576D01*
X0204739Y0141524D01*
X0204735Y0141472D01*
X0204727Y0141420D01*
X0204715Y0141370D01*
X0204699Y0141320D01*
X0204680Y0141271D01*
X0204657Y0141224D01*
X0204631Y0141179D01*
X0204601Y0141137D01*
X0204568Y0141096D01*
X0204533Y0141058D01*
X0204494Y0141023D01*
X0204453Y0140991D01*
X0204409Y0140962D01*
X0204364Y0140937D01*
X0204317Y0140915D01*
X0204268Y0140896D01*
X0204218Y0140882D01*
X0204167Y0140871D01*
X0204115Y0140864D01*
X0204063Y0140861D01*
X0204011Y0140862D01*
X0203959Y0140867D01*
X0203908Y0140876D01*
X0203857Y0140889D01*
X0203808Y0140905D01*
X0203759Y0140925D01*
X0203713Y0140949D01*
X0203669Y0140976D01*
X0203626Y0141007D01*
X0203586Y0141040D01*
X0203549Y0141077D01*
X0203515Y0141116D01*
X0203484Y0141158D01*
X0203455Y0141202D01*
X0203431Y0141248D01*
X0203410Y0141295D01*
X0203392Y0141345D01*
X0203379Y0141395D01*
X0203369Y0141446D01*
X0203363Y0141498D01*
X0203361Y0141550D01*
X0203361Y0144550D02*
X0203363Y0144602D01*
X0203369Y0144654D01*
X0203379Y0144705D01*
X0203392Y0144755D01*
X0203410Y0144805D01*
X0203431Y0144852D01*
X0203455Y0144898D01*
X0203484Y0144942D01*
X0203515Y0144984D01*
X0203549Y0145023D01*
X0203586Y0145060D01*
X0203626Y0145093D01*
X0203669Y0145124D01*
X0203713Y0145151D01*
X0203759Y0145175D01*
X0203808Y0145195D01*
X0203857Y0145211D01*
X0203908Y0145224D01*
X0203959Y0145233D01*
X0204011Y0145238D01*
X0204063Y0145239D01*
X0204115Y0145236D01*
X0204167Y0145229D01*
X0204218Y0145218D01*
X0204268Y0145204D01*
X0204317Y0145185D01*
X0204364Y0145163D01*
X0204409Y0145138D01*
X0204453Y0145109D01*
X0204494Y0145077D01*
X0204533Y0145042D01*
X0204568Y0145004D01*
X0204601Y0144963D01*
X0204631Y0144921D01*
X0204657Y0144876D01*
X0204680Y0144829D01*
X0204699Y0144780D01*
X0204715Y0144730D01*
X0204727Y0144680D01*
X0204735Y0144628D01*
X0204739Y0144576D01*
X0204739Y0144524D01*
X0204735Y0144472D01*
X0204727Y0144420D01*
X0204715Y0144370D01*
X0204699Y0144320D01*
X0204680Y0144271D01*
X0204657Y0144224D01*
X0204631Y0144179D01*
X0204601Y0144137D01*
X0204568Y0144096D01*
X0204533Y0144058D01*
X0204494Y0144023D01*
X0204453Y0143991D01*
X0204409Y0143962D01*
X0204364Y0143937D01*
X0204317Y0143915D01*
X0204268Y0143896D01*
X0204218Y0143882D01*
X0204167Y0143871D01*
X0204115Y0143864D01*
X0204063Y0143861D01*
X0204011Y0143862D01*
X0203959Y0143867D01*
X0203908Y0143876D01*
X0203857Y0143889D01*
X0203808Y0143905D01*
X0203759Y0143925D01*
X0203713Y0143949D01*
X0203669Y0143976D01*
X0203626Y0144007D01*
X0203586Y0144040D01*
X0203549Y0144077D01*
X0203515Y0144116D01*
X0203484Y0144158D01*
X0203455Y0144202D01*
X0203431Y0144248D01*
X0203410Y0144295D01*
X0203392Y0144345D01*
X0203379Y0144395D01*
X0203369Y0144446D01*
X0203363Y0144498D01*
X0203361Y0144550D01*
X0163361Y0125050D02*
X0163363Y0125102D01*
X0163369Y0125154D01*
X0163379Y0125205D01*
X0163392Y0125255D01*
X0163410Y0125305D01*
X0163431Y0125352D01*
X0163455Y0125398D01*
X0163484Y0125442D01*
X0163515Y0125484D01*
X0163549Y0125523D01*
X0163586Y0125560D01*
X0163626Y0125593D01*
X0163669Y0125624D01*
X0163713Y0125651D01*
X0163759Y0125675D01*
X0163808Y0125695D01*
X0163857Y0125711D01*
X0163908Y0125724D01*
X0163959Y0125733D01*
X0164011Y0125738D01*
X0164063Y0125739D01*
X0164115Y0125736D01*
X0164167Y0125729D01*
X0164218Y0125718D01*
X0164268Y0125704D01*
X0164317Y0125685D01*
X0164364Y0125663D01*
X0164409Y0125638D01*
X0164453Y0125609D01*
X0164494Y0125577D01*
X0164533Y0125542D01*
X0164568Y0125504D01*
X0164601Y0125463D01*
X0164631Y0125421D01*
X0164657Y0125376D01*
X0164680Y0125329D01*
X0164699Y0125280D01*
X0164715Y0125230D01*
X0164727Y0125180D01*
X0164735Y0125128D01*
X0164739Y0125076D01*
X0164739Y0125024D01*
X0164735Y0124972D01*
X0164727Y0124920D01*
X0164715Y0124870D01*
X0164699Y0124820D01*
X0164680Y0124771D01*
X0164657Y0124724D01*
X0164631Y0124679D01*
X0164601Y0124637D01*
X0164568Y0124596D01*
X0164533Y0124558D01*
X0164494Y0124523D01*
X0164453Y0124491D01*
X0164409Y0124462D01*
X0164364Y0124437D01*
X0164317Y0124415D01*
X0164268Y0124396D01*
X0164218Y0124382D01*
X0164167Y0124371D01*
X0164115Y0124364D01*
X0164063Y0124361D01*
X0164011Y0124362D01*
X0163959Y0124367D01*
X0163908Y0124376D01*
X0163857Y0124389D01*
X0163808Y0124405D01*
X0163759Y0124425D01*
X0163713Y0124449D01*
X0163669Y0124476D01*
X0163626Y0124507D01*
X0163586Y0124540D01*
X0163549Y0124577D01*
X0163515Y0124616D01*
X0163484Y0124658D01*
X0163455Y0124702D01*
X0163431Y0124748D01*
X0163410Y0124795D01*
X0163392Y0124845D01*
X0163379Y0124895D01*
X0163369Y0124946D01*
X0163363Y0124998D01*
X0163361Y0125050D01*
X0160361Y0125050D02*
X0160363Y0125102D01*
X0160369Y0125154D01*
X0160379Y0125205D01*
X0160392Y0125255D01*
X0160410Y0125305D01*
X0160431Y0125352D01*
X0160455Y0125398D01*
X0160484Y0125442D01*
X0160515Y0125484D01*
X0160549Y0125523D01*
X0160586Y0125560D01*
X0160626Y0125593D01*
X0160669Y0125624D01*
X0160713Y0125651D01*
X0160759Y0125675D01*
X0160808Y0125695D01*
X0160857Y0125711D01*
X0160908Y0125724D01*
X0160959Y0125733D01*
X0161011Y0125738D01*
X0161063Y0125739D01*
X0161115Y0125736D01*
X0161167Y0125729D01*
X0161218Y0125718D01*
X0161268Y0125704D01*
X0161317Y0125685D01*
X0161364Y0125663D01*
X0161409Y0125638D01*
X0161453Y0125609D01*
X0161494Y0125577D01*
X0161533Y0125542D01*
X0161568Y0125504D01*
X0161601Y0125463D01*
X0161631Y0125421D01*
X0161657Y0125376D01*
X0161680Y0125329D01*
X0161699Y0125280D01*
X0161715Y0125230D01*
X0161727Y0125180D01*
X0161735Y0125128D01*
X0161739Y0125076D01*
X0161739Y0125024D01*
X0161735Y0124972D01*
X0161727Y0124920D01*
X0161715Y0124870D01*
X0161699Y0124820D01*
X0161680Y0124771D01*
X0161657Y0124724D01*
X0161631Y0124679D01*
X0161601Y0124637D01*
X0161568Y0124596D01*
X0161533Y0124558D01*
X0161494Y0124523D01*
X0161453Y0124491D01*
X0161409Y0124462D01*
X0161364Y0124437D01*
X0161317Y0124415D01*
X0161268Y0124396D01*
X0161218Y0124382D01*
X0161167Y0124371D01*
X0161115Y0124364D01*
X0161063Y0124361D01*
X0161011Y0124362D01*
X0160959Y0124367D01*
X0160908Y0124376D01*
X0160857Y0124389D01*
X0160808Y0124405D01*
X0160759Y0124425D01*
X0160713Y0124449D01*
X0160669Y0124476D01*
X0160626Y0124507D01*
X0160586Y0124540D01*
X0160549Y0124577D01*
X0160515Y0124616D01*
X0160484Y0124658D01*
X0160455Y0124702D01*
X0160431Y0124748D01*
X0160410Y0124795D01*
X0160392Y0124845D01*
X0160379Y0124895D01*
X0160369Y0124946D01*
X0160363Y0124998D01*
X0160361Y0125050D01*
X0144361Y0141550D02*
X0144363Y0141602D01*
X0144369Y0141654D01*
X0144379Y0141705D01*
X0144392Y0141755D01*
X0144410Y0141805D01*
X0144431Y0141852D01*
X0144455Y0141898D01*
X0144484Y0141942D01*
X0144515Y0141984D01*
X0144549Y0142023D01*
X0144586Y0142060D01*
X0144626Y0142093D01*
X0144669Y0142124D01*
X0144713Y0142151D01*
X0144759Y0142175D01*
X0144808Y0142195D01*
X0144857Y0142211D01*
X0144908Y0142224D01*
X0144959Y0142233D01*
X0145011Y0142238D01*
X0145063Y0142239D01*
X0145115Y0142236D01*
X0145167Y0142229D01*
X0145218Y0142218D01*
X0145268Y0142204D01*
X0145317Y0142185D01*
X0145364Y0142163D01*
X0145409Y0142138D01*
X0145453Y0142109D01*
X0145494Y0142077D01*
X0145533Y0142042D01*
X0145568Y0142004D01*
X0145601Y0141963D01*
X0145631Y0141921D01*
X0145657Y0141876D01*
X0145680Y0141829D01*
X0145699Y0141780D01*
X0145715Y0141730D01*
X0145727Y0141680D01*
X0145735Y0141628D01*
X0145739Y0141576D01*
X0145739Y0141524D01*
X0145735Y0141472D01*
X0145727Y0141420D01*
X0145715Y0141370D01*
X0145699Y0141320D01*
X0145680Y0141271D01*
X0145657Y0141224D01*
X0145631Y0141179D01*
X0145601Y0141137D01*
X0145568Y0141096D01*
X0145533Y0141058D01*
X0145494Y0141023D01*
X0145453Y0140991D01*
X0145409Y0140962D01*
X0145364Y0140937D01*
X0145317Y0140915D01*
X0145268Y0140896D01*
X0145218Y0140882D01*
X0145167Y0140871D01*
X0145115Y0140864D01*
X0145063Y0140861D01*
X0145011Y0140862D01*
X0144959Y0140867D01*
X0144908Y0140876D01*
X0144857Y0140889D01*
X0144808Y0140905D01*
X0144759Y0140925D01*
X0144713Y0140949D01*
X0144669Y0140976D01*
X0144626Y0141007D01*
X0144586Y0141040D01*
X0144549Y0141077D01*
X0144515Y0141116D01*
X0144484Y0141158D01*
X0144455Y0141202D01*
X0144431Y0141248D01*
X0144410Y0141295D01*
X0144392Y0141345D01*
X0144379Y0141395D01*
X0144369Y0141446D01*
X0144363Y0141498D01*
X0144361Y0141550D01*
X0144361Y0144550D02*
X0144363Y0144602D01*
X0144369Y0144654D01*
X0144379Y0144705D01*
X0144392Y0144755D01*
X0144410Y0144805D01*
X0144431Y0144852D01*
X0144455Y0144898D01*
X0144484Y0144942D01*
X0144515Y0144984D01*
X0144549Y0145023D01*
X0144586Y0145060D01*
X0144626Y0145093D01*
X0144669Y0145124D01*
X0144713Y0145151D01*
X0144759Y0145175D01*
X0144808Y0145195D01*
X0144857Y0145211D01*
X0144908Y0145224D01*
X0144959Y0145233D01*
X0145011Y0145238D01*
X0145063Y0145239D01*
X0145115Y0145236D01*
X0145167Y0145229D01*
X0145218Y0145218D01*
X0145268Y0145204D01*
X0145317Y0145185D01*
X0145364Y0145163D01*
X0145409Y0145138D01*
X0145453Y0145109D01*
X0145494Y0145077D01*
X0145533Y0145042D01*
X0145568Y0145004D01*
X0145601Y0144963D01*
X0145631Y0144921D01*
X0145657Y0144876D01*
X0145680Y0144829D01*
X0145699Y0144780D01*
X0145715Y0144730D01*
X0145727Y0144680D01*
X0145735Y0144628D01*
X0145739Y0144576D01*
X0145739Y0144524D01*
X0145735Y0144472D01*
X0145727Y0144420D01*
X0145715Y0144370D01*
X0145699Y0144320D01*
X0145680Y0144271D01*
X0145657Y0144224D01*
X0145631Y0144179D01*
X0145601Y0144137D01*
X0145568Y0144096D01*
X0145533Y0144058D01*
X0145494Y0144023D01*
X0145453Y0143991D01*
X0145409Y0143962D01*
X0145364Y0143937D01*
X0145317Y0143915D01*
X0145268Y0143896D01*
X0145218Y0143882D01*
X0145167Y0143871D01*
X0145115Y0143864D01*
X0145063Y0143861D01*
X0145011Y0143862D01*
X0144959Y0143867D01*
X0144908Y0143876D01*
X0144857Y0143889D01*
X0144808Y0143905D01*
X0144759Y0143925D01*
X0144713Y0143949D01*
X0144669Y0143976D01*
X0144626Y0144007D01*
X0144586Y0144040D01*
X0144549Y0144077D01*
X0144515Y0144116D01*
X0144484Y0144158D01*
X0144455Y0144202D01*
X0144431Y0144248D01*
X0144410Y0144295D01*
X0144392Y0144345D01*
X0144379Y0144395D01*
X0144369Y0144446D01*
X0144363Y0144498D01*
X0144361Y0144550D01*
X0151597Y0157050D02*
X0151599Y0157158D01*
X0151605Y0157267D01*
X0151615Y0157375D01*
X0151629Y0157482D01*
X0151647Y0157589D01*
X0151668Y0157696D01*
X0151694Y0157801D01*
X0151724Y0157906D01*
X0151757Y0158009D01*
X0151794Y0158111D01*
X0151835Y0158211D01*
X0151879Y0158310D01*
X0151928Y0158408D01*
X0151979Y0158503D01*
X0152034Y0158596D01*
X0152093Y0158688D01*
X0152155Y0158777D01*
X0152220Y0158864D01*
X0152288Y0158948D01*
X0152359Y0159030D01*
X0152433Y0159109D01*
X0152510Y0159185D01*
X0152590Y0159259D01*
X0152673Y0159329D01*
X0152758Y0159397D01*
X0152845Y0159461D01*
X0152935Y0159522D01*
X0153027Y0159580D01*
X0153121Y0159634D01*
X0153217Y0159685D01*
X0153314Y0159732D01*
X0153414Y0159776D01*
X0153515Y0159816D01*
X0153617Y0159852D01*
X0153720Y0159884D01*
X0153825Y0159913D01*
X0153931Y0159937D01*
X0154037Y0159958D01*
X0154144Y0159975D01*
X0154252Y0159988D01*
X0154360Y0159997D01*
X0154469Y0160002D01*
X0154577Y0160003D01*
X0154686Y0160000D01*
X0154794Y0159993D01*
X0154902Y0159982D01*
X0155009Y0159967D01*
X0155116Y0159948D01*
X0155222Y0159925D01*
X0155327Y0159899D01*
X0155432Y0159868D01*
X0155534Y0159834D01*
X0155636Y0159796D01*
X0155736Y0159754D01*
X0155835Y0159709D01*
X0155932Y0159660D01*
X0156026Y0159607D01*
X0156119Y0159551D01*
X0156210Y0159492D01*
X0156299Y0159429D01*
X0156385Y0159364D01*
X0156469Y0159295D01*
X0156550Y0159223D01*
X0156628Y0159148D01*
X0156704Y0159070D01*
X0156777Y0158989D01*
X0156847Y0158906D01*
X0156913Y0158821D01*
X0156977Y0158733D01*
X0157037Y0158642D01*
X0157094Y0158550D01*
X0157147Y0158455D01*
X0157197Y0158359D01*
X0157243Y0158261D01*
X0157286Y0158161D01*
X0157325Y0158060D01*
X0157360Y0157957D01*
X0157392Y0157854D01*
X0157419Y0157749D01*
X0157443Y0157643D01*
X0157463Y0157536D01*
X0157479Y0157429D01*
X0157491Y0157321D01*
X0157499Y0157213D01*
X0157503Y0157104D01*
X0157503Y0156996D01*
X0157499Y0156887D01*
X0157491Y0156779D01*
X0157479Y0156671D01*
X0157463Y0156564D01*
X0157443Y0156457D01*
X0157419Y0156351D01*
X0157392Y0156246D01*
X0157360Y0156143D01*
X0157325Y0156040D01*
X0157286Y0155939D01*
X0157243Y0155839D01*
X0157197Y0155741D01*
X0157147Y0155645D01*
X0157094Y0155550D01*
X0157037Y0155458D01*
X0156977Y0155367D01*
X0156913Y0155279D01*
X0156847Y0155194D01*
X0156777Y0155111D01*
X0156704Y0155030D01*
X0156628Y0154952D01*
X0156550Y0154877D01*
X0156469Y0154805D01*
X0156385Y0154736D01*
X0156299Y0154671D01*
X0156210Y0154608D01*
X0156119Y0154549D01*
X0156027Y0154493D01*
X0155932Y0154440D01*
X0155835Y0154391D01*
X0155736Y0154346D01*
X0155636Y0154304D01*
X0155534Y0154266D01*
X0155432Y0154232D01*
X0155327Y0154201D01*
X0155222Y0154175D01*
X0155116Y0154152D01*
X0155009Y0154133D01*
X0154902Y0154118D01*
X0154794Y0154107D01*
X0154686Y0154100D01*
X0154577Y0154097D01*
X0154469Y0154098D01*
X0154360Y0154103D01*
X0154252Y0154112D01*
X0154144Y0154125D01*
X0154037Y0154142D01*
X0153931Y0154163D01*
X0153825Y0154187D01*
X0153720Y0154216D01*
X0153617Y0154248D01*
X0153515Y0154284D01*
X0153414Y0154324D01*
X0153314Y0154368D01*
X0153217Y0154415D01*
X0153121Y0154466D01*
X0153027Y0154520D01*
X0152935Y0154578D01*
X0152845Y0154639D01*
X0152758Y0154703D01*
X0152673Y0154771D01*
X0152590Y0154841D01*
X0152510Y0154915D01*
X0152433Y0154991D01*
X0152359Y0155070D01*
X0152288Y0155152D01*
X0152220Y0155236D01*
X0152155Y0155323D01*
X0152093Y0155412D01*
X0152034Y0155504D01*
X0151979Y0155597D01*
X0151928Y0155692D01*
X0151879Y0155790D01*
X0151835Y0155889D01*
X0151794Y0155989D01*
X0151757Y0156091D01*
X0151724Y0156194D01*
X0151694Y0156299D01*
X0151668Y0156404D01*
X0151647Y0156511D01*
X0151629Y0156618D01*
X0151615Y0156725D01*
X0151605Y0156833D01*
X0151599Y0156942D01*
X0151597Y0157050D01*
X0190361Y0182050D02*
X0190363Y0182102D01*
X0190369Y0182154D01*
X0190379Y0182205D01*
X0190392Y0182255D01*
X0190410Y0182305D01*
X0190431Y0182352D01*
X0190455Y0182398D01*
X0190484Y0182442D01*
X0190515Y0182484D01*
X0190549Y0182523D01*
X0190586Y0182560D01*
X0190626Y0182593D01*
X0190669Y0182624D01*
X0190713Y0182651D01*
X0190759Y0182675D01*
X0190808Y0182695D01*
X0190857Y0182711D01*
X0190908Y0182724D01*
X0190959Y0182733D01*
X0191011Y0182738D01*
X0191063Y0182739D01*
X0191115Y0182736D01*
X0191167Y0182729D01*
X0191218Y0182718D01*
X0191268Y0182704D01*
X0191317Y0182685D01*
X0191364Y0182663D01*
X0191409Y0182638D01*
X0191453Y0182609D01*
X0191494Y0182577D01*
X0191533Y0182542D01*
X0191568Y0182504D01*
X0191601Y0182463D01*
X0191631Y0182421D01*
X0191657Y0182376D01*
X0191680Y0182329D01*
X0191699Y0182280D01*
X0191715Y0182230D01*
X0191727Y0182180D01*
X0191735Y0182128D01*
X0191739Y0182076D01*
X0191739Y0182024D01*
X0191735Y0181972D01*
X0191727Y0181920D01*
X0191715Y0181870D01*
X0191699Y0181820D01*
X0191680Y0181771D01*
X0191657Y0181724D01*
X0191631Y0181679D01*
X0191601Y0181637D01*
X0191568Y0181596D01*
X0191533Y0181558D01*
X0191494Y0181523D01*
X0191453Y0181491D01*
X0191409Y0181462D01*
X0191364Y0181437D01*
X0191317Y0181415D01*
X0191268Y0181396D01*
X0191218Y0181382D01*
X0191167Y0181371D01*
X0191115Y0181364D01*
X0191063Y0181361D01*
X0191011Y0181362D01*
X0190959Y0181367D01*
X0190908Y0181376D01*
X0190857Y0181389D01*
X0190808Y0181405D01*
X0190759Y0181425D01*
X0190713Y0181449D01*
X0190669Y0181476D01*
X0190626Y0181507D01*
X0190586Y0181540D01*
X0190549Y0181577D01*
X0190515Y0181616D01*
X0190484Y0181658D01*
X0190455Y0181702D01*
X0190431Y0181748D01*
X0190410Y0181795D01*
X0190392Y0181845D01*
X0190379Y0181895D01*
X0190369Y0181946D01*
X0190363Y0181998D01*
X0190361Y0182050D01*
X0193361Y0182050D02*
X0193363Y0182102D01*
X0193369Y0182154D01*
X0193379Y0182205D01*
X0193392Y0182255D01*
X0193410Y0182305D01*
X0193431Y0182352D01*
X0193455Y0182398D01*
X0193484Y0182442D01*
X0193515Y0182484D01*
X0193549Y0182523D01*
X0193586Y0182560D01*
X0193626Y0182593D01*
X0193669Y0182624D01*
X0193713Y0182651D01*
X0193759Y0182675D01*
X0193808Y0182695D01*
X0193857Y0182711D01*
X0193908Y0182724D01*
X0193959Y0182733D01*
X0194011Y0182738D01*
X0194063Y0182739D01*
X0194115Y0182736D01*
X0194167Y0182729D01*
X0194218Y0182718D01*
X0194268Y0182704D01*
X0194317Y0182685D01*
X0194364Y0182663D01*
X0194409Y0182638D01*
X0194453Y0182609D01*
X0194494Y0182577D01*
X0194533Y0182542D01*
X0194568Y0182504D01*
X0194601Y0182463D01*
X0194631Y0182421D01*
X0194657Y0182376D01*
X0194680Y0182329D01*
X0194699Y0182280D01*
X0194715Y0182230D01*
X0194727Y0182180D01*
X0194735Y0182128D01*
X0194739Y0182076D01*
X0194739Y0182024D01*
X0194735Y0181972D01*
X0194727Y0181920D01*
X0194715Y0181870D01*
X0194699Y0181820D01*
X0194680Y0181771D01*
X0194657Y0181724D01*
X0194631Y0181679D01*
X0194601Y0181637D01*
X0194568Y0181596D01*
X0194533Y0181558D01*
X0194494Y0181523D01*
X0194453Y0181491D01*
X0194409Y0181462D01*
X0194364Y0181437D01*
X0194317Y0181415D01*
X0194268Y0181396D01*
X0194218Y0181382D01*
X0194167Y0181371D01*
X0194115Y0181364D01*
X0194063Y0181361D01*
X0194011Y0181362D01*
X0193959Y0181367D01*
X0193908Y0181376D01*
X0193857Y0181389D01*
X0193808Y0181405D01*
X0193759Y0181425D01*
X0193713Y0181449D01*
X0193669Y0181476D01*
X0193626Y0181507D01*
X0193586Y0181540D01*
X0193549Y0181577D01*
X0193515Y0181616D01*
X0193484Y0181658D01*
X0193455Y0181702D01*
X0193431Y0181748D01*
X0193410Y0181795D01*
X0193392Y0181845D01*
X0193379Y0181895D01*
X0193369Y0181946D01*
X0193363Y0181998D01*
X0193361Y0182050D01*
X0202861Y0191550D02*
X0202863Y0191602D01*
X0202869Y0191654D01*
X0202879Y0191705D01*
X0202892Y0191755D01*
X0202910Y0191805D01*
X0202931Y0191852D01*
X0202955Y0191898D01*
X0202984Y0191942D01*
X0203015Y0191984D01*
X0203049Y0192023D01*
X0203086Y0192060D01*
X0203126Y0192093D01*
X0203169Y0192124D01*
X0203213Y0192151D01*
X0203259Y0192175D01*
X0203308Y0192195D01*
X0203357Y0192211D01*
X0203408Y0192224D01*
X0203459Y0192233D01*
X0203511Y0192238D01*
X0203563Y0192239D01*
X0203615Y0192236D01*
X0203667Y0192229D01*
X0203718Y0192218D01*
X0203768Y0192204D01*
X0203817Y0192185D01*
X0203864Y0192163D01*
X0203909Y0192138D01*
X0203953Y0192109D01*
X0203994Y0192077D01*
X0204033Y0192042D01*
X0204068Y0192004D01*
X0204101Y0191963D01*
X0204131Y0191921D01*
X0204157Y0191876D01*
X0204180Y0191829D01*
X0204199Y0191780D01*
X0204215Y0191730D01*
X0204227Y0191680D01*
X0204235Y0191628D01*
X0204239Y0191576D01*
X0204239Y0191524D01*
X0204235Y0191472D01*
X0204227Y0191420D01*
X0204215Y0191370D01*
X0204199Y0191320D01*
X0204180Y0191271D01*
X0204157Y0191224D01*
X0204131Y0191179D01*
X0204101Y0191137D01*
X0204068Y0191096D01*
X0204033Y0191058D01*
X0203994Y0191023D01*
X0203953Y0190991D01*
X0203909Y0190962D01*
X0203864Y0190937D01*
X0203817Y0190915D01*
X0203768Y0190896D01*
X0203718Y0190882D01*
X0203667Y0190871D01*
X0203615Y0190864D01*
X0203563Y0190861D01*
X0203511Y0190862D01*
X0203459Y0190867D01*
X0203408Y0190876D01*
X0203357Y0190889D01*
X0203308Y0190905D01*
X0203259Y0190925D01*
X0203213Y0190949D01*
X0203169Y0190976D01*
X0203126Y0191007D01*
X0203086Y0191040D01*
X0203049Y0191077D01*
X0203015Y0191116D01*
X0202984Y0191158D01*
X0202955Y0191202D01*
X0202931Y0191248D01*
X0202910Y0191295D01*
X0202892Y0191345D01*
X0202879Y0191395D01*
X0202869Y0191446D01*
X0202863Y0191498D01*
X0202861Y0191550D01*
X0202861Y0194550D02*
X0202863Y0194602D01*
X0202869Y0194654D01*
X0202879Y0194705D01*
X0202892Y0194755D01*
X0202910Y0194805D01*
X0202931Y0194852D01*
X0202955Y0194898D01*
X0202984Y0194942D01*
X0203015Y0194984D01*
X0203049Y0195023D01*
X0203086Y0195060D01*
X0203126Y0195093D01*
X0203169Y0195124D01*
X0203213Y0195151D01*
X0203259Y0195175D01*
X0203308Y0195195D01*
X0203357Y0195211D01*
X0203408Y0195224D01*
X0203459Y0195233D01*
X0203511Y0195238D01*
X0203563Y0195239D01*
X0203615Y0195236D01*
X0203667Y0195229D01*
X0203718Y0195218D01*
X0203768Y0195204D01*
X0203817Y0195185D01*
X0203864Y0195163D01*
X0203909Y0195138D01*
X0203953Y0195109D01*
X0203994Y0195077D01*
X0204033Y0195042D01*
X0204068Y0195004D01*
X0204101Y0194963D01*
X0204131Y0194921D01*
X0204157Y0194876D01*
X0204180Y0194829D01*
X0204199Y0194780D01*
X0204215Y0194730D01*
X0204227Y0194680D01*
X0204235Y0194628D01*
X0204239Y0194576D01*
X0204239Y0194524D01*
X0204235Y0194472D01*
X0204227Y0194420D01*
X0204215Y0194370D01*
X0204199Y0194320D01*
X0204180Y0194271D01*
X0204157Y0194224D01*
X0204131Y0194179D01*
X0204101Y0194137D01*
X0204068Y0194096D01*
X0204033Y0194058D01*
X0203994Y0194023D01*
X0203953Y0193991D01*
X0203909Y0193962D01*
X0203864Y0193937D01*
X0203817Y0193915D01*
X0203768Y0193896D01*
X0203718Y0193882D01*
X0203667Y0193871D01*
X0203615Y0193864D01*
X0203563Y0193861D01*
X0203511Y0193862D01*
X0203459Y0193867D01*
X0203408Y0193876D01*
X0203357Y0193889D01*
X0203308Y0193905D01*
X0203259Y0193925D01*
X0203213Y0193949D01*
X0203169Y0193976D01*
X0203126Y0194007D01*
X0203086Y0194040D01*
X0203049Y0194077D01*
X0203015Y0194116D01*
X0202984Y0194158D01*
X0202955Y0194202D01*
X0202931Y0194248D01*
X0202910Y0194295D01*
X0202892Y0194345D01*
X0202879Y0194395D01*
X0202869Y0194446D01*
X0202863Y0194498D01*
X0202861Y0194550D01*
X0174361Y0222550D02*
X0174363Y0222602D01*
X0174369Y0222654D01*
X0174379Y0222705D01*
X0174392Y0222755D01*
X0174410Y0222805D01*
X0174431Y0222852D01*
X0174455Y0222898D01*
X0174484Y0222942D01*
X0174515Y0222984D01*
X0174549Y0223023D01*
X0174586Y0223060D01*
X0174626Y0223093D01*
X0174669Y0223124D01*
X0174713Y0223151D01*
X0174759Y0223175D01*
X0174808Y0223195D01*
X0174857Y0223211D01*
X0174908Y0223224D01*
X0174959Y0223233D01*
X0175011Y0223238D01*
X0175063Y0223239D01*
X0175115Y0223236D01*
X0175167Y0223229D01*
X0175218Y0223218D01*
X0175268Y0223204D01*
X0175317Y0223185D01*
X0175364Y0223163D01*
X0175409Y0223138D01*
X0175453Y0223109D01*
X0175494Y0223077D01*
X0175533Y0223042D01*
X0175568Y0223004D01*
X0175601Y0222963D01*
X0175631Y0222921D01*
X0175657Y0222876D01*
X0175680Y0222829D01*
X0175699Y0222780D01*
X0175715Y0222730D01*
X0175727Y0222680D01*
X0175735Y0222628D01*
X0175739Y0222576D01*
X0175739Y0222524D01*
X0175735Y0222472D01*
X0175727Y0222420D01*
X0175715Y0222370D01*
X0175699Y0222320D01*
X0175680Y0222271D01*
X0175657Y0222224D01*
X0175631Y0222179D01*
X0175601Y0222137D01*
X0175568Y0222096D01*
X0175533Y0222058D01*
X0175494Y0222023D01*
X0175453Y0221991D01*
X0175409Y0221962D01*
X0175364Y0221937D01*
X0175317Y0221915D01*
X0175268Y0221896D01*
X0175218Y0221882D01*
X0175167Y0221871D01*
X0175115Y0221864D01*
X0175063Y0221861D01*
X0175011Y0221862D01*
X0174959Y0221867D01*
X0174908Y0221876D01*
X0174857Y0221889D01*
X0174808Y0221905D01*
X0174759Y0221925D01*
X0174713Y0221949D01*
X0174669Y0221976D01*
X0174626Y0222007D01*
X0174586Y0222040D01*
X0174549Y0222077D01*
X0174515Y0222116D01*
X0174484Y0222158D01*
X0174455Y0222202D01*
X0174431Y0222248D01*
X0174410Y0222295D01*
X0174392Y0222345D01*
X0174379Y0222395D01*
X0174369Y0222446D01*
X0174363Y0222498D01*
X0174361Y0222550D01*
X0171361Y0222550D02*
X0171363Y0222602D01*
X0171369Y0222654D01*
X0171379Y0222705D01*
X0171392Y0222755D01*
X0171410Y0222805D01*
X0171431Y0222852D01*
X0171455Y0222898D01*
X0171484Y0222942D01*
X0171515Y0222984D01*
X0171549Y0223023D01*
X0171586Y0223060D01*
X0171626Y0223093D01*
X0171669Y0223124D01*
X0171713Y0223151D01*
X0171759Y0223175D01*
X0171808Y0223195D01*
X0171857Y0223211D01*
X0171908Y0223224D01*
X0171959Y0223233D01*
X0172011Y0223238D01*
X0172063Y0223239D01*
X0172115Y0223236D01*
X0172167Y0223229D01*
X0172218Y0223218D01*
X0172268Y0223204D01*
X0172317Y0223185D01*
X0172364Y0223163D01*
X0172409Y0223138D01*
X0172453Y0223109D01*
X0172494Y0223077D01*
X0172533Y0223042D01*
X0172568Y0223004D01*
X0172601Y0222963D01*
X0172631Y0222921D01*
X0172657Y0222876D01*
X0172680Y0222829D01*
X0172699Y0222780D01*
X0172715Y0222730D01*
X0172727Y0222680D01*
X0172735Y0222628D01*
X0172739Y0222576D01*
X0172739Y0222524D01*
X0172735Y0222472D01*
X0172727Y0222420D01*
X0172715Y0222370D01*
X0172699Y0222320D01*
X0172680Y0222271D01*
X0172657Y0222224D01*
X0172631Y0222179D01*
X0172601Y0222137D01*
X0172568Y0222096D01*
X0172533Y0222058D01*
X0172494Y0222023D01*
X0172453Y0221991D01*
X0172409Y0221962D01*
X0172364Y0221937D01*
X0172317Y0221915D01*
X0172268Y0221896D01*
X0172218Y0221882D01*
X0172167Y0221871D01*
X0172115Y0221864D01*
X0172063Y0221861D01*
X0172011Y0221862D01*
X0171959Y0221867D01*
X0171908Y0221876D01*
X0171857Y0221889D01*
X0171808Y0221905D01*
X0171759Y0221925D01*
X0171713Y0221949D01*
X0171669Y0221976D01*
X0171626Y0222007D01*
X0171586Y0222040D01*
X0171549Y0222077D01*
X0171515Y0222116D01*
X0171484Y0222158D01*
X0171455Y0222202D01*
X0171431Y0222248D01*
X0171410Y0222295D01*
X0171392Y0222345D01*
X0171379Y0222395D01*
X0171369Y0222446D01*
X0171363Y0222498D01*
X0171361Y0222550D01*
X0166597Y0234550D02*
X0166599Y0234658D01*
X0166605Y0234767D01*
X0166615Y0234875D01*
X0166629Y0234982D01*
X0166647Y0235089D01*
X0166668Y0235196D01*
X0166694Y0235301D01*
X0166724Y0235406D01*
X0166757Y0235509D01*
X0166794Y0235611D01*
X0166835Y0235711D01*
X0166879Y0235810D01*
X0166928Y0235908D01*
X0166979Y0236003D01*
X0167034Y0236096D01*
X0167093Y0236188D01*
X0167155Y0236277D01*
X0167220Y0236364D01*
X0167288Y0236448D01*
X0167359Y0236530D01*
X0167433Y0236609D01*
X0167510Y0236685D01*
X0167590Y0236759D01*
X0167673Y0236829D01*
X0167758Y0236897D01*
X0167845Y0236961D01*
X0167935Y0237022D01*
X0168027Y0237080D01*
X0168121Y0237134D01*
X0168217Y0237185D01*
X0168314Y0237232D01*
X0168414Y0237276D01*
X0168515Y0237316D01*
X0168617Y0237352D01*
X0168720Y0237384D01*
X0168825Y0237413D01*
X0168931Y0237437D01*
X0169037Y0237458D01*
X0169144Y0237475D01*
X0169252Y0237488D01*
X0169360Y0237497D01*
X0169469Y0237502D01*
X0169577Y0237503D01*
X0169686Y0237500D01*
X0169794Y0237493D01*
X0169902Y0237482D01*
X0170009Y0237467D01*
X0170116Y0237448D01*
X0170222Y0237425D01*
X0170327Y0237399D01*
X0170432Y0237368D01*
X0170534Y0237334D01*
X0170636Y0237296D01*
X0170736Y0237254D01*
X0170835Y0237209D01*
X0170932Y0237160D01*
X0171026Y0237107D01*
X0171119Y0237051D01*
X0171210Y0236992D01*
X0171299Y0236929D01*
X0171385Y0236864D01*
X0171469Y0236795D01*
X0171550Y0236723D01*
X0171628Y0236648D01*
X0171704Y0236570D01*
X0171777Y0236489D01*
X0171847Y0236406D01*
X0171913Y0236321D01*
X0171977Y0236233D01*
X0172037Y0236142D01*
X0172094Y0236050D01*
X0172147Y0235955D01*
X0172197Y0235859D01*
X0172243Y0235761D01*
X0172286Y0235661D01*
X0172325Y0235560D01*
X0172360Y0235457D01*
X0172392Y0235354D01*
X0172419Y0235249D01*
X0172443Y0235143D01*
X0172463Y0235036D01*
X0172479Y0234929D01*
X0172491Y0234821D01*
X0172499Y0234713D01*
X0172503Y0234604D01*
X0172503Y0234496D01*
X0172499Y0234387D01*
X0172491Y0234279D01*
X0172479Y0234171D01*
X0172463Y0234064D01*
X0172443Y0233957D01*
X0172419Y0233851D01*
X0172392Y0233746D01*
X0172360Y0233643D01*
X0172325Y0233540D01*
X0172286Y0233439D01*
X0172243Y0233339D01*
X0172197Y0233241D01*
X0172147Y0233145D01*
X0172094Y0233050D01*
X0172037Y0232958D01*
X0171977Y0232867D01*
X0171913Y0232779D01*
X0171847Y0232694D01*
X0171777Y0232611D01*
X0171704Y0232530D01*
X0171628Y0232452D01*
X0171550Y0232377D01*
X0171469Y0232305D01*
X0171385Y0232236D01*
X0171299Y0232171D01*
X0171210Y0232108D01*
X0171119Y0232049D01*
X0171027Y0231993D01*
X0170932Y0231940D01*
X0170835Y0231891D01*
X0170736Y0231846D01*
X0170636Y0231804D01*
X0170534Y0231766D01*
X0170432Y0231732D01*
X0170327Y0231701D01*
X0170222Y0231675D01*
X0170116Y0231652D01*
X0170009Y0231633D01*
X0169902Y0231618D01*
X0169794Y0231607D01*
X0169686Y0231600D01*
X0169577Y0231597D01*
X0169469Y0231598D01*
X0169360Y0231603D01*
X0169252Y0231612D01*
X0169144Y0231625D01*
X0169037Y0231642D01*
X0168931Y0231663D01*
X0168825Y0231687D01*
X0168720Y0231716D01*
X0168617Y0231748D01*
X0168515Y0231784D01*
X0168414Y0231824D01*
X0168314Y0231868D01*
X0168217Y0231915D01*
X0168121Y0231966D01*
X0168027Y0232020D01*
X0167935Y0232078D01*
X0167845Y0232139D01*
X0167758Y0232203D01*
X0167673Y0232271D01*
X0167590Y0232341D01*
X0167510Y0232415D01*
X0167433Y0232491D01*
X0167359Y0232570D01*
X0167288Y0232652D01*
X0167220Y0232736D01*
X0167155Y0232823D01*
X0167093Y0232912D01*
X0167034Y0233004D01*
X0166979Y0233097D01*
X0166928Y0233192D01*
X0166879Y0233290D01*
X0166835Y0233389D01*
X0166794Y0233489D01*
X0166757Y0233591D01*
X0166724Y0233694D01*
X0166694Y0233799D01*
X0166668Y0233904D01*
X0166647Y0234011D01*
X0166629Y0234118D01*
X0166615Y0234225D01*
X0166605Y0234333D01*
X0166599Y0234442D01*
X0166597Y0234550D01*
X0202861Y0246550D02*
X0202863Y0246602D01*
X0202869Y0246654D01*
X0202879Y0246705D01*
X0202892Y0246755D01*
X0202910Y0246805D01*
X0202931Y0246852D01*
X0202955Y0246898D01*
X0202984Y0246942D01*
X0203015Y0246984D01*
X0203049Y0247023D01*
X0203086Y0247060D01*
X0203126Y0247093D01*
X0203169Y0247124D01*
X0203213Y0247151D01*
X0203259Y0247175D01*
X0203308Y0247195D01*
X0203357Y0247211D01*
X0203408Y0247224D01*
X0203459Y0247233D01*
X0203511Y0247238D01*
X0203563Y0247239D01*
X0203615Y0247236D01*
X0203667Y0247229D01*
X0203718Y0247218D01*
X0203768Y0247204D01*
X0203817Y0247185D01*
X0203864Y0247163D01*
X0203909Y0247138D01*
X0203953Y0247109D01*
X0203994Y0247077D01*
X0204033Y0247042D01*
X0204068Y0247004D01*
X0204101Y0246963D01*
X0204131Y0246921D01*
X0204157Y0246876D01*
X0204180Y0246829D01*
X0204199Y0246780D01*
X0204215Y0246730D01*
X0204227Y0246680D01*
X0204235Y0246628D01*
X0204239Y0246576D01*
X0204239Y0246524D01*
X0204235Y0246472D01*
X0204227Y0246420D01*
X0204215Y0246370D01*
X0204199Y0246320D01*
X0204180Y0246271D01*
X0204157Y0246224D01*
X0204131Y0246179D01*
X0204101Y0246137D01*
X0204068Y0246096D01*
X0204033Y0246058D01*
X0203994Y0246023D01*
X0203953Y0245991D01*
X0203909Y0245962D01*
X0203864Y0245937D01*
X0203817Y0245915D01*
X0203768Y0245896D01*
X0203718Y0245882D01*
X0203667Y0245871D01*
X0203615Y0245864D01*
X0203563Y0245861D01*
X0203511Y0245862D01*
X0203459Y0245867D01*
X0203408Y0245876D01*
X0203357Y0245889D01*
X0203308Y0245905D01*
X0203259Y0245925D01*
X0203213Y0245949D01*
X0203169Y0245976D01*
X0203126Y0246007D01*
X0203086Y0246040D01*
X0203049Y0246077D01*
X0203015Y0246116D01*
X0202984Y0246158D01*
X0202955Y0246202D01*
X0202931Y0246248D01*
X0202910Y0246295D01*
X0202892Y0246345D01*
X0202879Y0246395D01*
X0202869Y0246446D01*
X0202863Y0246498D01*
X0202861Y0246550D01*
X0202861Y0249550D02*
X0202863Y0249602D01*
X0202869Y0249654D01*
X0202879Y0249705D01*
X0202892Y0249755D01*
X0202910Y0249805D01*
X0202931Y0249852D01*
X0202955Y0249898D01*
X0202984Y0249942D01*
X0203015Y0249984D01*
X0203049Y0250023D01*
X0203086Y0250060D01*
X0203126Y0250093D01*
X0203169Y0250124D01*
X0203213Y0250151D01*
X0203259Y0250175D01*
X0203308Y0250195D01*
X0203357Y0250211D01*
X0203408Y0250224D01*
X0203459Y0250233D01*
X0203511Y0250238D01*
X0203563Y0250239D01*
X0203615Y0250236D01*
X0203667Y0250229D01*
X0203718Y0250218D01*
X0203768Y0250204D01*
X0203817Y0250185D01*
X0203864Y0250163D01*
X0203909Y0250138D01*
X0203953Y0250109D01*
X0203994Y0250077D01*
X0204033Y0250042D01*
X0204068Y0250004D01*
X0204101Y0249963D01*
X0204131Y0249921D01*
X0204157Y0249876D01*
X0204180Y0249829D01*
X0204199Y0249780D01*
X0204215Y0249730D01*
X0204227Y0249680D01*
X0204235Y0249628D01*
X0204239Y0249576D01*
X0204239Y0249524D01*
X0204235Y0249472D01*
X0204227Y0249420D01*
X0204215Y0249370D01*
X0204199Y0249320D01*
X0204180Y0249271D01*
X0204157Y0249224D01*
X0204131Y0249179D01*
X0204101Y0249137D01*
X0204068Y0249096D01*
X0204033Y0249058D01*
X0203994Y0249023D01*
X0203953Y0248991D01*
X0203909Y0248962D01*
X0203864Y0248937D01*
X0203817Y0248915D01*
X0203768Y0248896D01*
X0203718Y0248882D01*
X0203667Y0248871D01*
X0203615Y0248864D01*
X0203563Y0248861D01*
X0203511Y0248862D01*
X0203459Y0248867D01*
X0203408Y0248876D01*
X0203357Y0248889D01*
X0203308Y0248905D01*
X0203259Y0248925D01*
X0203213Y0248949D01*
X0203169Y0248976D01*
X0203126Y0249007D01*
X0203086Y0249040D01*
X0203049Y0249077D01*
X0203015Y0249116D01*
X0202984Y0249158D01*
X0202955Y0249202D01*
X0202931Y0249248D01*
X0202910Y0249295D01*
X0202892Y0249345D01*
X0202879Y0249395D01*
X0202869Y0249446D01*
X0202863Y0249498D01*
X0202861Y0249550D01*
X0202861Y0291550D02*
X0202863Y0291602D01*
X0202869Y0291654D01*
X0202879Y0291705D01*
X0202892Y0291755D01*
X0202910Y0291805D01*
X0202931Y0291852D01*
X0202955Y0291898D01*
X0202984Y0291942D01*
X0203015Y0291984D01*
X0203049Y0292023D01*
X0203086Y0292060D01*
X0203126Y0292093D01*
X0203169Y0292124D01*
X0203213Y0292151D01*
X0203259Y0292175D01*
X0203308Y0292195D01*
X0203357Y0292211D01*
X0203408Y0292224D01*
X0203459Y0292233D01*
X0203511Y0292238D01*
X0203563Y0292239D01*
X0203615Y0292236D01*
X0203667Y0292229D01*
X0203718Y0292218D01*
X0203768Y0292204D01*
X0203817Y0292185D01*
X0203864Y0292163D01*
X0203909Y0292138D01*
X0203953Y0292109D01*
X0203994Y0292077D01*
X0204033Y0292042D01*
X0204068Y0292004D01*
X0204101Y0291963D01*
X0204131Y0291921D01*
X0204157Y0291876D01*
X0204180Y0291829D01*
X0204199Y0291780D01*
X0204215Y0291730D01*
X0204227Y0291680D01*
X0204235Y0291628D01*
X0204239Y0291576D01*
X0204239Y0291524D01*
X0204235Y0291472D01*
X0204227Y0291420D01*
X0204215Y0291370D01*
X0204199Y0291320D01*
X0204180Y0291271D01*
X0204157Y0291224D01*
X0204131Y0291179D01*
X0204101Y0291137D01*
X0204068Y0291096D01*
X0204033Y0291058D01*
X0203994Y0291023D01*
X0203953Y0290991D01*
X0203909Y0290962D01*
X0203864Y0290937D01*
X0203817Y0290915D01*
X0203768Y0290896D01*
X0203718Y0290882D01*
X0203667Y0290871D01*
X0203615Y0290864D01*
X0203563Y0290861D01*
X0203511Y0290862D01*
X0203459Y0290867D01*
X0203408Y0290876D01*
X0203357Y0290889D01*
X0203308Y0290905D01*
X0203259Y0290925D01*
X0203213Y0290949D01*
X0203169Y0290976D01*
X0203126Y0291007D01*
X0203086Y0291040D01*
X0203049Y0291077D01*
X0203015Y0291116D01*
X0202984Y0291158D01*
X0202955Y0291202D01*
X0202931Y0291248D01*
X0202910Y0291295D01*
X0202892Y0291345D01*
X0202879Y0291395D01*
X0202869Y0291446D01*
X0202863Y0291498D01*
X0202861Y0291550D01*
X0202861Y0294550D02*
X0202863Y0294602D01*
X0202869Y0294654D01*
X0202879Y0294705D01*
X0202892Y0294755D01*
X0202910Y0294805D01*
X0202931Y0294852D01*
X0202955Y0294898D01*
X0202984Y0294942D01*
X0203015Y0294984D01*
X0203049Y0295023D01*
X0203086Y0295060D01*
X0203126Y0295093D01*
X0203169Y0295124D01*
X0203213Y0295151D01*
X0203259Y0295175D01*
X0203308Y0295195D01*
X0203357Y0295211D01*
X0203408Y0295224D01*
X0203459Y0295233D01*
X0203511Y0295238D01*
X0203563Y0295239D01*
X0203615Y0295236D01*
X0203667Y0295229D01*
X0203718Y0295218D01*
X0203768Y0295204D01*
X0203817Y0295185D01*
X0203864Y0295163D01*
X0203909Y0295138D01*
X0203953Y0295109D01*
X0203994Y0295077D01*
X0204033Y0295042D01*
X0204068Y0295004D01*
X0204101Y0294963D01*
X0204131Y0294921D01*
X0204157Y0294876D01*
X0204180Y0294829D01*
X0204199Y0294780D01*
X0204215Y0294730D01*
X0204227Y0294680D01*
X0204235Y0294628D01*
X0204239Y0294576D01*
X0204239Y0294524D01*
X0204235Y0294472D01*
X0204227Y0294420D01*
X0204215Y0294370D01*
X0204199Y0294320D01*
X0204180Y0294271D01*
X0204157Y0294224D01*
X0204131Y0294179D01*
X0204101Y0294137D01*
X0204068Y0294096D01*
X0204033Y0294058D01*
X0203994Y0294023D01*
X0203953Y0293991D01*
X0203909Y0293962D01*
X0203864Y0293937D01*
X0203817Y0293915D01*
X0203768Y0293896D01*
X0203718Y0293882D01*
X0203667Y0293871D01*
X0203615Y0293864D01*
X0203563Y0293861D01*
X0203511Y0293862D01*
X0203459Y0293867D01*
X0203408Y0293876D01*
X0203357Y0293889D01*
X0203308Y0293905D01*
X0203259Y0293925D01*
X0203213Y0293949D01*
X0203169Y0293976D01*
X0203126Y0294007D01*
X0203086Y0294040D01*
X0203049Y0294077D01*
X0203015Y0294116D01*
X0202984Y0294158D01*
X0202955Y0294202D01*
X0202931Y0294248D01*
X0202910Y0294295D01*
X0202892Y0294345D01*
X0202879Y0294395D01*
X0202869Y0294446D01*
X0202863Y0294498D01*
X0202861Y0294550D01*
X0202861Y0316550D02*
X0202863Y0316602D01*
X0202869Y0316654D01*
X0202879Y0316705D01*
X0202892Y0316755D01*
X0202910Y0316805D01*
X0202931Y0316852D01*
X0202955Y0316898D01*
X0202984Y0316942D01*
X0203015Y0316984D01*
X0203049Y0317023D01*
X0203086Y0317060D01*
X0203126Y0317093D01*
X0203169Y0317124D01*
X0203213Y0317151D01*
X0203259Y0317175D01*
X0203308Y0317195D01*
X0203357Y0317211D01*
X0203408Y0317224D01*
X0203459Y0317233D01*
X0203511Y0317238D01*
X0203563Y0317239D01*
X0203615Y0317236D01*
X0203667Y0317229D01*
X0203718Y0317218D01*
X0203768Y0317204D01*
X0203817Y0317185D01*
X0203864Y0317163D01*
X0203909Y0317138D01*
X0203953Y0317109D01*
X0203994Y0317077D01*
X0204033Y0317042D01*
X0204068Y0317004D01*
X0204101Y0316963D01*
X0204131Y0316921D01*
X0204157Y0316876D01*
X0204180Y0316829D01*
X0204199Y0316780D01*
X0204215Y0316730D01*
X0204227Y0316680D01*
X0204235Y0316628D01*
X0204239Y0316576D01*
X0204239Y0316524D01*
X0204235Y0316472D01*
X0204227Y0316420D01*
X0204215Y0316370D01*
X0204199Y0316320D01*
X0204180Y0316271D01*
X0204157Y0316224D01*
X0204131Y0316179D01*
X0204101Y0316137D01*
X0204068Y0316096D01*
X0204033Y0316058D01*
X0203994Y0316023D01*
X0203953Y0315991D01*
X0203909Y0315962D01*
X0203864Y0315937D01*
X0203817Y0315915D01*
X0203768Y0315896D01*
X0203718Y0315882D01*
X0203667Y0315871D01*
X0203615Y0315864D01*
X0203563Y0315861D01*
X0203511Y0315862D01*
X0203459Y0315867D01*
X0203408Y0315876D01*
X0203357Y0315889D01*
X0203308Y0315905D01*
X0203259Y0315925D01*
X0203213Y0315949D01*
X0203169Y0315976D01*
X0203126Y0316007D01*
X0203086Y0316040D01*
X0203049Y0316077D01*
X0203015Y0316116D01*
X0202984Y0316158D01*
X0202955Y0316202D01*
X0202931Y0316248D01*
X0202910Y0316295D01*
X0202892Y0316345D01*
X0202879Y0316395D01*
X0202869Y0316446D01*
X0202863Y0316498D01*
X0202861Y0316550D01*
X0126097Y0267550D02*
X0126099Y0267658D01*
X0126105Y0267767D01*
X0126115Y0267875D01*
X0126129Y0267982D01*
X0126147Y0268089D01*
X0126168Y0268196D01*
X0126194Y0268301D01*
X0126224Y0268406D01*
X0126257Y0268509D01*
X0126294Y0268611D01*
X0126335Y0268711D01*
X0126379Y0268810D01*
X0126428Y0268908D01*
X0126479Y0269003D01*
X0126534Y0269096D01*
X0126593Y0269188D01*
X0126655Y0269277D01*
X0126720Y0269364D01*
X0126788Y0269448D01*
X0126859Y0269530D01*
X0126933Y0269609D01*
X0127010Y0269685D01*
X0127090Y0269759D01*
X0127173Y0269829D01*
X0127258Y0269897D01*
X0127345Y0269961D01*
X0127435Y0270022D01*
X0127527Y0270080D01*
X0127621Y0270134D01*
X0127717Y0270185D01*
X0127814Y0270232D01*
X0127914Y0270276D01*
X0128015Y0270316D01*
X0128117Y0270352D01*
X0128220Y0270384D01*
X0128325Y0270413D01*
X0128431Y0270437D01*
X0128537Y0270458D01*
X0128644Y0270475D01*
X0128752Y0270488D01*
X0128860Y0270497D01*
X0128969Y0270502D01*
X0129077Y0270503D01*
X0129186Y0270500D01*
X0129294Y0270493D01*
X0129402Y0270482D01*
X0129509Y0270467D01*
X0129616Y0270448D01*
X0129722Y0270425D01*
X0129827Y0270399D01*
X0129932Y0270368D01*
X0130034Y0270334D01*
X0130136Y0270296D01*
X0130236Y0270254D01*
X0130335Y0270209D01*
X0130432Y0270160D01*
X0130526Y0270107D01*
X0130619Y0270051D01*
X0130710Y0269992D01*
X0130799Y0269929D01*
X0130885Y0269864D01*
X0130969Y0269795D01*
X0131050Y0269723D01*
X0131128Y0269648D01*
X0131204Y0269570D01*
X0131277Y0269489D01*
X0131347Y0269406D01*
X0131413Y0269321D01*
X0131477Y0269233D01*
X0131537Y0269142D01*
X0131594Y0269050D01*
X0131647Y0268955D01*
X0131697Y0268859D01*
X0131743Y0268761D01*
X0131786Y0268661D01*
X0131825Y0268560D01*
X0131860Y0268457D01*
X0131892Y0268354D01*
X0131919Y0268249D01*
X0131943Y0268143D01*
X0131963Y0268036D01*
X0131979Y0267929D01*
X0131991Y0267821D01*
X0131999Y0267713D01*
X0132003Y0267604D01*
X0132003Y0267496D01*
X0131999Y0267387D01*
X0131991Y0267279D01*
X0131979Y0267171D01*
X0131963Y0267064D01*
X0131943Y0266957D01*
X0131919Y0266851D01*
X0131892Y0266746D01*
X0131860Y0266643D01*
X0131825Y0266540D01*
X0131786Y0266439D01*
X0131743Y0266339D01*
X0131697Y0266241D01*
X0131647Y0266145D01*
X0131594Y0266050D01*
X0131537Y0265958D01*
X0131477Y0265867D01*
X0131413Y0265779D01*
X0131347Y0265694D01*
X0131277Y0265611D01*
X0131204Y0265530D01*
X0131128Y0265452D01*
X0131050Y0265377D01*
X0130969Y0265305D01*
X0130885Y0265236D01*
X0130799Y0265171D01*
X0130710Y0265108D01*
X0130619Y0265049D01*
X0130527Y0264993D01*
X0130432Y0264940D01*
X0130335Y0264891D01*
X0130236Y0264846D01*
X0130136Y0264804D01*
X0130034Y0264766D01*
X0129932Y0264732D01*
X0129827Y0264701D01*
X0129722Y0264675D01*
X0129616Y0264652D01*
X0129509Y0264633D01*
X0129402Y0264618D01*
X0129294Y0264607D01*
X0129186Y0264600D01*
X0129077Y0264597D01*
X0128969Y0264598D01*
X0128860Y0264603D01*
X0128752Y0264612D01*
X0128644Y0264625D01*
X0128537Y0264642D01*
X0128431Y0264663D01*
X0128325Y0264687D01*
X0128220Y0264716D01*
X0128117Y0264748D01*
X0128015Y0264784D01*
X0127914Y0264824D01*
X0127814Y0264868D01*
X0127717Y0264915D01*
X0127621Y0264966D01*
X0127527Y0265020D01*
X0127435Y0265078D01*
X0127345Y0265139D01*
X0127258Y0265203D01*
X0127173Y0265271D01*
X0127090Y0265341D01*
X0127010Y0265415D01*
X0126933Y0265491D01*
X0126859Y0265570D01*
X0126788Y0265652D01*
X0126720Y0265736D01*
X0126655Y0265823D01*
X0126593Y0265912D01*
X0126534Y0266004D01*
X0126479Y0266097D01*
X0126428Y0266192D01*
X0126379Y0266290D01*
X0126335Y0266389D01*
X0126294Y0266489D01*
X0126257Y0266591D01*
X0126224Y0266694D01*
X0126194Y0266799D01*
X0126168Y0266904D01*
X0126147Y0267011D01*
X0126129Y0267118D01*
X0126115Y0267225D01*
X0126105Y0267333D01*
X0126099Y0267442D01*
X0126097Y0267550D01*
X0101861Y0249550D02*
X0101863Y0249602D01*
X0101869Y0249654D01*
X0101879Y0249705D01*
X0101892Y0249755D01*
X0101910Y0249805D01*
X0101931Y0249852D01*
X0101955Y0249898D01*
X0101984Y0249942D01*
X0102015Y0249984D01*
X0102049Y0250023D01*
X0102086Y0250060D01*
X0102126Y0250093D01*
X0102169Y0250124D01*
X0102213Y0250151D01*
X0102259Y0250175D01*
X0102308Y0250195D01*
X0102357Y0250211D01*
X0102408Y0250224D01*
X0102459Y0250233D01*
X0102511Y0250238D01*
X0102563Y0250239D01*
X0102615Y0250236D01*
X0102667Y0250229D01*
X0102718Y0250218D01*
X0102768Y0250204D01*
X0102817Y0250185D01*
X0102864Y0250163D01*
X0102909Y0250138D01*
X0102953Y0250109D01*
X0102994Y0250077D01*
X0103033Y0250042D01*
X0103068Y0250004D01*
X0103101Y0249963D01*
X0103131Y0249921D01*
X0103157Y0249876D01*
X0103180Y0249829D01*
X0103199Y0249780D01*
X0103215Y0249730D01*
X0103227Y0249680D01*
X0103235Y0249628D01*
X0103239Y0249576D01*
X0103239Y0249524D01*
X0103235Y0249472D01*
X0103227Y0249420D01*
X0103215Y0249370D01*
X0103199Y0249320D01*
X0103180Y0249271D01*
X0103157Y0249224D01*
X0103131Y0249179D01*
X0103101Y0249137D01*
X0103068Y0249096D01*
X0103033Y0249058D01*
X0102994Y0249023D01*
X0102953Y0248991D01*
X0102909Y0248962D01*
X0102864Y0248937D01*
X0102817Y0248915D01*
X0102768Y0248896D01*
X0102718Y0248882D01*
X0102667Y0248871D01*
X0102615Y0248864D01*
X0102563Y0248861D01*
X0102511Y0248862D01*
X0102459Y0248867D01*
X0102408Y0248876D01*
X0102357Y0248889D01*
X0102308Y0248905D01*
X0102259Y0248925D01*
X0102213Y0248949D01*
X0102169Y0248976D01*
X0102126Y0249007D01*
X0102086Y0249040D01*
X0102049Y0249077D01*
X0102015Y0249116D01*
X0101984Y0249158D01*
X0101955Y0249202D01*
X0101931Y0249248D01*
X0101910Y0249295D01*
X0101892Y0249345D01*
X0101879Y0249395D01*
X0101869Y0249446D01*
X0101863Y0249498D01*
X0101861Y0249550D01*
X0101861Y0246550D02*
X0101863Y0246602D01*
X0101869Y0246654D01*
X0101879Y0246705D01*
X0101892Y0246755D01*
X0101910Y0246805D01*
X0101931Y0246852D01*
X0101955Y0246898D01*
X0101984Y0246942D01*
X0102015Y0246984D01*
X0102049Y0247023D01*
X0102086Y0247060D01*
X0102126Y0247093D01*
X0102169Y0247124D01*
X0102213Y0247151D01*
X0102259Y0247175D01*
X0102308Y0247195D01*
X0102357Y0247211D01*
X0102408Y0247224D01*
X0102459Y0247233D01*
X0102511Y0247238D01*
X0102563Y0247239D01*
X0102615Y0247236D01*
X0102667Y0247229D01*
X0102718Y0247218D01*
X0102768Y0247204D01*
X0102817Y0247185D01*
X0102864Y0247163D01*
X0102909Y0247138D01*
X0102953Y0247109D01*
X0102994Y0247077D01*
X0103033Y0247042D01*
X0103068Y0247004D01*
X0103101Y0246963D01*
X0103131Y0246921D01*
X0103157Y0246876D01*
X0103180Y0246829D01*
X0103199Y0246780D01*
X0103215Y0246730D01*
X0103227Y0246680D01*
X0103235Y0246628D01*
X0103239Y0246576D01*
X0103239Y0246524D01*
X0103235Y0246472D01*
X0103227Y0246420D01*
X0103215Y0246370D01*
X0103199Y0246320D01*
X0103180Y0246271D01*
X0103157Y0246224D01*
X0103131Y0246179D01*
X0103101Y0246137D01*
X0103068Y0246096D01*
X0103033Y0246058D01*
X0102994Y0246023D01*
X0102953Y0245991D01*
X0102909Y0245962D01*
X0102864Y0245937D01*
X0102817Y0245915D01*
X0102768Y0245896D01*
X0102718Y0245882D01*
X0102667Y0245871D01*
X0102615Y0245864D01*
X0102563Y0245861D01*
X0102511Y0245862D01*
X0102459Y0245867D01*
X0102408Y0245876D01*
X0102357Y0245889D01*
X0102308Y0245905D01*
X0102259Y0245925D01*
X0102213Y0245949D01*
X0102169Y0245976D01*
X0102126Y0246007D01*
X0102086Y0246040D01*
X0102049Y0246077D01*
X0102015Y0246116D01*
X0101984Y0246158D01*
X0101955Y0246202D01*
X0101931Y0246248D01*
X0101910Y0246295D01*
X0101892Y0246345D01*
X0101879Y0246395D01*
X0101869Y0246446D01*
X0101863Y0246498D01*
X0101861Y0246550D01*
X0108861Y0222550D02*
X0108863Y0222602D01*
X0108869Y0222654D01*
X0108879Y0222705D01*
X0108892Y0222755D01*
X0108910Y0222805D01*
X0108931Y0222852D01*
X0108955Y0222898D01*
X0108984Y0222942D01*
X0109015Y0222984D01*
X0109049Y0223023D01*
X0109086Y0223060D01*
X0109126Y0223093D01*
X0109169Y0223124D01*
X0109213Y0223151D01*
X0109259Y0223175D01*
X0109308Y0223195D01*
X0109357Y0223211D01*
X0109408Y0223224D01*
X0109459Y0223233D01*
X0109511Y0223238D01*
X0109563Y0223239D01*
X0109615Y0223236D01*
X0109667Y0223229D01*
X0109718Y0223218D01*
X0109768Y0223204D01*
X0109817Y0223185D01*
X0109864Y0223163D01*
X0109909Y0223138D01*
X0109953Y0223109D01*
X0109994Y0223077D01*
X0110033Y0223042D01*
X0110068Y0223004D01*
X0110101Y0222963D01*
X0110131Y0222921D01*
X0110157Y0222876D01*
X0110180Y0222829D01*
X0110199Y0222780D01*
X0110215Y0222730D01*
X0110227Y0222680D01*
X0110235Y0222628D01*
X0110239Y0222576D01*
X0110239Y0222524D01*
X0110235Y0222472D01*
X0110227Y0222420D01*
X0110215Y0222370D01*
X0110199Y0222320D01*
X0110180Y0222271D01*
X0110157Y0222224D01*
X0110131Y0222179D01*
X0110101Y0222137D01*
X0110068Y0222096D01*
X0110033Y0222058D01*
X0109994Y0222023D01*
X0109953Y0221991D01*
X0109909Y0221962D01*
X0109864Y0221937D01*
X0109817Y0221915D01*
X0109768Y0221896D01*
X0109718Y0221882D01*
X0109667Y0221871D01*
X0109615Y0221864D01*
X0109563Y0221861D01*
X0109511Y0221862D01*
X0109459Y0221867D01*
X0109408Y0221876D01*
X0109357Y0221889D01*
X0109308Y0221905D01*
X0109259Y0221925D01*
X0109213Y0221949D01*
X0109169Y0221976D01*
X0109126Y0222007D01*
X0109086Y0222040D01*
X0109049Y0222077D01*
X0109015Y0222116D01*
X0108984Y0222158D01*
X0108955Y0222202D01*
X0108931Y0222248D01*
X0108910Y0222295D01*
X0108892Y0222345D01*
X0108879Y0222395D01*
X0108869Y0222446D01*
X0108863Y0222498D01*
X0108861Y0222550D01*
X0111861Y0222550D02*
X0111863Y0222602D01*
X0111869Y0222654D01*
X0111879Y0222705D01*
X0111892Y0222755D01*
X0111910Y0222805D01*
X0111931Y0222852D01*
X0111955Y0222898D01*
X0111984Y0222942D01*
X0112015Y0222984D01*
X0112049Y0223023D01*
X0112086Y0223060D01*
X0112126Y0223093D01*
X0112169Y0223124D01*
X0112213Y0223151D01*
X0112259Y0223175D01*
X0112308Y0223195D01*
X0112357Y0223211D01*
X0112408Y0223224D01*
X0112459Y0223233D01*
X0112511Y0223238D01*
X0112563Y0223239D01*
X0112615Y0223236D01*
X0112667Y0223229D01*
X0112718Y0223218D01*
X0112768Y0223204D01*
X0112817Y0223185D01*
X0112864Y0223163D01*
X0112909Y0223138D01*
X0112953Y0223109D01*
X0112994Y0223077D01*
X0113033Y0223042D01*
X0113068Y0223004D01*
X0113101Y0222963D01*
X0113131Y0222921D01*
X0113157Y0222876D01*
X0113180Y0222829D01*
X0113199Y0222780D01*
X0113215Y0222730D01*
X0113227Y0222680D01*
X0113235Y0222628D01*
X0113239Y0222576D01*
X0113239Y0222524D01*
X0113235Y0222472D01*
X0113227Y0222420D01*
X0113215Y0222370D01*
X0113199Y0222320D01*
X0113180Y0222271D01*
X0113157Y0222224D01*
X0113131Y0222179D01*
X0113101Y0222137D01*
X0113068Y0222096D01*
X0113033Y0222058D01*
X0112994Y0222023D01*
X0112953Y0221991D01*
X0112909Y0221962D01*
X0112864Y0221937D01*
X0112817Y0221915D01*
X0112768Y0221896D01*
X0112718Y0221882D01*
X0112667Y0221871D01*
X0112615Y0221864D01*
X0112563Y0221861D01*
X0112511Y0221862D01*
X0112459Y0221867D01*
X0112408Y0221876D01*
X0112357Y0221889D01*
X0112308Y0221905D01*
X0112259Y0221925D01*
X0112213Y0221949D01*
X0112169Y0221976D01*
X0112126Y0222007D01*
X0112086Y0222040D01*
X0112049Y0222077D01*
X0112015Y0222116D01*
X0111984Y0222158D01*
X0111955Y0222202D01*
X0111931Y0222248D01*
X0111910Y0222295D01*
X0111892Y0222345D01*
X0111879Y0222395D01*
X0111869Y0222446D01*
X0111863Y0222498D01*
X0111861Y0222550D01*
X0144361Y0194550D02*
X0144363Y0194602D01*
X0144369Y0194654D01*
X0144379Y0194705D01*
X0144392Y0194755D01*
X0144410Y0194805D01*
X0144431Y0194852D01*
X0144455Y0194898D01*
X0144484Y0194942D01*
X0144515Y0194984D01*
X0144549Y0195023D01*
X0144586Y0195060D01*
X0144626Y0195093D01*
X0144669Y0195124D01*
X0144713Y0195151D01*
X0144759Y0195175D01*
X0144808Y0195195D01*
X0144857Y0195211D01*
X0144908Y0195224D01*
X0144959Y0195233D01*
X0145011Y0195238D01*
X0145063Y0195239D01*
X0145115Y0195236D01*
X0145167Y0195229D01*
X0145218Y0195218D01*
X0145268Y0195204D01*
X0145317Y0195185D01*
X0145364Y0195163D01*
X0145409Y0195138D01*
X0145453Y0195109D01*
X0145494Y0195077D01*
X0145533Y0195042D01*
X0145568Y0195004D01*
X0145601Y0194963D01*
X0145631Y0194921D01*
X0145657Y0194876D01*
X0145680Y0194829D01*
X0145699Y0194780D01*
X0145715Y0194730D01*
X0145727Y0194680D01*
X0145735Y0194628D01*
X0145739Y0194576D01*
X0145739Y0194524D01*
X0145735Y0194472D01*
X0145727Y0194420D01*
X0145715Y0194370D01*
X0145699Y0194320D01*
X0145680Y0194271D01*
X0145657Y0194224D01*
X0145631Y0194179D01*
X0145601Y0194137D01*
X0145568Y0194096D01*
X0145533Y0194058D01*
X0145494Y0194023D01*
X0145453Y0193991D01*
X0145409Y0193962D01*
X0145364Y0193937D01*
X0145317Y0193915D01*
X0145268Y0193896D01*
X0145218Y0193882D01*
X0145167Y0193871D01*
X0145115Y0193864D01*
X0145063Y0193861D01*
X0145011Y0193862D01*
X0144959Y0193867D01*
X0144908Y0193876D01*
X0144857Y0193889D01*
X0144808Y0193905D01*
X0144759Y0193925D01*
X0144713Y0193949D01*
X0144669Y0193976D01*
X0144626Y0194007D01*
X0144586Y0194040D01*
X0144549Y0194077D01*
X0144515Y0194116D01*
X0144484Y0194158D01*
X0144455Y0194202D01*
X0144431Y0194248D01*
X0144410Y0194295D01*
X0144392Y0194345D01*
X0144379Y0194395D01*
X0144369Y0194446D01*
X0144363Y0194498D01*
X0144361Y0194550D01*
X0144361Y0191550D02*
X0144363Y0191602D01*
X0144369Y0191654D01*
X0144379Y0191705D01*
X0144392Y0191755D01*
X0144410Y0191805D01*
X0144431Y0191852D01*
X0144455Y0191898D01*
X0144484Y0191942D01*
X0144515Y0191984D01*
X0144549Y0192023D01*
X0144586Y0192060D01*
X0144626Y0192093D01*
X0144669Y0192124D01*
X0144713Y0192151D01*
X0144759Y0192175D01*
X0144808Y0192195D01*
X0144857Y0192211D01*
X0144908Y0192224D01*
X0144959Y0192233D01*
X0145011Y0192238D01*
X0145063Y0192239D01*
X0145115Y0192236D01*
X0145167Y0192229D01*
X0145218Y0192218D01*
X0145268Y0192204D01*
X0145317Y0192185D01*
X0145364Y0192163D01*
X0145409Y0192138D01*
X0145453Y0192109D01*
X0145494Y0192077D01*
X0145533Y0192042D01*
X0145568Y0192004D01*
X0145601Y0191963D01*
X0145631Y0191921D01*
X0145657Y0191876D01*
X0145680Y0191829D01*
X0145699Y0191780D01*
X0145715Y0191730D01*
X0145727Y0191680D01*
X0145735Y0191628D01*
X0145739Y0191576D01*
X0145739Y0191524D01*
X0145735Y0191472D01*
X0145727Y0191420D01*
X0145715Y0191370D01*
X0145699Y0191320D01*
X0145680Y0191271D01*
X0145657Y0191224D01*
X0145631Y0191179D01*
X0145601Y0191137D01*
X0145568Y0191096D01*
X0145533Y0191058D01*
X0145494Y0191023D01*
X0145453Y0190991D01*
X0145409Y0190962D01*
X0145364Y0190937D01*
X0145317Y0190915D01*
X0145268Y0190896D01*
X0145218Y0190882D01*
X0145167Y0190871D01*
X0145115Y0190864D01*
X0145063Y0190861D01*
X0145011Y0190862D01*
X0144959Y0190867D01*
X0144908Y0190876D01*
X0144857Y0190889D01*
X0144808Y0190905D01*
X0144759Y0190925D01*
X0144713Y0190949D01*
X0144669Y0190976D01*
X0144626Y0191007D01*
X0144586Y0191040D01*
X0144549Y0191077D01*
X0144515Y0191116D01*
X0144484Y0191158D01*
X0144455Y0191202D01*
X0144431Y0191248D01*
X0144410Y0191295D01*
X0144392Y0191345D01*
X0144379Y0191395D01*
X0144369Y0191446D01*
X0144363Y0191498D01*
X0144361Y0191550D01*
X0034361Y0222550D02*
X0034363Y0222602D01*
X0034369Y0222654D01*
X0034379Y0222705D01*
X0034392Y0222755D01*
X0034410Y0222805D01*
X0034431Y0222852D01*
X0034455Y0222898D01*
X0034484Y0222942D01*
X0034515Y0222984D01*
X0034549Y0223023D01*
X0034586Y0223060D01*
X0034626Y0223093D01*
X0034669Y0223124D01*
X0034713Y0223151D01*
X0034759Y0223175D01*
X0034808Y0223195D01*
X0034857Y0223211D01*
X0034908Y0223224D01*
X0034959Y0223233D01*
X0035011Y0223238D01*
X0035063Y0223239D01*
X0035115Y0223236D01*
X0035167Y0223229D01*
X0035218Y0223218D01*
X0035268Y0223204D01*
X0035317Y0223185D01*
X0035364Y0223163D01*
X0035409Y0223138D01*
X0035453Y0223109D01*
X0035494Y0223077D01*
X0035533Y0223042D01*
X0035568Y0223004D01*
X0035601Y0222963D01*
X0035631Y0222921D01*
X0035657Y0222876D01*
X0035680Y0222829D01*
X0035699Y0222780D01*
X0035715Y0222730D01*
X0035727Y0222680D01*
X0035735Y0222628D01*
X0035739Y0222576D01*
X0035739Y0222524D01*
X0035735Y0222472D01*
X0035727Y0222420D01*
X0035715Y0222370D01*
X0035699Y0222320D01*
X0035680Y0222271D01*
X0035657Y0222224D01*
X0035631Y0222179D01*
X0035601Y0222137D01*
X0035568Y0222096D01*
X0035533Y0222058D01*
X0035494Y0222023D01*
X0035453Y0221991D01*
X0035409Y0221962D01*
X0035364Y0221937D01*
X0035317Y0221915D01*
X0035268Y0221896D01*
X0035218Y0221882D01*
X0035167Y0221871D01*
X0035115Y0221864D01*
X0035063Y0221861D01*
X0035011Y0221862D01*
X0034959Y0221867D01*
X0034908Y0221876D01*
X0034857Y0221889D01*
X0034808Y0221905D01*
X0034759Y0221925D01*
X0034713Y0221949D01*
X0034669Y0221976D01*
X0034626Y0222007D01*
X0034586Y0222040D01*
X0034549Y0222077D01*
X0034515Y0222116D01*
X0034484Y0222158D01*
X0034455Y0222202D01*
X0034431Y0222248D01*
X0034410Y0222295D01*
X0034392Y0222345D01*
X0034379Y0222395D01*
X0034369Y0222446D01*
X0034363Y0222498D01*
X0034361Y0222550D01*
X0031361Y0222550D02*
X0031363Y0222602D01*
X0031369Y0222654D01*
X0031379Y0222705D01*
X0031392Y0222755D01*
X0031410Y0222805D01*
X0031431Y0222852D01*
X0031455Y0222898D01*
X0031484Y0222942D01*
X0031515Y0222984D01*
X0031549Y0223023D01*
X0031586Y0223060D01*
X0031626Y0223093D01*
X0031669Y0223124D01*
X0031713Y0223151D01*
X0031759Y0223175D01*
X0031808Y0223195D01*
X0031857Y0223211D01*
X0031908Y0223224D01*
X0031959Y0223233D01*
X0032011Y0223238D01*
X0032063Y0223239D01*
X0032115Y0223236D01*
X0032167Y0223229D01*
X0032218Y0223218D01*
X0032268Y0223204D01*
X0032317Y0223185D01*
X0032364Y0223163D01*
X0032409Y0223138D01*
X0032453Y0223109D01*
X0032494Y0223077D01*
X0032533Y0223042D01*
X0032568Y0223004D01*
X0032601Y0222963D01*
X0032631Y0222921D01*
X0032657Y0222876D01*
X0032680Y0222829D01*
X0032699Y0222780D01*
X0032715Y0222730D01*
X0032727Y0222680D01*
X0032735Y0222628D01*
X0032739Y0222576D01*
X0032739Y0222524D01*
X0032735Y0222472D01*
X0032727Y0222420D01*
X0032715Y0222370D01*
X0032699Y0222320D01*
X0032680Y0222271D01*
X0032657Y0222224D01*
X0032631Y0222179D01*
X0032601Y0222137D01*
X0032568Y0222096D01*
X0032533Y0222058D01*
X0032494Y0222023D01*
X0032453Y0221991D01*
X0032409Y0221962D01*
X0032364Y0221937D01*
X0032317Y0221915D01*
X0032268Y0221896D01*
X0032218Y0221882D01*
X0032167Y0221871D01*
X0032115Y0221864D01*
X0032063Y0221861D01*
X0032011Y0221862D01*
X0031959Y0221867D01*
X0031908Y0221876D01*
X0031857Y0221889D01*
X0031808Y0221905D01*
X0031759Y0221925D01*
X0031713Y0221949D01*
X0031669Y0221976D01*
X0031626Y0222007D01*
X0031586Y0222040D01*
X0031549Y0222077D01*
X0031515Y0222116D01*
X0031484Y0222158D01*
X0031455Y0222202D01*
X0031431Y0222248D01*
X0031410Y0222295D01*
X0031392Y0222345D01*
X0031379Y0222395D01*
X0031369Y0222446D01*
X0031363Y0222498D01*
X0031361Y0222550D01*
X0004361Y0222550D02*
X0004363Y0222602D01*
X0004369Y0222654D01*
X0004379Y0222705D01*
X0004392Y0222755D01*
X0004410Y0222805D01*
X0004431Y0222852D01*
X0004455Y0222898D01*
X0004484Y0222942D01*
X0004515Y0222984D01*
X0004549Y0223023D01*
X0004586Y0223060D01*
X0004626Y0223093D01*
X0004669Y0223124D01*
X0004713Y0223151D01*
X0004759Y0223175D01*
X0004808Y0223195D01*
X0004857Y0223211D01*
X0004908Y0223224D01*
X0004959Y0223233D01*
X0005011Y0223238D01*
X0005063Y0223239D01*
X0005115Y0223236D01*
X0005167Y0223229D01*
X0005218Y0223218D01*
X0005268Y0223204D01*
X0005317Y0223185D01*
X0005364Y0223163D01*
X0005409Y0223138D01*
X0005453Y0223109D01*
X0005494Y0223077D01*
X0005533Y0223042D01*
X0005568Y0223004D01*
X0005601Y0222963D01*
X0005631Y0222921D01*
X0005657Y0222876D01*
X0005680Y0222829D01*
X0005699Y0222780D01*
X0005715Y0222730D01*
X0005727Y0222680D01*
X0005735Y0222628D01*
X0005739Y0222576D01*
X0005739Y0222524D01*
X0005735Y0222472D01*
X0005727Y0222420D01*
X0005715Y0222370D01*
X0005699Y0222320D01*
X0005680Y0222271D01*
X0005657Y0222224D01*
X0005631Y0222179D01*
X0005601Y0222137D01*
X0005568Y0222096D01*
X0005533Y0222058D01*
X0005494Y0222023D01*
X0005453Y0221991D01*
X0005409Y0221962D01*
X0005364Y0221937D01*
X0005317Y0221915D01*
X0005268Y0221896D01*
X0005218Y0221882D01*
X0005167Y0221871D01*
X0005115Y0221864D01*
X0005063Y0221861D01*
X0005011Y0221862D01*
X0004959Y0221867D01*
X0004908Y0221876D01*
X0004857Y0221889D01*
X0004808Y0221905D01*
X0004759Y0221925D01*
X0004713Y0221949D01*
X0004669Y0221976D01*
X0004626Y0222007D01*
X0004586Y0222040D01*
X0004549Y0222077D01*
X0004515Y0222116D01*
X0004484Y0222158D01*
X0004455Y0222202D01*
X0004431Y0222248D01*
X0004410Y0222295D01*
X0004392Y0222345D01*
X0004379Y0222395D01*
X0004369Y0222446D01*
X0004363Y0222498D01*
X0004361Y0222550D01*
X0101861Y0291550D02*
X0101863Y0291602D01*
X0101869Y0291654D01*
X0101879Y0291705D01*
X0101892Y0291755D01*
X0101910Y0291805D01*
X0101931Y0291852D01*
X0101955Y0291898D01*
X0101984Y0291942D01*
X0102015Y0291984D01*
X0102049Y0292023D01*
X0102086Y0292060D01*
X0102126Y0292093D01*
X0102169Y0292124D01*
X0102213Y0292151D01*
X0102259Y0292175D01*
X0102308Y0292195D01*
X0102357Y0292211D01*
X0102408Y0292224D01*
X0102459Y0292233D01*
X0102511Y0292238D01*
X0102563Y0292239D01*
X0102615Y0292236D01*
X0102667Y0292229D01*
X0102718Y0292218D01*
X0102768Y0292204D01*
X0102817Y0292185D01*
X0102864Y0292163D01*
X0102909Y0292138D01*
X0102953Y0292109D01*
X0102994Y0292077D01*
X0103033Y0292042D01*
X0103068Y0292004D01*
X0103101Y0291963D01*
X0103131Y0291921D01*
X0103157Y0291876D01*
X0103180Y0291829D01*
X0103199Y0291780D01*
X0103215Y0291730D01*
X0103227Y0291680D01*
X0103235Y0291628D01*
X0103239Y0291576D01*
X0103239Y0291524D01*
X0103235Y0291472D01*
X0103227Y0291420D01*
X0103215Y0291370D01*
X0103199Y0291320D01*
X0103180Y0291271D01*
X0103157Y0291224D01*
X0103131Y0291179D01*
X0103101Y0291137D01*
X0103068Y0291096D01*
X0103033Y0291058D01*
X0102994Y0291023D01*
X0102953Y0290991D01*
X0102909Y0290962D01*
X0102864Y0290937D01*
X0102817Y0290915D01*
X0102768Y0290896D01*
X0102718Y0290882D01*
X0102667Y0290871D01*
X0102615Y0290864D01*
X0102563Y0290861D01*
X0102511Y0290862D01*
X0102459Y0290867D01*
X0102408Y0290876D01*
X0102357Y0290889D01*
X0102308Y0290905D01*
X0102259Y0290925D01*
X0102213Y0290949D01*
X0102169Y0290976D01*
X0102126Y0291007D01*
X0102086Y0291040D01*
X0102049Y0291077D01*
X0102015Y0291116D01*
X0101984Y0291158D01*
X0101955Y0291202D01*
X0101931Y0291248D01*
X0101910Y0291295D01*
X0101892Y0291345D01*
X0101879Y0291395D01*
X0101869Y0291446D01*
X0101863Y0291498D01*
X0101861Y0291550D01*
X0101861Y0294550D02*
X0101863Y0294602D01*
X0101869Y0294654D01*
X0101879Y0294705D01*
X0101892Y0294755D01*
X0101910Y0294805D01*
X0101931Y0294852D01*
X0101955Y0294898D01*
X0101984Y0294942D01*
X0102015Y0294984D01*
X0102049Y0295023D01*
X0102086Y0295060D01*
X0102126Y0295093D01*
X0102169Y0295124D01*
X0102213Y0295151D01*
X0102259Y0295175D01*
X0102308Y0295195D01*
X0102357Y0295211D01*
X0102408Y0295224D01*
X0102459Y0295233D01*
X0102511Y0295238D01*
X0102563Y0295239D01*
X0102615Y0295236D01*
X0102667Y0295229D01*
X0102718Y0295218D01*
X0102768Y0295204D01*
X0102817Y0295185D01*
X0102864Y0295163D01*
X0102909Y0295138D01*
X0102953Y0295109D01*
X0102994Y0295077D01*
X0103033Y0295042D01*
X0103068Y0295004D01*
X0103101Y0294963D01*
X0103131Y0294921D01*
X0103157Y0294876D01*
X0103180Y0294829D01*
X0103199Y0294780D01*
X0103215Y0294730D01*
X0103227Y0294680D01*
X0103235Y0294628D01*
X0103239Y0294576D01*
X0103239Y0294524D01*
X0103235Y0294472D01*
X0103227Y0294420D01*
X0103215Y0294370D01*
X0103199Y0294320D01*
X0103180Y0294271D01*
X0103157Y0294224D01*
X0103131Y0294179D01*
X0103101Y0294137D01*
X0103068Y0294096D01*
X0103033Y0294058D01*
X0102994Y0294023D01*
X0102953Y0293991D01*
X0102909Y0293962D01*
X0102864Y0293937D01*
X0102817Y0293915D01*
X0102768Y0293896D01*
X0102718Y0293882D01*
X0102667Y0293871D01*
X0102615Y0293864D01*
X0102563Y0293861D01*
X0102511Y0293862D01*
X0102459Y0293867D01*
X0102408Y0293876D01*
X0102357Y0293889D01*
X0102308Y0293905D01*
X0102259Y0293925D01*
X0102213Y0293949D01*
X0102169Y0293976D01*
X0102126Y0294007D01*
X0102086Y0294040D01*
X0102049Y0294077D01*
X0102015Y0294116D01*
X0101984Y0294158D01*
X0101955Y0294202D01*
X0101931Y0294248D01*
X0101910Y0294295D01*
X0101892Y0294345D01*
X0101879Y0294395D01*
X0101869Y0294446D01*
X0101863Y0294498D01*
X0101861Y0294550D01*
X0101861Y0316550D02*
X0101863Y0316602D01*
X0101869Y0316654D01*
X0101879Y0316705D01*
X0101892Y0316755D01*
X0101910Y0316805D01*
X0101931Y0316852D01*
X0101955Y0316898D01*
X0101984Y0316942D01*
X0102015Y0316984D01*
X0102049Y0317023D01*
X0102086Y0317060D01*
X0102126Y0317093D01*
X0102169Y0317124D01*
X0102213Y0317151D01*
X0102259Y0317175D01*
X0102308Y0317195D01*
X0102357Y0317211D01*
X0102408Y0317224D01*
X0102459Y0317233D01*
X0102511Y0317238D01*
X0102563Y0317239D01*
X0102615Y0317236D01*
X0102667Y0317229D01*
X0102718Y0317218D01*
X0102768Y0317204D01*
X0102817Y0317185D01*
X0102864Y0317163D01*
X0102909Y0317138D01*
X0102953Y0317109D01*
X0102994Y0317077D01*
X0103033Y0317042D01*
X0103068Y0317004D01*
X0103101Y0316963D01*
X0103131Y0316921D01*
X0103157Y0316876D01*
X0103180Y0316829D01*
X0103199Y0316780D01*
X0103215Y0316730D01*
X0103227Y0316680D01*
X0103235Y0316628D01*
X0103239Y0316576D01*
X0103239Y0316524D01*
X0103235Y0316472D01*
X0103227Y0316420D01*
X0103215Y0316370D01*
X0103199Y0316320D01*
X0103180Y0316271D01*
X0103157Y0316224D01*
X0103131Y0316179D01*
X0103101Y0316137D01*
X0103068Y0316096D01*
X0103033Y0316058D01*
X0102994Y0316023D01*
X0102953Y0315991D01*
X0102909Y0315962D01*
X0102864Y0315937D01*
X0102817Y0315915D01*
X0102768Y0315896D01*
X0102718Y0315882D01*
X0102667Y0315871D01*
X0102615Y0315864D01*
X0102563Y0315861D01*
X0102511Y0315862D01*
X0102459Y0315867D01*
X0102408Y0315876D01*
X0102357Y0315889D01*
X0102308Y0315905D01*
X0102259Y0315925D01*
X0102213Y0315949D01*
X0102169Y0315976D01*
X0102126Y0316007D01*
X0102086Y0316040D01*
X0102049Y0316077D01*
X0102015Y0316116D01*
X0101984Y0316158D01*
X0101955Y0316202D01*
X0101931Y0316248D01*
X0101910Y0316295D01*
X0101892Y0316345D01*
X0101879Y0316395D01*
X0101869Y0316446D01*
X0101863Y0316498D01*
X0101861Y0316550D01*
X0236361Y0065550D02*
X0236363Y0065602D01*
X0236369Y0065654D01*
X0236379Y0065705D01*
X0236392Y0065755D01*
X0236410Y0065805D01*
X0236431Y0065852D01*
X0236455Y0065898D01*
X0236484Y0065942D01*
X0236515Y0065984D01*
X0236549Y0066023D01*
X0236586Y0066060D01*
X0236626Y0066093D01*
X0236669Y0066124D01*
X0236713Y0066151D01*
X0236759Y0066175D01*
X0236808Y0066195D01*
X0236857Y0066211D01*
X0236908Y0066224D01*
X0236959Y0066233D01*
X0237011Y0066238D01*
X0237063Y0066239D01*
X0237115Y0066236D01*
X0237167Y0066229D01*
X0237218Y0066218D01*
X0237268Y0066204D01*
X0237317Y0066185D01*
X0237364Y0066163D01*
X0237409Y0066138D01*
X0237453Y0066109D01*
X0237494Y0066077D01*
X0237533Y0066042D01*
X0237568Y0066004D01*
X0237601Y0065963D01*
X0237631Y0065921D01*
X0237657Y0065876D01*
X0237680Y0065829D01*
X0237699Y0065780D01*
X0237715Y0065730D01*
X0237727Y0065680D01*
X0237735Y0065628D01*
X0237739Y0065576D01*
X0237739Y0065524D01*
X0237735Y0065472D01*
X0237727Y0065420D01*
X0237715Y0065370D01*
X0237699Y0065320D01*
X0237680Y0065271D01*
X0237657Y0065224D01*
X0237631Y0065179D01*
X0237601Y0065137D01*
X0237568Y0065096D01*
X0237533Y0065058D01*
X0237494Y0065023D01*
X0237453Y0064991D01*
X0237409Y0064962D01*
X0237364Y0064937D01*
X0237317Y0064915D01*
X0237268Y0064896D01*
X0237218Y0064882D01*
X0237167Y0064871D01*
X0237115Y0064864D01*
X0237063Y0064861D01*
X0237011Y0064862D01*
X0236959Y0064867D01*
X0236908Y0064876D01*
X0236857Y0064889D01*
X0236808Y0064905D01*
X0236759Y0064925D01*
X0236713Y0064949D01*
X0236669Y0064976D01*
X0236626Y0065007D01*
X0236586Y0065040D01*
X0236549Y0065077D01*
X0236515Y0065116D01*
X0236484Y0065158D01*
X0236455Y0065202D01*
X0236431Y0065248D01*
X0236410Y0065295D01*
X0236392Y0065345D01*
X0236379Y0065395D01*
X0236369Y0065446D01*
X0236363Y0065498D01*
X0236361Y0065550D01*
X0239361Y0065550D02*
X0239363Y0065602D01*
X0239369Y0065654D01*
X0239379Y0065705D01*
X0239392Y0065755D01*
X0239410Y0065805D01*
X0239431Y0065852D01*
X0239455Y0065898D01*
X0239484Y0065942D01*
X0239515Y0065984D01*
X0239549Y0066023D01*
X0239586Y0066060D01*
X0239626Y0066093D01*
X0239669Y0066124D01*
X0239713Y0066151D01*
X0239759Y0066175D01*
X0239808Y0066195D01*
X0239857Y0066211D01*
X0239908Y0066224D01*
X0239959Y0066233D01*
X0240011Y0066238D01*
X0240063Y0066239D01*
X0240115Y0066236D01*
X0240167Y0066229D01*
X0240218Y0066218D01*
X0240268Y0066204D01*
X0240317Y0066185D01*
X0240364Y0066163D01*
X0240409Y0066138D01*
X0240453Y0066109D01*
X0240494Y0066077D01*
X0240533Y0066042D01*
X0240568Y0066004D01*
X0240601Y0065963D01*
X0240631Y0065921D01*
X0240657Y0065876D01*
X0240680Y0065829D01*
X0240699Y0065780D01*
X0240715Y0065730D01*
X0240727Y0065680D01*
X0240735Y0065628D01*
X0240739Y0065576D01*
X0240739Y0065524D01*
X0240735Y0065472D01*
X0240727Y0065420D01*
X0240715Y0065370D01*
X0240699Y0065320D01*
X0240680Y0065271D01*
X0240657Y0065224D01*
X0240631Y0065179D01*
X0240601Y0065137D01*
X0240568Y0065096D01*
X0240533Y0065058D01*
X0240494Y0065023D01*
X0240453Y0064991D01*
X0240409Y0064962D01*
X0240364Y0064937D01*
X0240317Y0064915D01*
X0240268Y0064896D01*
X0240218Y0064882D01*
X0240167Y0064871D01*
X0240115Y0064864D01*
X0240063Y0064861D01*
X0240011Y0064862D01*
X0239959Y0064867D01*
X0239908Y0064876D01*
X0239857Y0064889D01*
X0239808Y0064905D01*
X0239759Y0064925D01*
X0239713Y0064949D01*
X0239669Y0064976D01*
X0239626Y0065007D01*
X0239586Y0065040D01*
X0239549Y0065077D01*
X0239515Y0065116D01*
X0239484Y0065158D01*
X0239455Y0065202D01*
X0239431Y0065248D01*
X0239410Y0065295D01*
X0239392Y0065345D01*
X0239379Y0065395D01*
X0239369Y0065446D01*
X0239363Y0065498D01*
X0239361Y0065550D01*
X0221361Y0057550D02*
X0221363Y0057602D01*
X0221369Y0057654D01*
X0221379Y0057705D01*
X0221392Y0057755D01*
X0221410Y0057805D01*
X0221431Y0057852D01*
X0221455Y0057898D01*
X0221484Y0057942D01*
X0221515Y0057984D01*
X0221549Y0058023D01*
X0221586Y0058060D01*
X0221626Y0058093D01*
X0221669Y0058124D01*
X0221713Y0058151D01*
X0221759Y0058175D01*
X0221808Y0058195D01*
X0221857Y0058211D01*
X0221908Y0058224D01*
X0221959Y0058233D01*
X0222011Y0058238D01*
X0222063Y0058239D01*
X0222115Y0058236D01*
X0222167Y0058229D01*
X0222218Y0058218D01*
X0222268Y0058204D01*
X0222317Y0058185D01*
X0222364Y0058163D01*
X0222409Y0058138D01*
X0222453Y0058109D01*
X0222494Y0058077D01*
X0222533Y0058042D01*
X0222568Y0058004D01*
X0222601Y0057963D01*
X0222631Y0057921D01*
X0222657Y0057876D01*
X0222680Y0057829D01*
X0222699Y0057780D01*
X0222715Y0057730D01*
X0222727Y0057680D01*
X0222735Y0057628D01*
X0222739Y0057576D01*
X0222739Y0057524D01*
X0222735Y0057472D01*
X0222727Y0057420D01*
X0222715Y0057370D01*
X0222699Y0057320D01*
X0222680Y0057271D01*
X0222657Y0057224D01*
X0222631Y0057179D01*
X0222601Y0057137D01*
X0222568Y0057096D01*
X0222533Y0057058D01*
X0222494Y0057023D01*
X0222453Y0056991D01*
X0222409Y0056962D01*
X0222364Y0056937D01*
X0222317Y0056915D01*
X0222268Y0056896D01*
X0222218Y0056882D01*
X0222167Y0056871D01*
X0222115Y0056864D01*
X0222063Y0056861D01*
X0222011Y0056862D01*
X0221959Y0056867D01*
X0221908Y0056876D01*
X0221857Y0056889D01*
X0221808Y0056905D01*
X0221759Y0056925D01*
X0221713Y0056949D01*
X0221669Y0056976D01*
X0221626Y0057007D01*
X0221586Y0057040D01*
X0221549Y0057077D01*
X0221515Y0057116D01*
X0221484Y0057158D01*
X0221455Y0057202D01*
X0221431Y0057248D01*
X0221410Y0057295D01*
X0221392Y0057345D01*
X0221379Y0057395D01*
X0221369Y0057446D01*
X0221363Y0057498D01*
X0221361Y0057550D01*
X0221361Y0054550D02*
X0221363Y0054602D01*
X0221369Y0054654D01*
X0221379Y0054705D01*
X0221392Y0054755D01*
X0221410Y0054805D01*
X0221431Y0054852D01*
X0221455Y0054898D01*
X0221484Y0054942D01*
X0221515Y0054984D01*
X0221549Y0055023D01*
X0221586Y0055060D01*
X0221626Y0055093D01*
X0221669Y0055124D01*
X0221713Y0055151D01*
X0221759Y0055175D01*
X0221808Y0055195D01*
X0221857Y0055211D01*
X0221908Y0055224D01*
X0221959Y0055233D01*
X0222011Y0055238D01*
X0222063Y0055239D01*
X0222115Y0055236D01*
X0222167Y0055229D01*
X0222218Y0055218D01*
X0222268Y0055204D01*
X0222317Y0055185D01*
X0222364Y0055163D01*
X0222409Y0055138D01*
X0222453Y0055109D01*
X0222494Y0055077D01*
X0222533Y0055042D01*
X0222568Y0055004D01*
X0222601Y0054963D01*
X0222631Y0054921D01*
X0222657Y0054876D01*
X0222680Y0054829D01*
X0222699Y0054780D01*
X0222715Y0054730D01*
X0222727Y0054680D01*
X0222735Y0054628D01*
X0222739Y0054576D01*
X0222739Y0054524D01*
X0222735Y0054472D01*
X0222727Y0054420D01*
X0222715Y0054370D01*
X0222699Y0054320D01*
X0222680Y0054271D01*
X0222657Y0054224D01*
X0222631Y0054179D01*
X0222601Y0054137D01*
X0222568Y0054096D01*
X0222533Y0054058D01*
X0222494Y0054023D01*
X0222453Y0053991D01*
X0222409Y0053962D01*
X0222364Y0053937D01*
X0222317Y0053915D01*
X0222268Y0053896D01*
X0222218Y0053882D01*
X0222167Y0053871D01*
X0222115Y0053864D01*
X0222063Y0053861D01*
X0222011Y0053862D01*
X0221959Y0053867D01*
X0221908Y0053876D01*
X0221857Y0053889D01*
X0221808Y0053905D01*
X0221759Y0053925D01*
X0221713Y0053949D01*
X0221669Y0053976D01*
X0221626Y0054007D01*
X0221586Y0054040D01*
X0221549Y0054077D01*
X0221515Y0054116D01*
X0221484Y0054158D01*
X0221455Y0054202D01*
X0221431Y0054248D01*
X0221410Y0054295D01*
X0221392Y0054345D01*
X0221379Y0054395D01*
X0221369Y0054446D01*
X0221363Y0054498D01*
X0221361Y0054550D01*
X0221361Y0020550D02*
X0221363Y0020602D01*
X0221369Y0020654D01*
X0221379Y0020705D01*
X0221392Y0020755D01*
X0221410Y0020805D01*
X0221431Y0020852D01*
X0221455Y0020898D01*
X0221484Y0020942D01*
X0221515Y0020984D01*
X0221549Y0021023D01*
X0221586Y0021060D01*
X0221626Y0021093D01*
X0221669Y0021124D01*
X0221713Y0021151D01*
X0221759Y0021175D01*
X0221808Y0021195D01*
X0221857Y0021211D01*
X0221908Y0021224D01*
X0221959Y0021233D01*
X0222011Y0021238D01*
X0222063Y0021239D01*
X0222115Y0021236D01*
X0222167Y0021229D01*
X0222218Y0021218D01*
X0222268Y0021204D01*
X0222317Y0021185D01*
X0222364Y0021163D01*
X0222409Y0021138D01*
X0222453Y0021109D01*
X0222494Y0021077D01*
X0222533Y0021042D01*
X0222568Y0021004D01*
X0222601Y0020963D01*
X0222631Y0020921D01*
X0222657Y0020876D01*
X0222680Y0020829D01*
X0222699Y0020780D01*
X0222715Y0020730D01*
X0222727Y0020680D01*
X0222735Y0020628D01*
X0222739Y0020576D01*
X0222739Y0020524D01*
X0222735Y0020472D01*
X0222727Y0020420D01*
X0222715Y0020370D01*
X0222699Y0020320D01*
X0222680Y0020271D01*
X0222657Y0020224D01*
X0222631Y0020179D01*
X0222601Y0020137D01*
X0222568Y0020096D01*
X0222533Y0020058D01*
X0222494Y0020023D01*
X0222453Y0019991D01*
X0222409Y0019962D01*
X0222364Y0019937D01*
X0222317Y0019915D01*
X0222268Y0019896D01*
X0222218Y0019882D01*
X0222167Y0019871D01*
X0222115Y0019864D01*
X0222063Y0019861D01*
X0222011Y0019862D01*
X0221959Y0019867D01*
X0221908Y0019876D01*
X0221857Y0019889D01*
X0221808Y0019905D01*
X0221759Y0019925D01*
X0221713Y0019949D01*
X0221669Y0019976D01*
X0221626Y0020007D01*
X0221586Y0020040D01*
X0221549Y0020077D01*
X0221515Y0020116D01*
X0221484Y0020158D01*
X0221455Y0020202D01*
X0221431Y0020248D01*
X0221410Y0020295D01*
X0221392Y0020345D01*
X0221379Y0020395D01*
X0221369Y0020446D01*
X0221363Y0020498D01*
X0221361Y0020550D01*
X0221361Y0017550D02*
X0221363Y0017602D01*
X0221369Y0017654D01*
X0221379Y0017705D01*
X0221392Y0017755D01*
X0221410Y0017805D01*
X0221431Y0017852D01*
X0221455Y0017898D01*
X0221484Y0017942D01*
X0221515Y0017984D01*
X0221549Y0018023D01*
X0221586Y0018060D01*
X0221626Y0018093D01*
X0221669Y0018124D01*
X0221713Y0018151D01*
X0221759Y0018175D01*
X0221808Y0018195D01*
X0221857Y0018211D01*
X0221908Y0018224D01*
X0221959Y0018233D01*
X0222011Y0018238D01*
X0222063Y0018239D01*
X0222115Y0018236D01*
X0222167Y0018229D01*
X0222218Y0018218D01*
X0222268Y0018204D01*
X0222317Y0018185D01*
X0222364Y0018163D01*
X0222409Y0018138D01*
X0222453Y0018109D01*
X0222494Y0018077D01*
X0222533Y0018042D01*
X0222568Y0018004D01*
X0222601Y0017963D01*
X0222631Y0017921D01*
X0222657Y0017876D01*
X0222680Y0017829D01*
X0222699Y0017780D01*
X0222715Y0017730D01*
X0222727Y0017680D01*
X0222735Y0017628D01*
X0222739Y0017576D01*
X0222739Y0017524D01*
X0222735Y0017472D01*
X0222727Y0017420D01*
X0222715Y0017370D01*
X0222699Y0017320D01*
X0222680Y0017271D01*
X0222657Y0017224D01*
X0222631Y0017179D01*
X0222601Y0017137D01*
X0222568Y0017096D01*
X0222533Y0017058D01*
X0222494Y0017023D01*
X0222453Y0016991D01*
X0222409Y0016962D01*
X0222364Y0016937D01*
X0222317Y0016915D01*
X0222268Y0016896D01*
X0222218Y0016882D01*
X0222167Y0016871D01*
X0222115Y0016864D01*
X0222063Y0016861D01*
X0222011Y0016862D01*
X0221959Y0016867D01*
X0221908Y0016876D01*
X0221857Y0016889D01*
X0221808Y0016905D01*
X0221759Y0016925D01*
X0221713Y0016949D01*
X0221669Y0016976D01*
X0221626Y0017007D01*
X0221586Y0017040D01*
X0221549Y0017077D01*
X0221515Y0017116D01*
X0221484Y0017158D01*
X0221455Y0017202D01*
X0221431Y0017248D01*
X0221410Y0017295D01*
X0221392Y0017345D01*
X0221379Y0017395D01*
X0221369Y0017446D01*
X0221363Y0017498D01*
X0221361Y0017550D01*
X0221361Y0005050D02*
X0221363Y0005102D01*
X0221369Y0005154D01*
X0221379Y0005205D01*
X0221392Y0005255D01*
X0221410Y0005305D01*
X0221431Y0005352D01*
X0221455Y0005398D01*
X0221484Y0005442D01*
X0221515Y0005484D01*
X0221549Y0005523D01*
X0221586Y0005560D01*
X0221626Y0005593D01*
X0221669Y0005624D01*
X0221713Y0005651D01*
X0221759Y0005675D01*
X0221808Y0005695D01*
X0221857Y0005711D01*
X0221908Y0005724D01*
X0221959Y0005733D01*
X0222011Y0005738D01*
X0222063Y0005739D01*
X0222115Y0005736D01*
X0222167Y0005729D01*
X0222218Y0005718D01*
X0222268Y0005704D01*
X0222317Y0005685D01*
X0222364Y0005663D01*
X0222409Y0005638D01*
X0222453Y0005609D01*
X0222494Y0005577D01*
X0222533Y0005542D01*
X0222568Y0005504D01*
X0222601Y0005463D01*
X0222631Y0005421D01*
X0222657Y0005376D01*
X0222680Y0005329D01*
X0222699Y0005280D01*
X0222715Y0005230D01*
X0222727Y0005180D01*
X0222735Y0005128D01*
X0222739Y0005076D01*
X0222739Y0005024D01*
X0222735Y0004972D01*
X0222727Y0004920D01*
X0222715Y0004870D01*
X0222699Y0004820D01*
X0222680Y0004771D01*
X0222657Y0004724D01*
X0222631Y0004679D01*
X0222601Y0004637D01*
X0222568Y0004596D01*
X0222533Y0004558D01*
X0222494Y0004523D01*
X0222453Y0004491D01*
X0222409Y0004462D01*
X0222364Y0004437D01*
X0222317Y0004415D01*
X0222268Y0004396D01*
X0222218Y0004382D01*
X0222167Y0004371D01*
X0222115Y0004364D01*
X0222063Y0004361D01*
X0222011Y0004362D01*
X0221959Y0004367D01*
X0221908Y0004376D01*
X0221857Y0004389D01*
X0221808Y0004405D01*
X0221759Y0004425D01*
X0221713Y0004449D01*
X0221669Y0004476D01*
X0221626Y0004507D01*
X0221586Y0004540D01*
X0221549Y0004577D01*
X0221515Y0004616D01*
X0221484Y0004658D01*
X0221455Y0004702D01*
X0221431Y0004748D01*
X0221410Y0004795D01*
X0221392Y0004845D01*
X0221379Y0004895D01*
X0221369Y0004946D01*
X0221363Y0004998D01*
X0221361Y0005050D01*
X0356861Y0065550D02*
X0356863Y0065602D01*
X0356869Y0065654D01*
X0356879Y0065705D01*
X0356892Y0065755D01*
X0356910Y0065805D01*
X0356931Y0065852D01*
X0356955Y0065898D01*
X0356984Y0065942D01*
X0357015Y0065984D01*
X0357049Y0066023D01*
X0357086Y0066060D01*
X0357126Y0066093D01*
X0357169Y0066124D01*
X0357213Y0066151D01*
X0357259Y0066175D01*
X0357308Y0066195D01*
X0357357Y0066211D01*
X0357408Y0066224D01*
X0357459Y0066233D01*
X0357511Y0066238D01*
X0357563Y0066239D01*
X0357615Y0066236D01*
X0357667Y0066229D01*
X0357718Y0066218D01*
X0357768Y0066204D01*
X0357817Y0066185D01*
X0357864Y0066163D01*
X0357909Y0066138D01*
X0357953Y0066109D01*
X0357994Y0066077D01*
X0358033Y0066042D01*
X0358068Y0066004D01*
X0358101Y0065963D01*
X0358131Y0065921D01*
X0358157Y0065876D01*
X0358180Y0065829D01*
X0358199Y0065780D01*
X0358215Y0065730D01*
X0358227Y0065680D01*
X0358235Y0065628D01*
X0358239Y0065576D01*
X0358239Y0065524D01*
X0358235Y0065472D01*
X0358227Y0065420D01*
X0358215Y0065370D01*
X0358199Y0065320D01*
X0358180Y0065271D01*
X0358157Y0065224D01*
X0358131Y0065179D01*
X0358101Y0065137D01*
X0358068Y0065096D01*
X0358033Y0065058D01*
X0357994Y0065023D01*
X0357953Y0064991D01*
X0357909Y0064962D01*
X0357864Y0064937D01*
X0357817Y0064915D01*
X0357768Y0064896D01*
X0357718Y0064882D01*
X0357667Y0064871D01*
X0357615Y0064864D01*
X0357563Y0064861D01*
X0357511Y0064862D01*
X0357459Y0064867D01*
X0357408Y0064876D01*
X0357357Y0064889D01*
X0357308Y0064905D01*
X0357259Y0064925D01*
X0357213Y0064949D01*
X0357169Y0064976D01*
X0357126Y0065007D01*
X0357086Y0065040D01*
X0357049Y0065077D01*
X0357015Y0065116D01*
X0356984Y0065158D01*
X0356955Y0065202D01*
X0356931Y0065248D01*
X0356910Y0065295D01*
X0356892Y0065345D01*
X0356879Y0065395D01*
X0356869Y0065446D01*
X0356863Y0065498D01*
X0356861Y0065550D01*
X0359861Y0065550D02*
X0359863Y0065602D01*
X0359869Y0065654D01*
X0359879Y0065705D01*
X0359892Y0065755D01*
X0359910Y0065805D01*
X0359931Y0065852D01*
X0359955Y0065898D01*
X0359984Y0065942D01*
X0360015Y0065984D01*
X0360049Y0066023D01*
X0360086Y0066060D01*
X0360126Y0066093D01*
X0360169Y0066124D01*
X0360213Y0066151D01*
X0360259Y0066175D01*
X0360308Y0066195D01*
X0360357Y0066211D01*
X0360408Y0066224D01*
X0360459Y0066233D01*
X0360511Y0066238D01*
X0360563Y0066239D01*
X0360615Y0066236D01*
X0360667Y0066229D01*
X0360718Y0066218D01*
X0360768Y0066204D01*
X0360817Y0066185D01*
X0360864Y0066163D01*
X0360909Y0066138D01*
X0360953Y0066109D01*
X0360994Y0066077D01*
X0361033Y0066042D01*
X0361068Y0066004D01*
X0361101Y0065963D01*
X0361131Y0065921D01*
X0361157Y0065876D01*
X0361180Y0065829D01*
X0361199Y0065780D01*
X0361215Y0065730D01*
X0361227Y0065680D01*
X0361235Y0065628D01*
X0361239Y0065576D01*
X0361239Y0065524D01*
X0361235Y0065472D01*
X0361227Y0065420D01*
X0361215Y0065370D01*
X0361199Y0065320D01*
X0361180Y0065271D01*
X0361157Y0065224D01*
X0361131Y0065179D01*
X0361101Y0065137D01*
X0361068Y0065096D01*
X0361033Y0065058D01*
X0360994Y0065023D01*
X0360953Y0064991D01*
X0360909Y0064962D01*
X0360864Y0064937D01*
X0360817Y0064915D01*
X0360768Y0064896D01*
X0360718Y0064882D01*
X0360667Y0064871D01*
X0360615Y0064864D01*
X0360563Y0064861D01*
X0360511Y0064862D01*
X0360459Y0064867D01*
X0360408Y0064876D01*
X0360357Y0064889D01*
X0360308Y0064905D01*
X0360259Y0064925D01*
X0360213Y0064949D01*
X0360169Y0064976D01*
X0360126Y0065007D01*
X0360086Y0065040D01*
X0360049Y0065077D01*
X0360015Y0065116D01*
X0359984Y0065158D01*
X0359955Y0065202D01*
X0359931Y0065248D01*
X0359910Y0065295D01*
X0359892Y0065345D01*
X0359879Y0065395D01*
X0359869Y0065446D01*
X0359863Y0065498D01*
X0359861Y0065550D01*
X0388861Y0065550D02*
X0388863Y0065602D01*
X0388869Y0065654D01*
X0388879Y0065705D01*
X0388892Y0065755D01*
X0388910Y0065805D01*
X0388931Y0065852D01*
X0388955Y0065898D01*
X0388984Y0065942D01*
X0389015Y0065984D01*
X0389049Y0066023D01*
X0389086Y0066060D01*
X0389126Y0066093D01*
X0389169Y0066124D01*
X0389213Y0066151D01*
X0389259Y0066175D01*
X0389308Y0066195D01*
X0389357Y0066211D01*
X0389408Y0066224D01*
X0389459Y0066233D01*
X0389511Y0066238D01*
X0389563Y0066239D01*
X0389615Y0066236D01*
X0389667Y0066229D01*
X0389718Y0066218D01*
X0389768Y0066204D01*
X0389817Y0066185D01*
X0389864Y0066163D01*
X0389909Y0066138D01*
X0389953Y0066109D01*
X0389994Y0066077D01*
X0390033Y0066042D01*
X0390068Y0066004D01*
X0390101Y0065963D01*
X0390131Y0065921D01*
X0390157Y0065876D01*
X0390180Y0065829D01*
X0390199Y0065780D01*
X0390215Y0065730D01*
X0390227Y0065680D01*
X0390235Y0065628D01*
X0390239Y0065576D01*
X0390239Y0065524D01*
X0390235Y0065472D01*
X0390227Y0065420D01*
X0390215Y0065370D01*
X0390199Y0065320D01*
X0390180Y0065271D01*
X0390157Y0065224D01*
X0390131Y0065179D01*
X0390101Y0065137D01*
X0390068Y0065096D01*
X0390033Y0065058D01*
X0389994Y0065023D01*
X0389953Y0064991D01*
X0389909Y0064962D01*
X0389864Y0064937D01*
X0389817Y0064915D01*
X0389768Y0064896D01*
X0389718Y0064882D01*
X0389667Y0064871D01*
X0389615Y0064864D01*
X0389563Y0064861D01*
X0389511Y0064862D01*
X0389459Y0064867D01*
X0389408Y0064876D01*
X0389357Y0064889D01*
X0389308Y0064905D01*
X0389259Y0064925D01*
X0389213Y0064949D01*
X0389169Y0064976D01*
X0389126Y0065007D01*
X0389086Y0065040D01*
X0389049Y0065077D01*
X0389015Y0065116D01*
X0388984Y0065158D01*
X0388955Y0065202D01*
X0388931Y0065248D01*
X0388910Y0065295D01*
X0388892Y0065345D01*
X0388879Y0065395D01*
X0388869Y0065446D01*
X0388863Y0065498D01*
X0388861Y0065550D01*
D11*
X0386050Y0065550D02*
X0363406Y0065550D01*
X0354694Y0065550D02*
X0242906Y0065550D01*
X0234194Y0065550D02*
X0197906Y0065550D01*
X0203550Y0066050D02*
X0203550Y0108694D01*
X0202050Y0108694D02*
X0202050Y0083050D01*
X0203050Y0082050D02*
X0196906Y0082050D01*
X0188194Y0082050D02*
X0183050Y0082050D01*
X0183050Y0108694D01*
X0180550Y0108694D02*
X0180550Y0065550D01*
X0189194Y0065550D01*
X0183550Y0066550D02*
X0183050Y0066550D01*
X0183550Y0066550D02*
X0183550Y0082550D01*
X0179050Y0077050D02*
X0166906Y0077050D01*
X0158194Y0077050D02*
X0145550Y0077050D01*
X0145050Y0084694D02*
X0145050Y0069406D01*
X0145050Y0060694D02*
X0145050Y0045406D01*
X0145550Y0053050D02*
X0158194Y0053050D01*
X0166906Y0053050D02*
X0179050Y0053050D01*
X0179050Y0029050D01*
X0166906Y0029050D01*
X0166906Y0027550D02*
X0189194Y0027550D01*
X0197906Y0027550D02*
X0222050Y0027550D01*
X0222050Y0051694D01*
X0222050Y0046550D02*
X0197906Y0046550D01*
X0189194Y0046550D02*
X0179550Y0046550D01*
X0179050Y0053050D02*
X0179050Y0077050D01*
X0179050Y0101050D01*
X0179050Y0108694D01*
X0179050Y0101050D02*
X0166906Y0101050D01*
X0158194Y0101050D02*
X0145550Y0101050D01*
X0145050Y0093406D02*
X0145050Y0114550D01*
X0145050Y0138694D01*
X0145050Y0147406D02*
X0145050Y0188694D01*
X0145050Y0197406D02*
X0145050Y0222550D01*
X0169194Y0222550D01*
X0177906Y0222550D02*
X0202550Y0222550D01*
X0203550Y0243694D02*
X0203550Y0197406D01*
X0203550Y0188694D02*
X0203550Y0147406D01*
X0202050Y0147406D02*
X0202050Y0180550D01*
X0203050Y0182050D02*
X0196906Y0182050D01*
X0188194Y0182050D02*
X0183050Y0182050D01*
X0183050Y0147406D01*
X0183050Y0138694D02*
X0183050Y0125050D01*
X0166906Y0125050D01*
X0158194Y0125050D02*
X0145550Y0125050D01*
X0145050Y0114550D02*
X0115406Y0114550D01*
X0106694Y0114550D02*
X0037906Y0114550D01*
X0029194Y0114550D02*
X0008050Y0114550D01*
X0008050Y0006550D02*
X0029694Y0006550D01*
X0038406Y0006550D02*
X0106694Y0006550D01*
X0115406Y0006550D02*
X0145050Y0006550D01*
X0145050Y0014194D01*
X0145050Y0022906D02*
X0145050Y0036694D01*
X0146050Y0029050D02*
X0158194Y0029050D01*
X0158194Y0027550D02*
X0146550Y0027550D01*
X0222050Y0027550D02*
X0222050Y0023406D01*
X0222050Y0014694D02*
X0222050Y0008050D01*
X0222050Y0060406D02*
X0222050Y0064050D01*
X0203550Y0117406D02*
X0203550Y0132050D01*
X0196906Y0132050D01*
X0203550Y0132050D02*
X0203550Y0138694D01*
X0202050Y0138694D02*
X0202050Y0117406D01*
X0183050Y0117406D02*
X0183050Y0125550D01*
X0180550Y0124050D02*
X0180550Y0117406D01*
X0179050Y0117406D02*
X0179050Y0124550D01*
X0183550Y0132050D02*
X0188194Y0132050D01*
X0145050Y0222550D02*
X0115406Y0222550D01*
X0106694Y0222550D02*
X0103050Y0222550D01*
X0102550Y0222550D02*
X0102550Y0243694D01*
X0102550Y0252406D02*
X0102550Y0288694D01*
X0102550Y0297406D02*
X0102550Y0313550D01*
X0203550Y0313550D02*
X0203550Y0297406D01*
X0203550Y0288694D02*
X0203550Y0252406D01*
X0102550Y0222550D02*
X0037906Y0222550D01*
X0029194Y0222550D02*
X0008050Y0222550D01*
D12*
X0166550Y0174050D02*
X0166550Y0133050D01*
M02*
