solid ASCII
  facet normal -1.000000e+00 0.000000e+00 -5.213164e-48
    outer loop
      vertex   0.000000e+00 -3.827296e+00 0.000000e+00
      vertex   -5.473822e-47 0.000000e+00 1.050000e+01
      vertex   0.000000e+00 9.270000e+01 0.000000e+00
    endloop
  endfacet
  facet normal -1.000000e+00 5.904878e-49 0.000000e+00
    outer loop
      vertex   0.000000e+00 9.270000e+01 0.000000e+00
      vertex   -5.473822e-47 0.000000e+00 1.050000e+01
      vertex   0.000000e+00 9.270000e+01 1.050000e+01
    endloop
  endfacet
  facet normal -0.000000e+00 1.000000e+00 0.000000e+00
    outer loop
      vertex   0.000000e+00 9.270000e+01 1.050000e+01
      vertex   1.087000e+02 9.270000e+01 1.050000e+01
      vertex   0.000000e+00 9.270000e+01 0.000000e+00
    endloop
  endfacet
  facet normal 0.000000e+00 1.000000e+00 0.000000e+00
    outer loop
      vertex   0.000000e+00 9.270000e+01 0.000000e+00
      vertex   1.087000e+02 9.270000e+01 1.050000e+01
      vertex   1.087000e+02 9.270000e+01 0.000000e+00
    endloop
  endfacet
  facet normal 1.000000e+00 0.000000e+00 0.000000e+00
    outer loop
      vertex   1.087000e+02 9.270000e+01 1.050000e+01
      vertex   1.087000e+02 4.314083e-31 1.050000e+01
      vertex   1.087000e+02 9.270000e+01 0.000000e+00
    endloop
  endfacet
  facet normal 1.000000e+00 0.000000e+00 0.000000e+00
    outer loop
      vertex   1.087000e+02 9.270000e+01 0.000000e+00
      vertex   1.087000e+02 4.314083e-31 1.050000e+01
      vertex   1.087000e+02 -3.827296e+00 0.000000e+00
    endloop
  endfacet
  facet normal 0.000000e+00 0.000000e+00 1.000000e+00
    outer loop
      vertex   -5.473822e-47 0.000000e+00 1.050000e+01
      vertex   1.500000e+00 9.120000e+01 1.050000e+01
      vertex   0.000000e+00 9.270000e+01 1.050000e+01
    endloop
  endfacet
  facet normal 0.000000e+00 0.000000e+00 1.000000e+00
    outer loop
      vertex   0.000000e+00 9.270000e+01 1.050000e+01
      vertex   1.500000e+00 9.120000e+01 1.050000e+01
      vertex   1.072000e+02 9.120000e+01 1.050000e+01
    endloop
  endfacet
  facet normal -0.000000e+00 0.000000e+00 1.000000e+00
    outer loop
      vertex   0.000000e+00 9.270000e+01 1.050000e+01
      vertex   1.072000e+02 9.120000e+01 1.050000e+01
      vertex   1.087000e+02 9.270000e+01 1.050000e+01
    endloop
  endfacet
  facet normal 0.000000e+00 0.000000e+00 1.000000e+00
    outer loop
      vertex   1.087000e+02 9.270000e+01 1.050000e+01
      vertex   1.072000e+02 9.120000e+01 1.050000e+01
      vertex   1.087000e+02 4.314083e-31 1.050000e+01
    endloop
  endfacet
  facet normal 0.000000e+00 0.000000e+00 1.000000e+00
    outer loop
      vertex   1.087000e+02 4.314083e-31 1.050000e+01
      vertex   1.072000e+02 9.120000e+01 1.050000e+01
      vertex   1.072000e+02 1.500000e+00 1.050000e+01
    endloop
  endfacet
  facet normal 0.000000e+00 0.000000e+00 1.000000e+00
    outer loop
      vertex   1.087000e+02 4.314083e-31 1.050000e+01
      vertex   1.072000e+02 1.500000e+00 1.050000e+01
      vertex   1.500000e+00 1.500000e+00 1.050000e+01
    endloop
  endfacet
  facet normal 0.000000e+00 0.000000e+00 1.000000e+00
    outer loop
      vertex   1.500000e+00 9.120000e+01 1.050000e+01
      vertex   -5.473822e-47 0.000000e+00 1.050000e+01
      vertex   1.500000e+00 1.500000e+00 1.050000e+01
    endloop
  endfacet
  facet normal 0.000000e+00 0.000000e+00 1.000000e+00
    outer loop
      vertex   1.500000e+00 1.500000e+00 1.050000e+01
      vertex   -5.473822e-47 0.000000e+00 1.050000e+01
      vertex   1.087000e+02 4.314083e-31 1.050000e+01
    endloop
  endfacet
  facet normal 3.728809e-33 -9.395312e-01 3.424632e-01
    outer loop
      vertex   -5.473822e-47 0.000000e+00 1.050000e+01
      vertex   0.000000e+00 -3.827296e+00 0.000000e+00
      vertex   1.087000e+02 4.314083e-31 1.050000e+01
    endloop
  endfacet
  facet normal 0.000000e+00 -9.395312e-01 3.424632e-01
    outer loop
      vertex   1.087000e+02 4.314083e-31 1.050000e+01
      vertex   0.000000e+00 -3.827296e+00 0.000000e+00
      vertex   1.087000e+02 -3.827296e+00 0.000000e+00
    endloop
  endfacet
  facet normal 0.000000e+00 0.000000e+00 1.000000e+00
    outer loop
      vertex   1.072000e+02 9.120000e+01 1.190000e+01
      vertex   1.062000e+02 9.020000e+01 1.190000e+01
      vertex   1.072000e+02 1.500000e+00 1.190000e+01
    endloop
  endfacet
  facet normal 0.000000e+00 0.000000e+00 1.000000e+00
    outer loop
      vertex   1.072000e+02 1.500000e+00 1.190000e+01
      vertex   1.062000e+02 9.020000e+01 1.190000e+01
      vertex   1.062000e+02 2.500000e+00 1.190000e+01
    endloop
  endfacet
  facet normal 0.000000e+00 0.000000e+00 1.000000e+00
    outer loop
      vertex   1.072000e+02 1.500000e+00 1.190000e+01
      vertex   1.062000e+02 2.500000e+00 1.190000e+01
      vertex   2.500000e+00 2.500000e+00 1.190000e+01
    endloop
  endfacet
  facet normal 0.000000e+00 0.000000e+00 1.000000e+00
    outer loop
      vertex   1.072000e+02 9.120000e+01 1.190000e+01
      vertex   1.500000e+00 9.120000e+01 1.190000e+01
      vertex   1.062000e+02 9.020000e+01 1.190000e+01
    endloop
  endfacet
  facet normal 0.000000e+00 0.000000e+00 1.000000e+00
    outer loop
      vertex   1.062000e+02 9.020000e+01 1.190000e+01
      vertex   1.500000e+00 9.120000e+01 1.190000e+01
      vertex   2.500000e+00 9.020000e+01 1.190000e+01
    endloop
  endfacet
  facet normal 0.000000e+00 0.000000e+00 1.000000e+00
    outer loop
      vertex   2.500000e+00 9.020000e+01 1.190000e+01
      vertex   1.500000e+00 9.120000e+01 1.190000e+01
      vertex   1.500000e+00 1.500000e+00 1.190000e+01
    endloop
  endfacet
  facet normal 0.000000e+00 0.000000e+00 1.000000e+00
    outer loop
      vertex   2.500000e+00 9.020000e+01 1.190000e+01
      vertex   1.500000e+00 1.500000e+00 1.190000e+01
      vertex   2.500000e+00 2.500000e+00 1.190000e+01
    endloop
  endfacet
  facet normal 0.000000e+00 0.000000e+00 1.000000e+00
    outer loop
      vertex   2.500000e+00 2.500000e+00 1.190000e+01
      vertex   1.500000e+00 1.500000e+00 1.190000e+01
      vertex   1.072000e+02 1.500000e+00 1.190000e+01
    endloop
  endfacet
  facet normal -1.000000e+00 0.000000e+00 0.000000e+00
    outer loop
      vertex   1.062000e+02 9.020000e+01 5.000000e-01
      vertex   1.062000e+02 2.500000e+00 5.000000e-01
      vertex   1.062000e+02 9.020000e+01 1.190000e+01
    endloop
  endfacet
  facet normal -1.000000e+00 -0.000000e+00 0.000000e+00
    outer loop
      vertex   1.062000e+02 9.020000e+01 1.190000e+01
      vertex   1.062000e+02 2.500000e+00 5.000000e-01
      vertex   1.062000e+02 2.500000e+00 1.190000e+01
    endloop
  endfacet
  facet normal 0.000000e+00 -1.000000e+00 2.493132e-15
    outer loop
      vertex   2.500000e+00 9.020000e+01 5.000000e-01
      vertex   1.062000e+02 9.020000e+01 5.000000e-01
      vertex   2.500000e+00 9.020000e+01 1.190000e+01
    endloop
  endfacet
  facet normal -2.740763e-16 -1.000000e+00 0.000000e+00
    outer loop
      vertex   2.500000e+00 9.020000e+01 1.190000e+01
      vertex   1.062000e+02 9.020000e+01 5.000000e-01
      vertex   1.062000e+02 9.020000e+01 1.190000e+01
    endloop
  endfacet
  facet normal 2.688903e-16 1.000000e+00 -0.000000e+00
    outer loop
      vertex   1.072000e+02 9.120000e+01 1.050000e+01
      vertex   1.500000e+00 9.120000e+01 1.050000e+01
      vertex   1.072000e+02 9.120000e+01 1.190000e+01
    endloop
  endfacet
  facet normal 2.688903e-16 1.000000e+00 0.000000e+00
    outer loop
      vertex   1.072000e+02 9.120000e+01 1.190000e+01
      vertex   1.500000e+00 9.120000e+01 1.050000e+01
      vertex   1.500000e+00 9.120000e+01 1.190000e+01
    endloop
  endfacet
  facet normal 1.000000e+00 0.000000e+00 0.000000e+00
    outer loop
      vertex   1.072000e+02 1.500000e+00 1.050000e+01
      vertex   1.072000e+02 9.120000e+01 1.050000e+01
      vertex   1.072000e+02 1.500000e+00 1.190000e+01
    endloop
  endfacet
  facet normal 1.000000e+00 -0.000000e+00 0.000000e+00
    outer loop
      vertex   1.072000e+02 1.500000e+00 1.190000e+01
      vertex   1.072000e+02 9.120000e+01 1.050000e+01
      vertex   1.072000e+02 9.120000e+01 1.190000e+01
    endloop
  endfacet
  facet normal -3.361129e-17 -1.000000e+00 8.529379e-32
    outer loop
      vertex   1.500000e+00 1.500000e+00 1.050000e+01
      vertex   1.072000e+02 1.500000e+00 1.050000e+01
      vertex   1.500000e+00 1.500000e+00 1.190000e+01
    endloop
  endfacet
  facet normal 0.000000e+00 -1.000000e+00 2.537653e-15
    outer loop
      vertex   1.500000e+00 1.500000e+00 1.190000e+01
      vertex   1.072000e+02 1.500000e+00 1.050000e+01
      vertex   1.072000e+02 1.500000e+00 1.190000e+01
    endloop
  endfacet
  facet normal -1.000000e+00 3.960662e-17 0.000000e+00
    outer loop
      vertex   1.500000e+00 9.120000e+01 1.050000e+01
      vertex   1.500000e+00 1.500000e+00 1.050000e+01
      vertex   1.500000e+00 9.120000e+01 1.190000e+01
    endloop
  endfacet
  facet normal -1.000000e+00 0.000000e+00 2.537653e-15
    outer loop
      vertex   1.500000e+00 9.120000e+01 1.190000e+01
      vertex   1.500000e+00 1.500000e+00 1.050000e+01
      vertex   1.500000e+00 1.500000e+00 1.190000e+01
    endloop
  endfacet
  facet normal 1.000000e+00 0.000000e+00 0.000000e+00
    outer loop
      vertex   2.500000e+00 2.500000e+00 5.000000e-01
      vertex   2.500000e+00 9.020000e+01 5.000000e-01
      vertex   2.500000e+00 2.500000e+00 1.190000e+01
    endloop
  endfacet
  facet normal 1.000000e+00 -0.000000e+00 0.000000e+00
    outer loop
      vertex   2.500000e+00 2.500000e+00 1.190000e+01
      vertex   2.500000e+00 9.020000e+01 5.000000e-01
      vertex   2.500000e+00 9.020000e+01 1.190000e+01
    endloop
  endfacet
  facet normal 0.000000e+00 1.000000e+00 -0.000000e+00
    outer loop
      vertex   1.062000e+02 2.500000e+00 5.000000e-01
      vertex   2.500000e+00 2.500000e+00 5.000000e-01
      vertex   1.062000e+02 2.500000e+00 1.190000e+01
    endloop
  endfacet
  facet normal 0.000000e+00 1.000000e+00 0.000000e+00
    outer loop
      vertex   1.062000e+02 2.500000e+00 1.190000e+01
      vertex   2.500000e+00 2.500000e+00 5.000000e-01
      vertex   2.500000e+00 2.500000e+00 1.190000e+01
    endloop
  endfacet
  facet normal 0.000000e+00 -1.000000e+00 0.000000e+00
    outer loop
      vertex   1.249944e+01 7.969400e+01 0.000000e+00
      vertex   9.649944e+01 7.969400e+01 0.000000e+00
      vertex   1.249944e+01 7.969400e+01 5.000000e-01
    endloop
  endfacet
  facet normal 0.000000e+00 -1.000000e+00 0.000000e+00
    outer loop
      vertex   1.249944e+01 7.969400e+01 5.000000e-01
      vertex   9.649944e+01 7.969400e+01 0.000000e+00
      vertex   9.649944e+01 7.969400e+01 5.000000e-01
    endloop
  endfacet
  facet normal 1.000000e+00 0.000000e+00 0.000000e+00
    outer loop
      vertex   1.249944e+01 1.669400e+01 0.000000e+00
      vertex   1.249944e+01 7.969400e+01 0.000000e+00
      vertex   1.249944e+01 1.669400e+01 5.000000e-01
    endloop
  endfacet
  facet normal 1.000000e+00 -0.000000e+00 0.000000e+00
    outer loop
      vertex   1.249944e+01 1.669400e+01 5.000000e-01
      vertex   1.249944e+01 7.969400e+01 0.000000e+00
      vertex   1.249944e+01 7.969400e+01 5.000000e-01
    endloop
  endfacet
  facet normal -4.229421e-17 1.000000e+00 0.000000e+00
    outer loop
      vertex   9.649944e+01 1.669400e+01 0.000000e+00
      vertex   1.249944e+01 1.669400e+01 0.000000e+00
      vertex   9.649944e+01 1.669400e+01 5.000000e-01
    endloop
  endfacet
  facet normal -4.229421e-17 1.000000e+00 0.000000e+00
    outer loop
      vertex   9.649944e+01 1.669400e+01 5.000000e-01
      vertex   1.249944e+01 1.669400e+01 0.000000e+00
      vertex   1.249944e+01 1.669400e+01 5.000000e-01
    endloop
  endfacet
  facet normal -1.000000e+00 0.000000e+00 0.000000e+00
    outer loop
      vertex   9.649944e+01 7.969400e+01 0.000000e+00
      vertex   9.649944e+01 1.669400e+01 0.000000e+00
      vertex   9.649944e+01 7.969400e+01 5.000000e-01
    endloop
  endfacet
  facet normal -1.000000e+00 -0.000000e+00 0.000000e+00
    outer loop
      vertex   9.649944e+01 7.969400e+01 5.000000e-01
      vertex   9.649944e+01 1.669400e+01 0.000000e+00
      vertex   9.649944e+01 1.669400e+01 5.000000e-01
    endloop
  endfacet
  facet normal -0.000000e+00 0.000000e+00 1.000000e+00
    outer loop
      vertex   1.249944e+01 1.669400e+01 5.000000e-01
      vertex   1.062000e+02 2.500000e+00 5.000000e-01
      vertex   9.649944e+01 1.669400e+01 5.000000e-01
    endloop
  endfacet
  facet normal -0.000000e+00 0.000000e+00 1.000000e+00
    outer loop
      vertex   9.649944e+01 1.669400e+01 5.000000e-01
      vertex   1.062000e+02 2.500000e+00 5.000000e-01
      vertex   1.062000e+02 9.020000e+01 5.000000e-01
    endloop
  endfacet
  facet normal 0.000000e+00 0.000000e+00 1.000000e+00
    outer loop
      vertex   9.649944e+01 1.669400e+01 5.000000e-01
      vertex   1.062000e+02 9.020000e+01 5.000000e-01
      vertex   9.649944e+01 7.969400e+01 5.000000e-01
    endloop
  endfacet
  facet normal 0.000000e+00 -0.000000e+00 1.000000e+00
    outer loop
      vertex   9.649944e+01 7.969400e+01 5.000000e-01
      vertex   1.062000e+02 9.020000e+01 5.000000e-01
      vertex   1.249944e+01 7.969400e+01 5.000000e-01
    endloop
  endfacet
  facet normal 0.000000e+00 -0.000000e+00 1.000000e+00
    outer loop
      vertex   1.249944e+01 7.969400e+01 5.000000e-01
      vertex   1.062000e+02 9.020000e+01 5.000000e-01
      vertex   2.500000e+00 9.020000e+01 5.000000e-01
    endloop
  endfacet
  facet normal 0.000000e+00 0.000000e+00 1.000000e+00
    outer loop
      vertex   1.249944e+01 7.969400e+01 5.000000e-01
      vertex   2.500000e+00 9.020000e+01 5.000000e-01
      vertex   1.249944e+01 1.669400e+01 5.000000e-01
    endloop
  endfacet
  facet normal 0.000000e+00 0.000000e+00 1.000000e+00
    outer loop
      vertex   1.249944e+01 1.669400e+01 5.000000e-01
      vertex   2.500000e+00 9.020000e+01 5.000000e-01
      vertex   2.500000e+00 2.500000e+00 5.000000e-01
    endloop
  endfacet
  facet normal 0.000000e+00 0.000000e+00 1.000000e+00
    outer loop
      vertex   1.249944e+01 1.669400e+01 5.000000e-01
      vertex   2.500000e+00 2.500000e+00 5.000000e-01
      vertex   1.062000e+02 2.500000e+00 5.000000e-01
    endloop
  endfacet
  facet normal 0.000000e+00 0.000000e+00 -1.000000e+00
    outer loop
      vertex   1.087000e+02 -3.827296e+00 0.000000e+00
      vertex   0.000000e+00 -3.827296e+00 0.000000e+00
      vertex   1.249944e+01 1.669400e+01 0.000000e+00
    endloop
  endfacet
  facet normal -0.000000e+00 0.000000e+00 -1.000000e+00
    outer loop
      vertex   1.249944e+01 1.669400e+01 0.000000e+00
      vertex   0.000000e+00 -3.827296e+00 0.000000e+00
      vertex   0.000000e+00 9.270000e+01 0.000000e+00
    endloop
  endfacet
  facet normal 0.000000e+00 0.000000e+00 -1.000000e+00
    outer loop
      vertex   1.249944e+01 1.669400e+01 0.000000e+00
      vertex   0.000000e+00 9.270000e+01 0.000000e+00
      vertex   1.249944e+01 7.969400e+01 0.000000e+00
    endloop
  endfacet
  facet normal 0.000000e+00 0.000000e+00 -1.000000e+00
    outer loop
      vertex   1.249944e+01 7.969400e+01 0.000000e+00
      vertex   0.000000e+00 9.270000e+01 0.000000e+00
      vertex   1.087000e+02 9.270000e+01 0.000000e+00
    endloop
  endfacet
  facet normal 0.000000e+00 0.000000e+00 -1.000000e+00
    outer loop
      vertex   1.249944e+01 7.969400e+01 0.000000e+00
      vertex   1.087000e+02 9.270000e+01 0.000000e+00
      vertex   9.649944e+01 7.969400e+01 0.000000e+00
    endloop
  endfacet
  facet normal 0.000000e+00 0.000000e+00 -1.000000e+00
    outer loop
      vertex   9.649944e+01 7.969400e+01 0.000000e+00
      vertex   1.087000e+02 9.270000e+01 0.000000e+00
      vertex   9.649944e+01 1.669400e+01 0.000000e+00
    endloop
  endfacet
  facet normal 0.000000e+00 0.000000e+00 -1.000000e+00
    outer loop
      vertex   9.649944e+01 1.669400e+01 0.000000e+00
      vertex   1.087000e+02 9.270000e+01 0.000000e+00
      vertex   1.087000e+02 -3.827296e+00 0.000000e+00
    endloop
  endfacet
  facet normal 0.000000e+00 -0.000000e+00 -1.000000e+00
    outer loop
      vertex   9.649944e+01 1.669400e+01 0.000000e+00
      vertex   1.087000e+02 -3.827296e+00 0.000000e+00
      vertex   1.249944e+01 1.669400e+01 0.000000e+00
    endloop
  endfacet
endsolid
