%TF.GenerationSoftware,KiCad,Pcbnew,(6.0.11)*%
%TF.CreationDate,2023-03-04T17:25:38+01:00*%
%TF.ProjectId,jig2,6a696732-2e6b-4696-9361-645f70636258,rev?*%
%TF.SameCoordinates,Original*%
%TF.FileFunction,Drillmap*%
%TF.FilePolarity,Positive*%
%FSLAX45Y45*%
G04 Gerber Fmt 4.5, Leading zero omitted, Abs format (unit mm)*
G04 Created by KiCad (PCBNEW (6.0.11)) date 2023-03-04 17:25:38*
%MOMM*%
%LPD*%
G01*
G04 APERTURE LIST*
%ADD10C,0.100000*%
%ADD11C,0.200000*%
G04 APERTURE END LIST*
D10*
X0Y-8500000D02*
X0Y0D01*
X4000000Y-8500000D02*
X0Y-8500000D01*
X4000000Y0D02*
X4000000Y-8500000D01*
X0Y0D02*
X4000000Y0D01*
D11*
X252619Y-8815476D02*
X252619Y-8615476D01*
X300238Y-8615476D01*
X328810Y-8625000D01*
X347857Y-8644048D01*
X357381Y-8663095D01*
X366905Y-8701190D01*
X366905Y-8729762D01*
X357381Y-8767857D01*
X347857Y-8786905D01*
X328810Y-8805952D01*
X300238Y-8815476D01*
X252619Y-8815476D01*
X452619Y-8815476D02*
X452619Y-8682143D01*
X452619Y-8720238D02*
X462143Y-8701190D01*
X471667Y-8691667D01*
X490714Y-8682143D01*
X509762Y-8682143D01*
X576429Y-8815476D02*
X576429Y-8682143D01*
X576429Y-8615476D02*
X566905Y-8625000D01*
X576429Y-8634524D01*
X585952Y-8625000D01*
X576429Y-8615476D01*
X576429Y-8634524D01*
X700238Y-8815476D02*
X681190Y-8805952D01*
X671667Y-8786905D01*
X671667Y-8615476D01*
X805000Y-8815476D02*
X785952Y-8805952D01*
X776428Y-8786905D01*
X776428Y-8615476D01*
X1033571Y-8815476D02*
X1033571Y-8615476D01*
X1100238Y-8758333D01*
X1166905Y-8615476D01*
X1166905Y-8815476D01*
X1347857Y-8815476D02*
X1347857Y-8710714D01*
X1338333Y-8691667D01*
X1319286Y-8682143D01*
X1281190Y-8682143D01*
X1262143Y-8691667D01*
X1347857Y-8805952D02*
X1328810Y-8815476D01*
X1281190Y-8815476D01*
X1262143Y-8805952D01*
X1252619Y-8786905D01*
X1252619Y-8767857D01*
X1262143Y-8748810D01*
X1281190Y-8739286D01*
X1328810Y-8739286D01*
X1347857Y-8729762D01*
X1443095Y-8682143D02*
X1443095Y-8882143D01*
X1443095Y-8691667D02*
X1462143Y-8682143D01*
X1500238Y-8682143D01*
X1519286Y-8691667D01*
X1528809Y-8701190D01*
X1538333Y-8720238D01*
X1538333Y-8777381D01*
X1528809Y-8796429D01*
X1519286Y-8805952D01*
X1500238Y-8815476D01*
X1462143Y-8815476D01*
X1443095Y-8805952D01*
X1624048Y-8796429D02*
X1633571Y-8805952D01*
X1624048Y-8815476D01*
X1614524Y-8805952D01*
X1624048Y-8796429D01*
X1624048Y-8815476D01*
X1624048Y-8691667D02*
X1633571Y-8701190D01*
X1624048Y-8710714D01*
X1614524Y-8701190D01*
X1624048Y-8691667D01*
X1624048Y-8710714D01*
M02*
