G04 #@! TF.GenerationSoftware,KiCad,Pcbnew,(6.0.11)*
G04 #@! TF.CreationDate,2023-03-04T17:24:57+01:00*
G04 #@! TF.ProjectId,jig2,6a696732-2e6b-4696-9361-645f70636258,rev?*
G04 #@! TF.SameCoordinates,Original*
G04 #@! TF.FileFunction,Soldermask,Top*
G04 #@! TF.FilePolarity,Negative*
%FSLAX46Y46*%
G04 Gerber Fmt 4.6, Leading zero omitted, Abs format (unit mm)*
G04 Created by KiCad (PCBNEW (6.0.11)) date 2023-03-04 17:24:57*
%MOMM*%
%LPD*%
G01*
G04 APERTURE LIST*
G04 Aperture macros list*
%AMRoundRect*
0 Rectangle with rounded corners*
0 $1 Rounding radius*
0 $2 $3 $4 $5 $6 $7 $8 $9 X,Y pos of 4 corners*
0 Add a 4 corners polygon primitive as box body*
4,1,4,$2,$3,$4,$5,$6,$7,$8,$9,$2,$3,0*
0 Add four circle primitives for the rounded corners*
1,1,$1+$1,$2,$3*
1,1,$1+$1,$4,$5*
1,1,$1+$1,$6,$7*
1,1,$1+$1,$8,$9*
0 Add four rect primitives between the rounded corners*
20,1,$1+$1,$2,$3,$4,$5,0*
20,1,$1+$1,$4,$5,$6,$7,0*
20,1,$1+$1,$6,$7,$8,$9,0*
20,1,$1+$1,$8,$9,$2,$3,0*%
%AMFreePoly0*
4,1,22,0.500000,-0.750000,0.000000,-0.750000,0.000000,-0.745033,-0.079941,-0.743568,-0.215256,-0.701293,-0.333266,-0.622738,-0.424486,-0.514219,-0.481581,-0.384460,-0.499164,-0.250000,-0.500000,-0.250000,-0.500000,0.250000,-0.499164,0.250000,-0.499963,0.256109,-0.478152,0.396186,-0.417904,0.524511,-0.324060,0.630769,-0.204165,0.706417,-0.067858,0.745374,0.000000,0.744959,0.000000,0.750000,
0.500000,0.750000,0.500000,-0.750000,0.500000,-0.750000,$1*%
%AMFreePoly1*
4,1,20,0.000000,0.744959,0.073905,0.744508,0.209726,0.703889,0.328688,0.626782,0.421226,0.519385,0.479903,0.390333,0.500000,0.250000,0.500000,-0.250000,0.499851,-0.262216,0.476331,-0.402017,0.414519,-0.529596,0.319384,-0.634700,0.198574,-0.708877,0.061801,-0.746166,0.000000,-0.745033,0.000000,-0.750000,-0.500000,-0.750000,-0.500000,0.750000,0.000000,0.750000,0.000000,0.744959,
0.000000,0.744959,$1*%
G04 Aperture macros list end*
%ADD10FreePoly0,180.000000*%
%ADD11FreePoly1,180.000000*%
%ADD12RoundRect,0.250000X0.350000X0.450000X-0.350000X0.450000X-0.350000X-0.450000X0.350000X-0.450000X0*%
%ADD13RoundRect,0.250000X-0.450000X0.350000X-0.450000X-0.350000X0.450000X-0.350000X0.450000X0.350000X0*%
%ADD14C,2.000000*%
%ADD15R,1.700000X1.700000*%
%ADD16O,1.700000X1.700000*%
%ADD17R,0.800000X1.900000*%
%ADD18R,1.800000X1.800000*%
%ADD19C,1.800000*%
%ADD20RoundRect,0.250000X-0.350000X-0.450000X0.350000X-0.450000X0.350000X0.450000X-0.350000X0.450000X0*%
%ADD21R,1.900000X0.800000*%
%ADD22FreePoly0,90.000000*%
%ADD23FreePoly1,90.000000*%
%ADD24C,1.371600*%
%ADD25C,2.500000*%
G04 APERTURE END LIST*
D10*
X25650000Y-80750000D03*
D11*
X24350000Y-80750000D03*
D12*
X18250000Y-81120000D03*
X16250000Y-81120000D03*
D13*
X6000000Y-13000000D03*
X6000000Y-15000000D03*
D14*
X9250000Y-4765564D03*
X2750000Y-4765564D03*
X2750000Y-9265564D03*
X9250000Y-9265564D03*
D15*
X7620000Y-35560000D03*
D16*
X7620000Y-38100000D03*
X7620000Y-40640000D03*
X7620000Y-43180000D03*
X7620000Y-45720000D03*
X7620000Y-48260000D03*
X7620000Y-50800000D03*
X7620000Y-53340000D03*
X7620000Y-55880000D03*
X7620000Y-58420000D03*
X7620000Y-60960000D03*
X7620000Y-63500000D03*
X7620000Y-66040000D03*
X7620000Y-68580000D03*
X7620000Y-71120000D03*
X7620000Y-73660000D03*
X7620000Y-76200000D03*
X7620000Y-78740000D03*
X7620000Y-81280000D03*
D17*
X23380000Y-75120000D03*
X21480000Y-75120000D03*
X22430000Y-78120000D03*
D13*
X35500000Y-10000000D03*
X35500000Y-12000000D03*
X30500000Y-10000000D03*
X30500000Y-12000000D03*
X16000000Y-13000000D03*
X16000000Y-15000000D03*
D18*
X23290000Y-5080000D03*
D19*
X25830000Y-5080000D03*
D20*
X21250000Y-71120000D03*
X23250000Y-71120000D03*
D15*
X32975000Y-35570000D03*
D16*
X32975000Y-38110000D03*
X32975000Y-40650000D03*
X32975000Y-43190000D03*
X32975000Y-45730000D03*
X32975000Y-48270000D03*
X32975000Y-50810000D03*
X32975000Y-53350000D03*
X32975000Y-55890000D03*
X32975000Y-58430000D03*
X32975000Y-60970000D03*
X32975000Y-63510000D03*
X32975000Y-66050000D03*
X32975000Y-68590000D03*
X32975000Y-71130000D03*
X32975000Y-73670000D03*
X32975000Y-76210000D03*
X32975000Y-78750000D03*
X32975000Y-81290000D03*
D21*
X13400000Y-74470000D03*
X13400000Y-76370000D03*
X16400000Y-75420000D03*
D13*
X24500000Y-10000000D03*
X24500000Y-12000000D03*
D22*
X26250000Y-72650000D03*
D23*
X26250000Y-71350000D03*
D24*
X28256000Y-17005000D03*
X28256000Y-19005000D03*
X28256000Y-21005000D03*
X28206000Y-23005000D03*
X30006000Y-20005000D03*
X30006000Y-22005000D03*
X31756000Y-17005000D03*
X31756000Y-19005000D03*
X31756000Y-21005000D03*
X31756000Y-23005000D03*
D25*
X28500000Y-77500000D03*
D18*
X28830000Y-5080000D03*
D19*
X31370000Y-5080000D03*
D13*
X10750000Y-25500000D03*
X10750000Y-27500000D03*
D14*
X19250000Y-4765564D03*
X12750000Y-4765564D03*
X19250000Y-9265564D03*
X12750000Y-9265564D03*
D18*
X34370000Y-5080000D03*
D19*
X36910000Y-5080000D03*
D12*
X18750000Y-71120000D03*
X16750000Y-71120000D03*
D14*
X14750000Y-20820000D03*
X21250000Y-20820000D03*
X14750000Y-25320000D03*
X21250000Y-25320000D03*
M02*
